M48
; DRILL file {KiCad 9.0.3} date 2026-05-23T03:43:51+0800
; FORMAT={-:-/ absolute / metric / decimal}
; #@! TF.CreationDate,2026-05-23T03:43:51+08:00
; #@! TF.GenerationSoftware,Kicad,Pcbnew,9.0.3
; #@! TF.FileFunction,Plated,1,4,PTH
FMAT,2
METRIC
; #@! TA.AperFunction,Plated,PTH,ViaDrill
T1C0.300
; #@! TA.AperFunction,Plated,PTH,ViaDrill
T2C0.400
; #@! TA.AperFunction,Plated,PTH,ViaDrill
T3C0.500
; #@! TA.AperFunction,Plated,PTH,ComponentDrill
T4C0.750
; #@! TA.AperFunction,Plated,PTH,ComponentDrill
T5C0.900
; #@! TA.AperFunction,Plated,PTH,ComponentDrill
T6C1.000
; #@! TA.AperFunction,Plated,PTH,ComponentDrill
T7C1.700
; #@! TA.AperFunction,Plated,PTH,ComponentDrill
T8C3.200
%
G90
G05
T1
X131.7Y-80.07
X132.8Y-69.49
X132.8Y-70.51
X135.1Y-74.97
X135.1Y-79.57
X137.5Y-84.5
X138.2Y-109.2
X140.35Y-88.563
X141.55Y-95.85
X141.8Y-89.7
X143.1Y-84.5
X143.2Y-92.4
X143.4Y-93.875
X143.592Y-94.592
X143.8Y-88.0
X144.0Y-101.2
X144.05Y-110.7
X144.242Y-86.15
X144.318Y-89.75
X144.318Y-90.75
X144.318Y-91.75
X146.15Y-71.05
X146.2Y-109.2
X146.504Y-92.254
X146.507Y-99.25
X146.507Y-89.25
X146.507Y-91.25
X146.507Y-90.25
X146.564Y-96.32
X146.617Y-95.421
X146.635Y-94.521
X146.65Y-83.35
X146.65Y-93.2
X146.659Y-85.15
X146.744Y-84.246
X147.0Y-102.8
X147.459Y-85.15
X147.471Y-86.919
X147.484Y-86.023
X148.3Y-97.65
X148.707Y-100.526
X149.208Y-81.474
X150.128Y-81.484
X150.17Y-100.507
X151.4Y-100.5
X152.05Y-110.7
X152.112Y-81.496
X152.313Y-100.511
X153.4Y-81.5
X153.4Y-100.5
X154.2Y-109.3
X154.3Y-71.1
X154.679Y-81.494
X155.706Y-100.502
X156.671Y-100.515
X157.732Y-81.466
X158.112Y-100.504
X158.681Y-81.507
X159.134Y-100.507
X159.75Y-81.5
X159.9Y-102.976
X160.033Y-100.55
X160.05Y-110.65
X160.4Y-78.7
X160.81Y-81.526
X161.253Y-100.5
X161.75Y-81.499
X162.15Y-109.1
X162.4Y-71.1
X162.75Y-81.5
X165.25Y-79.0
X165.63Y-82.12
X165.65Y-90.15
X165.65Y-96.05
X165.65Y-97.25
X165.651Y-83.1
X165.651Y-84.85
X165.651Y-86.31
X165.651Y-87.291
X165.651Y-98.15
X165.652Y-91.426
X165.666Y-95.021
X165.7Y-88.25
X165.7Y-92.2
X165.706Y-89.129
X167.2Y-81.6
X168.0Y-110.7
X168.15Y-88.75
X168.2Y-91.579
X168.244Y-90.85
X168.351Y-96.751
X168.4Y-87.85
X170.1Y-86.3
X170.25Y-109.2
X170.55Y-71.1
X176.1Y-110.7
T2
X127.9Y-62.25
X128.25Y-117.65
X130.2Y-113.55
X132.3Y-63.1
X132.3Y-64.2
X132.5Y-118.2
X132.5Y-119.3
X136.75Y-68.2
X136.75Y-71.7
X137.4Y-98.65
X137.45Y-92.6
X137.813Y-93.638
X138.65Y-82.75
X140.539Y-70.644
X140.65Y-69.55
X141.7Y-75.7
X142.45Y-83.25
X142.952Y-112.189
X143.85Y-72.25
X144.05Y-112.25
X146.173Y-69.31
X147.272Y-69.338
X147.6Y-88.4
X150.95Y-112.315
X151.0Y-85.45
X151.25Y-89.05
X151.95Y-95.55
X152.0Y-72.35
X152.05Y-112.3
X154.269Y-69.289
X155.368Y-69.338
X156.0Y-95.0
X158.95Y-112.315
X159.85Y-85.65
X160.05Y-112.35
X160.1Y-72.35
X161.2Y-92.85
X162.412Y-69.302
X163.511Y-69.339
X166.963Y-112.315
X168.063Y-112.3
X168.25Y-72.3
X170.555Y-69.316
X171.655Y-69.338
X174.95Y-112.315
X175.8Y-72.0
X176.05Y-112.3
X177.31Y-67.56
X178.29Y-70.92
X178.5Y-72.7
X181.8Y-76.6
X182.4Y-67.9
X185.4Y-102.0
X185.5Y-86.2
X185.5Y-87.25
X185.5Y-88.35
X190.15Y-86.0
X190.15Y-84.65
X190.15Y-93.24
X192.9Y-117.3
X192.9Y-118.4
X193.124Y-62.103
X193.2Y-63.2
X195.4Y-68.15
X195.5Y-84.4
X195.5Y-91.6
X196.4Y-65.1
X197.15Y-119.2
T3
X154.15Y-89.0
X154.15Y-91.0
X154.15Y-93.0
X156.15Y-89.0
X156.15Y-91.0
X156.15Y-93.0
X158.15Y-89.0
X158.15Y-91.0
X158.15Y-93.0
X171.7Y-80.275
X171.7Y-85.275
X171.825Y-96.8
X171.825Y-101.75
X171.85Y-88.4
X171.85Y-93.5
X174.9Y-88.25
X174.925Y-96.95
X176.15Y-90.85
X176.5Y-84.975
X176.5Y-92.9
X176.525Y-99.3
X176.525Y-101.55
X176.55Y-82.675
X177.642Y-78.825
X179.55Y-80.275
X179.7Y-88.3
X179.725Y-96.95
X182.45Y-83.95
X187.6Y-79.4
X187.6Y-80.65
X193.65Y-79.35
X193.65Y-80.7
T4
X129.9Y-67.95
X129.9Y-69.95
X129.9Y-71.95
T5
X133.4Y-76.57
X133.4Y-81.17
X135.94Y-76.57
X135.94Y-81.17
X178.33Y-69.2
X180.87Y-69.2
T6
X131.215Y-89.34
X131.215Y-91.88
X131.215Y-94.42
X131.215Y-96.96
X131.215Y-99.5
X133.755Y-89.34
X133.755Y-91.88
X133.755Y-94.42
X133.755Y-96.96
X133.755Y-99.5
X138.495Y-119.96
X138.495Y-122.5
X138.532Y-59.188
X138.532Y-61.728
X141.035Y-119.96
X141.035Y-122.5
X141.072Y-59.188
X141.072Y-61.728
X143.575Y-122.5
X143.575Y-119.96
X143.612Y-59.188
X143.612Y-61.728
X146.115Y-119.96
X146.115Y-122.5
X146.152Y-59.188
X146.152Y-61.728
X148.655Y-119.96
X148.655Y-122.5
X148.692Y-61.728
X148.692Y-59.188
X151.195Y-119.96
X151.195Y-122.5
X151.232Y-59.188
X151.232Y-61.728
X153.735Y-119.96
X153.735Y-122.5
X153.772Y-59.188
X153.772Y-61.728
X156.275Y-119.96
X156.275Y-122.5
X156.312Y-59.188
X156.312Y-61.728
X158.815Y-119.96
X158.815Y-122.5
X158.852Y-61.728
X158.852Y-59.188
X161.355Y-119.96
X161.355Y-122.5
X161.392Y-59.188
X161.392Y-61.728
X163.895Y-119.96
X163.895Y-122.5
X163.932Y-59.188
X163.932Y-61.728
X166.435Y-122.5
X166.435Y-119.96
X166.472Y-59.188
X166.472Y-61.728
X168.975Y-119.96
X168.975Y-122.5
X169.012Y-59.188
X169.012Y-61.728
X171.515Y-119.96
X171.515Y-122.5
X171.552Y-59.188
X171.552Y-61.728
X174.055Y-119.96
X174.055Y-122.5
X174.092Y-59.188
X174.092Y-61.728
X176.595Y-122.5
X176.595Y-119.96
X176.632Y-59.188
X176.632Y-61.728
X179.135Y-119.96
X179.135Y-122.5
X179.172Y-59.188
X179.172Y-61.728
X181.675Y-119.96
X181.675Y-122.5
X181.712Y-61.728
X181.712Y-59.188
X183.9Y-67.19
X183.9Y-69.73
X183.9Y-72.27
X183.9Y-74.81
X184.215Y-119.96
X184.215Y-122.5
X184.252Y-59.188
X184.252Y-61.728
X186.44Y-67.19
X186.44Y-69.73
X186.44Y-72.27
X186.44Y-74.81
X186.755Y-119.96
X186.755Y-122.5
X186.792Y-59.188
X186.792Y-61.728
T7
X132.85Y-109.557
X132.85Y-113.517
X182.75Y-107.697
X182.75Y-111.657
X192.45Y-68.135
X192.45Y-72.096
X192.45Y-107.697
X192.45Y-111.657
T8
X129.75Y-58.0
X129.75Y-124.0
X195.75Y-58.0
X195.75Y-124.0
M30
