%TF.GenerationSoftware,KiCad,Pcbnew,9.0.3*%
%TF.CreationDate,2026-05-23T03:43:54+08:00*%
%TF.ProjectId,AcousticGripper_MotherboardV1,41636f75-7374-4696-9347-726970706572,rev?*%
%TF.SameCoordinates,Original*%
%TF.FileFunction,Soldermask,Bot*%
%TF.FilePolarity,Negative*%
%FSLAX46Y46*%
G04 Gerber Fmt 4.6, Leading zero omitted, Abs format (unit mm)*
G04 Created by KiCad (PCBNEW 9.0.3) date 2026-05-23 03:43:54*
%MOMM*%
%LPD*%
G01*
G04 APERTURE LIST*
G04 Aperture macros list*
%AMRoundRect*
0 Rectangle with rounded corners*
0 $1 Rounding radius*
0 $2 $3 $4 $5 $6 $7 $8 $9 X,Y pos of 4 corners*
0 Add a 4 corners polygon primitive as box body*
4,1,4,$2,$3,$4,$5,$6,$7,$8,$9,$2,$3,0*
0 Add four circle primitives for the rounded corners*
1,1,$1+$1,$2,$3*
1,1,$1+$1,$4,$5*
1,1,$1+$1,$6,$7*
1,1,$1+$1,$8,$9*
0 Add four rect primitives between the rounded corners*
20,1,$1+$1,$2,$3,$4,$5,0*
20,1,$1+$1,$4,$5,$6,$7,0*
20,1,$1+$1,$6,$7,$8,$9,0*
20,1,$1+$1,$8,$9,$2,$3,0*%
G04 Aperture macros list end*
%ADD10C,3.600000*%
%ADD11C,5.700000*%
%ADD12RoundRect,0.250001X1.099999X-1.099999X1.099999X1.099999X-1.099999X1.099999X-1.099999X-1.099999X0*%
%ADD13C,2.700000*%
%ADD14RoundRect,0.250000X-0.600000X0.600000X-0.600000X-0.600000X0.600000X-0.600000X0.600000X0.600000X0*%
%ADD15C,1.700000*%
%ADD16R,1.800000X1.800000*%
%ADD17C,1.800000*%
%ADD18RoundRect,0.250000X0.600000X-0.600000X0.600000X0.600000X-0.600000X0.600000X-0.600000X-0.600000X0*%
%ADD19R,1.700000X1.700000*%
%ADD20RoundRect,0.250000X-0.625000X0.350000X-0.625000X-0.350000X0.625000X-0.350000X0.625000X0.350000X0*%
%ADD21O,1.750000X1.200000*%
%ADD22RoundRect,0.250000X-0.600000X-0.600000X0.600000X-0.600000X0.600000X0.600000X-0.600000X0.600000X0*%
%ADD23RoundRect,0.250001X-1.099999X1.099999X-1.099999X-1.099999X1.099999X-1.099999X1.099999X1.099999X0*%
%ADD24RoundRect,0.140000X-0.140000X-0.170000X0.140000X-0.170000X0.140000X0.170000X-0.140000X0.170000X0*%
%ADD25RoundRect,0.140000X0.140000X0.170000X-0.140000X0.170000X-0.140000X-0.170000X0.140000X-0.170000X0*%
%ADD26RoundRect,0.140000X-0.170000X0.140000X-0.170000X-0.140000X0.170000X-0.140000X0.170000X0.140000X0*%
%ADD27RoundRect,0.250000X-0.445000X0.457500X-0.445000X-0.457500X0.445000X-0.457500X0.445000X0.457500X0*%
%ADD28RoundRect,0.135000X-0.135000X-0.185000X0.135000X-0.185000X0.135000X0.185000X-0.135000X0.185000X0*%
%ADD29RoundRect,0.250000X1.000000X0.650000X-1.000000X0.650000X-1.000000X-0.650000X1.000000X-0.650000X0*%
%ADD30RoundRect,0.135000X0.135000X0.185000X-0.135000X0.185000X-0.135000X-0.185000X0.135000X-0.185000X0*%
%ADD31RoundRect,0.135000X0.185000X-0.135000X0.185000X0.135000X-0.185000X0.135000X-0.185000X-0.135000X0*%
%ADD32RoundRect,0.135000X-0.185000X0.135000X-0.185000X-0.135000X0.185000X-0.135000X0.185000X0.135000X0*%
%ADD33RoundRect,0.140000X0.170000X-0.140000X0.170000X0.140000X-0.170000X0.140000X-0.170000X-0.140000X0*%
%ADD34RoundRect,0.162500X0.650000X0.162500X-0.650000X0.162500X-0.650000X-0.162500X0.650000X-0.162500X0*%
%ADD35RoundRect,0.147500X-0.172500X0.147500X-0.172500X-0.147500X0.172500X-0.147500X0.172500X0.147500X0*%
%ADD36RoundRect,0.147500X0.172500X-0.147500X0.172500X0.147500X-0.172500X0.147500X-0.172500X-0.147500X0*%
%ADD37RoundRect,0.147500X0.147500X0.172500X-0.147500X0.172500X-0.147500X-0.172500X0.147500X-0.172500X0*%
%ADD38RoundRect,0.450000X1.050000X-2.550000X1.050000X2.550000X-1.050000X2.550000X-1.050000X-2.550000X0*%
G04 APERTURE END LIST*
D10*
%TO.C,REF\u002A\u002A*%
X195750000Y-58000000D03*
D11*
X195750000Y-58000000D03*
%TD*%
D12*
%TO.C,J8*%
X192450000Y-111657500D03*
D13*
X192450000Y-107697500D03*
%TD*%
D14*
%TO.C,J1*%
X186792000Y-59188000D03*
D15*
X186792000Y-61728000D03*
X184252000Y-59188000D03*
X184252000Y-61728000D03*
X181712001Y-59188000D03*
X181712000Y-61728000D03*
X179172000Y-59188000D03*
X179172000Y-61728000D03*
X176632000Y-59188000D03*
X176632000Y-61728000D03*
X174092000Y-59188000D03*
X174092000Y-61728000D03*
X171552000Y-59188000D03*
X171552000Y-61728000D03*
X169011999Y-59188000D03*
X169012000Y-61728000D03*
X166472000Y-59188000D03*
X166472000Y-61728000D03*
X163932000Y-59188000D03*
X163932000Y-61728000D03*
X161392000Y-59188000D03*
X161392000Y-61728000D03*
X158852001Y-59188000D03*
X158852000Y-61728000D03*
X156312000Y-59188000D03*
X156312000Y-61728000D03*
X153772000Y-59188000D03*
X153772000Y-61728000D03*
X151232000Y-59188000D03*
X151232000Y-61728000D03*
X148692001Y-59188000D03*
X148692000Y-61728000D03*
X146151999Y-59188000D03*
X146152000Y-61728000D03*
X143612000Y-59188000D03*
X143612000Y-61728000D03*
X141072000Y-59188000D03*
X141072000Y-61728000D03*
X138532000Y-59188000D03*
X138532000Y-61728000D03*
%TD*%
D16*
%TO.C,D4*%
X178330000Y-69200000D03*
D17*
X180870000Y-69200000D03*
%TD*%
D18*
%TO.C,J3*%
X138495000Y-122500000D03*
D15*
X138495000Y-119960000D03*
X141035000Y-122500000D03*
X141035000Y-119960000D03*
X143574999Y-122500000D03*
X143575000Y-119960000D03*
X146115000Y-122500000D03*
X146115000Y-119960000D03*
X148655000Y-122500000D03*
X148655000Y-119960000D03*
X151195000Y-122500000D03*
X151195000Y-119960000D03*
X153735000Y-122500000D03*
X153735000Y-119960000D03*
X156275001Y-122500000D03*
X156275000Y-119960000D03*
X158815000Y-122500000D03*
X158815000Y-119960000D03*
X161355000Y-122500000D03*
X161355000Y-119960000D03*
X163895000Y-122500000D03*
X163895000Y-119960000D03*
X166434999Y-122500000D03*
X166435000Y-119960000D03*
X168975000Y-122500000D03*
X168975000Y-119960000D03*
X171515000Y-122500000D03*
X171515000Y-119960000D03*
X174055000Y-122500000D03*
X174055000Y-119960000D03*
X176594999Y-122500000D03*
X176595000Y-119960000D03*
X179135001Y-122500000D03*
X179135000Y-119960000D03*
X181675000Y-122500000D03*
X181675000Y-119960000D03*
X184215000Y-122500000D03*
X184215000Y-119960000D03*
X186755000Y-122500000D03*
X186755000Y-119960000D03*
%TD*%
D10*
%TO.C,REF\u002A\u002A*%
X195750000Y-124000000D03*
D11*
X195750000Y-124000000D03*
%TD*%
D10*
%TO.C,REF\u002A\u002A*%
X129750000Y-58000000D03*
D11*
X129750000Y-58000000D03*
%TD*%
D19*
%TO.C,J9*%
X183900000Y-67190000D03*
D15*
X186440000Y-67190000D03*
X183900000Y-69730000D03*
X186440000Y-69730000D03*
X183900000Y-72270000D03*
X186440000Y-72270000D03*
X183900000Y-74810000D03*
X186440000Y-74810000D03*
%TD*%
D16*
%TO.C,D1*%
X135940000Y-81170000D03*
D17*
X133400000Y-81170000D03*
%TD*%
D10*
%TO.C,REF\u002A\u002A*%
X129750000Y-124000000D03*
D11*
X129750000Y-124000000D03*
%TD*%
D20*
%TO.C,J4*%
X129900000Y-67950000D03*
D21*
X129900000Y-69950001D03*
X129900000Y-71950000D03*
%TD*%
D22*
%TO.C,J2*%
X131215000Y-89340000D03*
D15*
X133755000Y-89340000D03*
X131215000Y-91880000D03*
X133755000Y-91880000D03*
X131215000Y-94420000D03*
X133755000Y-94420000D03*
X131215000Y-96960000D03*
X133755000Y-96960000D03*
X131215000Y-99500000D03*
X133755000Y-99500000D03*
%TD*%
D23*
%TO.C,J6*%
X132850000Y-109557500D03*
D13*
X132850000Y-113517500D03*
%TD*%
D16*
%TO.C,D2*%
X135940000Y-76570000D03*
D17*
X133400000Y-76570000D03*
%TD*%
D12*
%TO.C,J5*%
X182750000Y-111657500D03*
D13*
X182750000Y-107697500D03*
%TD*%
D12*
%TO.C,J7*%
X192450000Y-72095500D03*
D13*
X192450000Y-68135500D03*
%TD*%
D24*
%TO.C,C25*%
X161770000Y-82150000D03*
X162730000Y-82150000D03*
%TD*%
D25*
%TO.C,C23*%
X159080000Y-99850000D03*
X158120000Y-99850000D03*
%TD*%
%TO.C,C14*%
X151580000Y-98900000D03*
X150620000Y-98900000D03*
%TD*%
%TO.C,C109*%
X177630000Y-88250000D03*
X176670000Y-88250000D03*
%TD*%
D26*
%TO.C,C98*%
X165600000Y-79770000D03*
X165600000Y-80730000D03*
%TD*%
D25*
%TO.C,C40*%
X151980000Y-111500000D03*
X151020000Y-111500000D03*
%TD*%
%TO.C,C22*%
X159080000Y-98900000D03*
X158120000Y-98900000D03*
%TD*%
D27*
%TO.C,C7*%
X178100000Y-82372500D03*
X178100000Y-85077500D03*
%TD*%
D25*
%TO.C,C48*%
X167950000Y-111500000D03*
X166990000Y-111500000D03*
%TD*%
D28*
%TO.C,R6*%
X142680000Y-89700000D03*
X143700000Y-89700000D03*
%TD*%
D24*
%TO.C,C92*%
X160270000Y-99850000D03*
X161230000Y-99850000D03*
%TD*%
D25*
%TO.C,C83*%
X158710000Y-83100000D03*
X157750000Y-83100000D03*
%TD*%
%TO.C,C105*%
X177530000Y-80325000D03*
X176570000Y-80325000D03*
%TD*%
D29*
%TO.C,D8*%
X138675000Y-68200000D03*
X134675000Y-68200000D03*
%TD*%
D25*
%TO.C,C82*%
X154780000Y-82100000D03*
X153820000Y-82100000D03*
%TD*%
D26*
%TO.C,C88*%
X164850000Y-90470000D03*
X164850000Y-91430000D03*
%TD*%
%TO.C,C16*%
X164000000Y-97220000D03*
X164000000Y-98180000D03*
%TD*%
%TO.C,C1*%
X137500000Y-82620000D03*
X137500000Y-83580000D03*
%TD*%
D28*
%TO.C,R13*%
X179090000Y-70800000D03*
X180110000Y-70800000D03*
%TD*%
D24*
%TO.C,C95*%
X152000000Y-83050000D03*
X152960000Y-83050000D03*
%TD*%
D25*
%TO.C,C41*%
X159980000Y-111550000D03*
X159020000Y-111550000D03*
%TD*%
%TO.C,C42*%
X176030000Y-111500000D03*
X175070000Y-111500000D03*
%TD*%
D30*
%TO.C,R9*%
X134410000Y-79570000D03*
X133390000Y-79570000D03*
%TD*%
D26*
%TO.C,C12*%
X164010000Y-84920000D03*
X164010000Y-85880000D03*
%TD*%
D31*
%TO.C,R12*%
X131925000Y-70510000D03*
X131925000Y-69490000D03*
%TD*%
D32*
%TO.C,R5*%
X150550000Y-88990000D03*
X150550000Y-90010000D03*
%TD*%
D30*
%TO.C,R2*%
X169410000Y-86500000D03*
X168390000Y-86500000D03*
%TD*%
D33*
%TO.C,C99*%
X146600000Y-102180000D03*
X146600000Y-101220000D03*
%TD*%
D24*
%TO.C,C47*%
X170620000Y-70100000D03*
X171580000Y-70100000D03*
%TD*%
%TO.C,C91*%
X160270000Y-98900000D03*
X161230000Y-98900000D03*
%TD*%
D33*
%TO.C,C27*%
X164850000Y-87730000D03*
X164850000Y-86770000D03*
%TD*%
%TO.C,C2*%
X147300000Y-94480000D03*
X147300000Y-93520000D03*
%TD*%
D25*
%TO.C,C15*%
X151580000Y-99850000D03*
X150620000Y-99850000D03*
%TD*%
D24*
%TO.C,C33*%
X148770000Y-99850000D03*
X149730000Y-99850000D03*
%TD*%
D33*
%TO.C,C9*%
X148250000Y-94480000D03*
X148250000Y-93520000D03*
%TD*%
D24*
%TO.C,C24*%
X161770000Y-83100000D03*
X162730000Y-83100000D03*
%TD*%
D33*
%TO.C,C43*%
X141500000Y-70530000D03*
X141500000Y-69570000D03*
%TD*%
D34*
%TO.C,U2*%
X159737500Y-89045000D03*
X159737500Y-90315000D03*
X159737500Y-91585000D03*
X159737500Y-92855000D03*
X152562500Y-92855000D03*
X152562500Y-91585000D03*
X152562500Y-90315000D03*
X152562500Y-89045000D03*
%TD*%
D26*
%TO.C,C34*%
X148200000Y-90270000D03*
X148200000Y-91230000D03*
%TD*%
D24*
%TO.C,C45*%
X154320000Y-70050000D03*
X155280000Y-70050000D03*
%TD*%
%TO.C,C44*%
X146220000Y-70100000D03*
X147180000Y-70100000D03*
%TD*%
%TO.C,C96*%
X152000000Y-82100000D03*
X152960000Y-82100000D03*
%TD*%
%TO.C,C32*%
X148770000Y-98900000D03*
X149730000Y-98900000D03*
%TD*%
D31*
%TO.C,R4*%
X161300000Y-90310000D03*
X161300000Y-89290000D03*
%TD*%
D28*
%TO.C,R3*%
X142690000Y-88700000D03*
X143710000Y-88700000D03*
%TD*%
D25*
%TO.C,C77*%
X150150000Y-83079501D03*
X149190000Y-83079501D03*
%TD*%
D33*
%TO.C,C20*%
X148250000Y-96480000D03*
X148250000Y-95520000D03*
%TD*%
%TO.C,C89*%
X164000000Y-95980000D03*
X164000000Y-95020000D03*
%TD*%
D25*
%TO.C,C107*%
X177605000Y-96950000D03*
X176645000Y-96950000D03*
%TD*%
D29*
%TO.C,D9*%
X138675000Y-71700000D03*
X134675000Y-71700000D03*
%TD*%
D33*
%TO.C,C101*%
X164000000Y-83080000D03*
X164000000Y-82120000D03*
%TD*%
D25*
%TO.C,C85*%
X160730000Y-83100000D03*
X159770000Y-83100000D03*
%TD*%
D33*
%TO.C,C21*%
X147300000Y-96480000D03*
X147300000Y-95520000D03*
%TD*%
D26*
%TO.C,C97*%
X166550000Y-79770000D03*
X166550000Y-80730000D03*
%TD*%
D33*
%TO.C,C104*%
X147650000Y-98610000D03*
X147650000Y-97650000D03*
%TD*%
%TO.C,C29*%
X164850000Y-89580000D03*
X164850000Y-88620000D03*
%TD*%
D27*
%TO.C,C6*%
X178125000Y-99047500D03*
X178125000Y-101752500D03*
%TD*%
D35*
%TO.C,FB4*%
X167500000Y-79765000D03*
X167500000Y-80735000D03*
%TD*%
D33*
%TO.C,C26*%
X163900000Y-87730000D03*
X163900000Y-86770000D03*
%TD*%
D24*
%TO.C,C30*%
X152470000Y-98900000D03*
X153430000Y-98900000D03*
%TD*%
D36*
%TO.C,FB2*%
X144700000Y-102185000D03*
X144700000Y-101215000D03*
%TD*%
D33*
%TO.C,C102*%
X164950000Y-83080000D03*
X164950000Y-82120000D03*
%TD*%
D24*
%TO.C,C31*%
X152470000Y-99850000D03*
X153430000Y-99850000D03*
%TD*%
D37*
%TO.C,FB3*%
X164985000Y-84000000D03*
X164015000Y-84000000D03*
%TD*%
D26*
%TO.C,C13*%
X164960000Y-84920000D03*
X164960000Y-85880000D03*
%TD*%
D33*
%TO.C,C100*%
X145650000Y-102180000D03*
X145650000Y-101220000D03*
%TD*%
%TO.C,C90*%
X164950000Y-95980000D03*
X164950000Y-95020000D03*
%TD*%
D25*
%TO.C,C93*%
X156680000Y-98900000D03*
X155720000Y-98900000D03*
%TD*%
D26*
%TO.C,C35*%
X147250000Y-90270000D03*
X147250000Y-91230000D03*
%TD*%
D30*
%TO.C,R7*%
X148210000Y-89300000D03*
X147190000Y-89300000D03*
%TD*%
D25*
%TO.C,C94*%
X156680000Y-99850000D03*
X155720000Y-99850000D03*
%TD*%
D26*
%TO.C,C87*%
X163900000Y-90470000D03*
X163900000Y-91430000D03*
%TD*%
D24*
%TO.C,C46*%
X162470000Y-70100000D03*
X163430000Y-70100000D03*
%TD*%
D28*
%TO.C,R1*%
X143090000Y-85400000D03*
X144110000Y-85400000D03*
%TD*%
D33*
%TO.C,C28*%
X163900000Y-89580000D03*
X163900000Y-88620000D03*
%TD*%
%TO.C,C103*%
X146700000Y-98630000D03*
X146700000Y-97670000D03*
%TD*%
D26*
%TO.C,C17*%
X164950000Y-97220000D03*
X164950000Y-98180000D03*
%TD*%
D25*
%TO.C,C81*%
X154780000Y-83050000D03*
X153820000Y-83050000D03*
%TD*%
D33*
%TO.C,C18*%
X148250000Y-84180000D03*
X148250000Y-83220000D03*
%TD*%
D27*
%TO.C,C8*%
X178150000Y-90397500D03*
X178150000Y-93102500D03*
%TD*%
D25*
%TO.C,C86*%
X160730000Y-82150000D03*
X159770000Y-82150000D03*
%TD*%
D35*
%TO.C,FB1*%
X147650000Y-99515000D03*
X147650000Y-100485000D03*
%TD*%
D25*
%TO.C,C78*%
X150150000Y-82129501D03*
X149190000Y-82129501D03*
%TD*%
D28*
%TO.C,R8*%
X142690000Y-90700000D03*
X143710000Y-90700000D03*
%TD*%
D25*
%TO.C,C39*%
X143930000Y-111400000D03*
X142970000Y-111400000D03*
%TD*%
D38*
%TO.C,U6*%
X196000000Y-102000000D03*
X182200000Y-102000000D03*
X196000000Y-80000000D03*
X182200000Y-80000000D03*
%TD*%
D28*
%TO.C,R10*%
X133390000Y-74970000D03*
X134410000Y-74970000D03*
%TD*%
D25*
%TO.C,C84*%
X158710000Y-82150000D03*
X157750000Y-82150000D03*
%TD*%
D33*
%TO.C,C19*%
X147300000Y-84180000D03*
X147300000Y-83220000D03*
%TD*%
M02*
