%TF.GenerationSoftware,KiCad,Pcbnew,9.0.3*%
%TF.CreationDate,2026-06-15T15:16:09+08:00*%
%TF.ProjectId,BaseStationPart2,42617365-5374-4617-9469-6f6e50617274,rev?*%
%TF.SameCoordinates,Original*%
%TF.FileFunction,Copper,L1,Top*%
%TF.FilePolarity,Positive*%
%FSLAX46Y46*%
G04 Gerber Fmt 4.6, Leading zero omitted, Abs format (unit mm)*
G04 Created by KiCad (PCBNEW 9.0.3) date 2026-06-15 15:16:09*
%MOMM*%
%LPD*%
G01*
G04 APERTURE LIST*
G04 Aperture macros list*
%AMRoundRect*
0 Rectangle with rounded corners*
0 $1 Rounding radius*
0 $2 $3 $4 $5 $6 $7 $8 $9 X,Y pos of 4 corners*
0 Add a 4 corners polygon primitive as box body*
4,1,4,$2,$3,$4,$5,$6,$7,$8,$9,$2,$3,0*
0 Add four circle primitives for the rounded corners*
1,1,$1+$1,$2,$3*
1,1,$1+$1,$4,$5*
1,1,$1+$1,$6,$7*
1,1,$1+$1,$8,$9*
0 Add four rect primitives between the rounded corners*
20,1,$1+$1,$2,$3,$4,$5,0*
20,1,$1+$1,$4,$5,$6,$7,0*
20,1,$1+$1,$6,$7,$8,$9,0*
20,1,$1+$1,$8,$9,$2,$3,0*%
G04 Aperture macros list end*
%TA.AperFunction,ComponentPad*%
%ADD10C,5.600000*%
%TD*%
%TA.AperFunction,ComponentPad*%
%ADD11RoundRect,0.250001X1.099999X-1.099999X1.099999X1.099999X-1.099999X1.099999X-1.099999X-1.099999X0*%
%TD*%
%TA.AperFunction,ComponentPad*%
%ADD12C,2.700000*%
%TD*%
%TA.AperFunction,ComponentPad*%
%ADD13RoundRect,0.250000X-0.625000X0.350000X-0.625000X-0.350000X0.625000X-0.350000X0.625000X0.350000X0*%
%TD*%
%TA.AperFunction,ComponentPad*%
%ADD14O,1.750000X1.200000*%
%TD*%
%TA.AperFunction,ComponentPad*%
%ADD15RoundRect,0.250000X0.625000X-0.350000X0.625000X0.350000X-0.625000X0.350000X-0.625000X-0.350000X0*%
%TD*%
%TA.AperFunction,ComponentPad*%
%ADD16C,1.700000*%
%TD*%
%TA.AperFunction,ViaPad*%
%ADD17C,1.700000*%
%TD*%
%TA.AperFunction,Conductor*%
%ADD18C,0.500000*%
%TD*%
%TA.AperFunction,Conductor*%
%ADD19C,3.000000*%
%TD*%
G04 APERTURE END LIST*
D10*
%TO.P,,1*%
%TO.N,N/C*%
X105118571Y-31450000D03*
%TD*%
%TO.P,REF\u002A\u002A,1*%
%TO.N,N/C*%
X25118571Y-31450000D03*
%TD*%
D11*
%TO.P,J11,1,Pin_1*%
%TO.N,Net-(J11-Pin_1)*%
X95411428Y-33410000D03*
D12*
%TO.P,J11,2,Pin_2*%
%TO.N,Net-(J11-Pin_2)*%
X95411428Y-29450000D03*
%TD*%
D13*
%TO.P,J10,1,Pin_1*%
%TO.N,+3V3*%
X33281071Y-29450000D03*
D14*
%TO.P,J10,2,Pin_2*%
%TO.N,GND*%
X33281071Y-31450000D03*
%TO.P,J10,3,Pin_3*%
%TO.N,unconnected-(J10-Pin_3-Pad3)*%
X33281071Y-33450000D03*
%TD*%
D13*
%TO.P,J9,1,Pin_1*%
%TO.N,Net-(J1-GPIO14{slash}UART_TXD)*%
X41281071Y-29450000D03*
D14*
%TO.P,J9,2,Pin_2*%
%TO.N,Net-(J1-GPIO15{slash}UART_RXD)*%
X41281071Y-31450000D03*
%TO.P,J9,3,Pin_3*%
%TO.N,Net-(J1-GPIO18{slash}SPI1_~{CE0}{slash}PCM_CLK{slash}PWM0)*%
X41281071Y-33450000D03*
%TD*%
D11*
%TO.P,J2,1,Pin_1*%
%TO.N,Net-(J11-Pin_1)*%
X83729285Y-33410000D03*
D12*
%TO.P,J2,2,Pin_2*%
%TO.N,Net-(J11-Pin_2)*%
X83729285Y-29450000D03*
%TD*%
D15*
%TO.P,J5,1,Pin_1*%
%TO.N,Net-(J5-Pin_1)*%
X71847142Y-33450000D03*
D14*
%TO.P,J5,2,Pin_2*%
%TO.N,Net-(J5-Pin_2)*%
X71847142Y-31450000D03*
%TO.P,J5,3,Pin_3*%
%TO.N,Net-(J5-Pin_3)*%
X71847142Y-29450000D03*
%TD*%
D16*
%TO.P,M2,1,GND*%
%TO.N,Net-(J5-Pin_1)*%
X64740000Y-33830000D03*
%TO.P,M2,2,A*%
%TO.N,Net-(J5-Pin_2)*%
X64740000Y-31290000D03*
%TO.P,M2,3,B*%
%TO.N,Net-(J5-Pin_3)*%
X64740000Y-28750000D03*
%TO.P,M2,4,EN*%
%TO.N,Net-(J1-GPIO18{slash}SPI1_~{CE0}{slash}PCM_CLK{slash}PWM0)*%
X49500000Y-36370000D03*
%TO.P,M2,5,VCC*%
%TO.N,+3V3*%
X49500000Y-33830000D03*
%TO.P,M2,6,RX*%
%TO.N,Net-(J1-GPIO15{slash}UART_RXD)*%
X49500000Y-31290000D03*
%TO.P,M2,7,TX*%
%TO.N,Net-(J1-GPIO14{slash}UART_TXD)*%
X49500000Y-28750000D03*
%TO.P,M2,8,GND*%
%TO.N,GND*%
X49500000Y-26210000D03*
%TD*%
D17*
%TO.N,Net-(J5-Pin_1)*%
X68281071Y-33850000D03*
%TO.N,Net-(J5-Pin_2)*%
X68281071Y-31250000D03*
%TO.N,Net-(J5-Pin_3)*%
X68281071Y-28850000D03*
%TD*%
D18*
%TO.N,Net-(J5-Pin_1)*%
X68261071Y-33830000D02*
X68281071Y-33850000D01*
%TO.N,Net-(J5-Pin_3)*%
X68081071Y-28850000D02*
X67981071Y-28750000D01*
X68281071Y-28850000D02*
X68081071Y-28850000D01*
%TO.N,Net-(J5-Pin_2)*%
X68241071Y-31290000D02*
X68281071Y-31250000D01*
%TO.N,Net-(J5-Pin_3)*%
X67981071Y-28750000D02*
X64740000Y-28750000D01*
%TO.N,Net-(J5-Pin_2)*%
X64740000Y-31290000D02*
X68241071Y-31290000D01*
%TO.N,Net-(J5-Pin_1)*%
X64740000Y-33830000D02*
X68261071Y-33830000D01*
D19*
%TO.N,Net-(J11-Pin_2)*%
X83729285Y-29450000D02*
X95411428Y-29450000D01*
%TO.N,Net-(J11-Pin_1)*%
X83729285Y-33410000D02*
X95411428Y-33410000D01*
D18*
%TO.N,+3V3*%
X33081071Y-38250000D02*
X30681071Y-35850000D01*
X32081071Y-29450000D02*
X33281071Y-29450000D01*
%TO.N,Net-(J1-GPIO15{slash}UART_RXD)*%
X41281071Y-31450000D02*
X49340000Y-31450000D01*
%TO.N,Net-(J1-GPIO18{slash}SPI1_~{CE0}{slash}PCM_CLK{slash}PWM0)*%
X43881071Y-33450000D02*
X41281071Y-33450000D01*
%TO.N,+3V3*%
X30681071Y-35850000D02*
X30681071Y-30850000D01*
X50881071Y-38250000D02*
X33081071Y-38250000D01*
%TO.N,Net-(J1-GPIO14{slash}UART_TXD)*%
X45281071Y-29450000D02*
X41281071Y-29450000D01*
%TO.N,+3V3*%
X30681071Y-30850000D02*
X32081071Y-29450000D01*
%TO.N,Net-(J1-GPIO14{slash}UART_TXD)*%
X49500000Y-28750000D02*
X45981071Y-28750000D01*
%TO.N,GND*%
X35281071Y-31450000D02*
X40521071Y-26210000D01*
X40521071Y-26210000D02*
X49500000Y-26210000D01*
%TO.N,+3V3*%
X51061071Y-33830000D02*
X52081071Y-34850000D01*
X52081071Y-37050000D02*
X50881071Y-38250000D01*
X52081071Y-34850000D02*
X52081071Y-37050000D01*
%TO.N,Net-(J1-GPIO14{slash}UART_TXD)*%
X45981071Y-28750000D02*
X45281071Y-29450000D01*
%TO.N,Net-(J1-GPIO18{slash}SPI1_~{CE0}{slash}PCM_CLK{slash}PWM0)*%
X49500000Y-36370000D02*
X46801071Y-36370000D01*
X46801071Y-36370000D02*
X43881071Y-33450000D01*
%TO.N,Net-(J1-GPIO15{slash}UART_RXD)*%
X49340000Y-31450000D02*
X49500000Y-31290000D01*
%TO.N,GND*%
X33281071Y-31450000D02*
X35281071Y-31450000D01*
%TO.N,+3V3*%
X49500000Y-33830000D02*
X51061071Y-33830000D01*
%TD*%
M02*
