M48
; DRILL file {KiCad 9.0.3} date 2026-06-15T07:57:04+0800
; FORMAT={-:-/ absolute / metric / decimal}
; #@! TF.CreationDate,2026-06-15T07:57:04+08:00
; #@! TF.GenerationSoftware,Kicad,Pcbnew,9.0.3
; #@! TF.FileFunction,Plated,1,2,PTH
FMAT,2
METRIC
; #@! TA.AperFunction,Plated,PTH,ComponentDrill
T1C0.750
; #@! TA.AperFunction,Plated,PTH,ComponentDrill
T2C1.000
; #@! TA.AperFunction,Plated,PTH,ComponentDrill
T3C1.300
; #@! TA.AperFunction,Plated,PTH,ViaDrill
T4C2.000
; #@! TA.AperFunction,Plated,PTH,ComponentDrill
T5C2.750
; #@! TA.AperFunction,Plated,PTH,ComponentDrill
T6C3.200
%
G90
G05
T1
X101.45Y-102.75
X101.45Y-104.75
X101.45Y-106.75
X110.0Y-102.75
X110.0Y-104.75
X110.0Y-106.75
T2
X29.12Y-62.1
X29.12Y-64.64
X29.12Y-67.18
X29.12Y-69.72
X29.12Y-72.26
X29.12Y-74.8
X39.28Y-62.1
X39.28Y-64.64
X39.28Y-67.18
X39.28Y-69.72
X39.28Y-72.26
X39.28Y-74.8
X41.84Y-105.25
X44.38Y-105.25
X46.92Y-105.25
X49.46Y-105.25
X52.0Y-105.25
X54.54Y-105.25
X59.35Y-70.035
X59.35Y-72.575
X59.35Y-75.115
X62.25Y-105.225
X64.79Y-105.225
T3
X36.58Y-36.25
X36.58Y-98.25
X42.0Y-38.25
X42.0Y-96.25
X47.08Y-38.25
X47.08Y-96.25
X51.58Y-36.25
X51.58Y-98.25
X51.6Y-23.85
X51.6Y-28.85
X86.99Y-95.31
X87.0Y-38.33
X91.99Y-95.31
X92.0Y-38.33
T4
X66.0Y-21.25
X66.0Y-24.25
X66.0Y-27.25
X68.7Y-27.95
X71.35Y-28.0
X74.0Y-21.25
X74.0Y-24.25
X74.0Y-27.25
T5
X37.0Y-112.75
X37.0Y-161.75
X70.75Y-38.75
X70.75Y-94.75
X95.0Y-112.75
X95.0Y-161.75
X108.25Y-38.75
X108.25Y-94.75
T6
X24.0Y-23.25
X24.0Y-162.25
X26.0Y-34.75
X28.0Y-147.0
X28.5Y-157.0
X29.04Y-36.79
X29.04Y-97.29
X52.0Y-66.25
X60.04Y-36.79
X60.04Y-97.29
X112.6Y-35.25
X115.5Y-23.25
X115.5Y-162.25
M30
