M48
; DRILL file {KiCad 9.0.3} date 2026-04-14T09:44:23+0800
; FORMAT={-:-/ absolute / metric / decimal}
; #@! TF.CreationDate,2026-04-14T09:44:23+08:00
; #@! TF.GenerationSoftware,Kicad,Pcbnew,9.0.3
; #@! TF.FileFunction,Plated,1,2,PTH
FMAT,2
METRIC
; #@! TA.AperFunction,Plated,PTH,ComponentDrill
T1C0.800
; #@! TA.AperFunction,Plated,PTH,ViaDrill
T2C1.000
; #@! TA.AperFunction,Plated,PTH,ComponentDrill
T3C1.000
; #@! TA.AperFunction,Plated,PTH,ComponentDrill
T4C1.200
; #@! TA.AperFunction,Plated,PTH,ComponentDrill
T5C3.200
%
G90
G05
T1
X65.0Y-40.7
X65.0Y-83.033
X65.0Y-126.167
X65.0Y-168.5
X68.5Y-40.7
X68.5Y-83.033
X68.5Y-126.167
X68.5Y-168.5
T2
X30.03Y-35.78
X30.03Y-87.953
X30.03Y-121.247
X30.03Y-173.42
X30.238Y-25.687
X30.238Y-45.787
X30.238Y-77.947
X30.238Y-98.047
X30.238Y-111.153
X30.238Y-131.253
X30.238Y-163.413
X30.238Y-183.513
X32.1Y-36.2
X32.1Y-87.533
X32.1Y-121.667
X32.1Y-173.0
X32.142Y-26.3
X32.142Y-46.4
X32.142Y-77.333
X32.142Y-97.433
X32.142Y-111.767
X32.142Y-131.867
X32.142Y-162.8
X32.142Y-182.9
X34.136Y-46.4
X34.136Y-77.333
X34.136Y-131.867
X34.136Y-162.8
X34.16Y-36.1
X34.16Y-87.633
X34.16Y-121.567
X34.16Y-173.1
X34.18Y-25.95
X34.18Y-97.783
X34.18Y-111.417
X34.18Y-183.25
X40.189Y-45.82
X40.189Y-77.913
X40.189Y-131.287
X40.189Y-163.38
X40.238Y-25.732
X40.238Y-35.687
X40.238Y-88.047
X40.238Y-98.002
X40.238Y-111.198
X40.238Y-121.153
X40.238Y-173.513
X40.238Y-183.468
X42.142Y-26.345
X42.142Y-97.388
X42.142Y-111.812
X42.142Y-182.855
X42.152Y-46.201
X42.152Y-77.532
X42.152Y-131.668
X42.152Y-162.999
X42.207Y-36.037
X42.207Y-87.696
X42.207Y-121.504
X42.207Y-173.163
X44.136Y-26.345
X44.136Y-97.388
X44.136Y-111.812
X44.136Y-182.855
X44.152Y-46.15
X44.152Y-77.583
X44.152Y-131.617
X44.152Y-163.05
X44.207Y-36.151
X44.207Y-87.583
X44.207Y-121.617
X44.207Y-173.049
X50.238Y-25.687
X50.238Y-35.687
X50.238Y-45.687
X50.238Y-78.047
X50.238Y-88.047
X50.238Y-98.047
X50.238Y-111.153
X50.238Y-121.153
X50.238Y-131.153
X50.238Y-163.513
X50.238Y-173.513
X50.238Y-183.513
X52.142Y-26.3
X52.142Y-36.3
X52.142Y-46.3
X52.142Y-77.433
X52.142Y-87.433
X52.142Y-97.433
X52.142Y-111.767
X52.142Y-121.767
X52.142Y-131.767
X52.142Y-162.9
X52.142Y-172.9
X52.142Y-182.9
X54.136Y-26.3
X54.136Y-36.3
X54.136Y-46.3
X54.136Y-77.433
X54.136Y-87.433
X54.136Y-97.433
X54.136Y-111.767
X54.136Y-121.767
X54.136Y-131.767
X54.136Y-162.9
X54.136Y-172.9
X54.136Y-182.9
X60.3Y-45.7
X60.3Y-78.033
X60.3Y-131.167
X60.3Y-163.5
X60.4Y-25.8
X60.4Y-97.933
X60.4Y-111.267
X60.4Y-183.4
X62.225Y-56.56
X62.225Y-67.173
X62.225Y-142.027
X62.225Y-152.64
X62.5Y-37.1
X62.5Y-86.633
X62.5Y-122.567
X62.5Y-172.1
X68.8Y-25.1
X68.8Y-98.633
X68.8Y-110.567
X68.8Y-184.1
X70.5Y-55.081
X70.5Y-68.653
X70.5Y-140.547
X70.5Y-154.119
X70.7Y-28.6
X70.7Y-95.133
X70.7Y-114.067
X70.7Y-180.6
T3
X73.2Y-26.06
X73.2Y-28.6
X73.2Y-31.14
X73.2Y-33.68
X73.2Y-36.22
X73.2Y-38.76
X73.2Y-41.3
X73.2Y-43.84
X73.2Y-46.38
X73.2Y-48.92
X73.2Y-51.46
X73.2Y-54.0
X73.2Y-69.733
X73.2Y-72.273
X73.2Y-74.813
X73.2Y-77.353
X73.2Y-79.893
X73.2Y-82.433
X73.2Y-84.973
X73.2Y-87.513
X73.2Y-90.053
X73.2Y-92.593
X73.2Y-95.133
X73.2Y-97.673
X73.2Y-111.527
X73.2Y-114.067
X73.2Y-116.607
X73.2Y-119.147
X73.2Y-121.687
X73.2Y-124.227
X73.2Y-126.767
X73.2Y-129.307
X73.2Y-131.847
X73.2Y-134.387
X73.2Y-136.927
X73.2Y-139.467
X73.2Y-155.2
X73.2Y-157.74
X73.2Y-160.28
X73.2Y-162.82
X73.2Y-165.36
X73.2Y-167.9
X73.2Y-170.44
X73.2Y-172.98
X73.2Y-175.52
X73.2Y-178.06
X73.2Y-180.6
X73.2Y-183.14
T4
X37.3Y-28.2
X37.3Y-33.2
X37.3Y-38.2
X37.3Y-43.2
X37.3Y-48.2
X37.3Y-53.2
X37.3Y-70.533
X37.3Y-75.533
X37.3Y-80.533
X37.3Y-85.533
X37.3Y-90.533
X37.3Y-95.533
X37.3Y-113.667
X37.3Y-118.667
X37.3Y-123.667
X37.3Y-128.667
X37.3Y-133.667
X37.3Y-138.667
X37.3Y-156.0
X37.3Y-161.0
X37.3Y-166.0
X37.3Y-171.0
X37.3Y-176.0
X37.3Y-181.0
X47.3Y-28.2
X47.3Y-33.2
X47.3Y-38.2
X47.3Y-43.2
X47.3Y-48.2
X47.3Y-53.2
X47.3Y-70.533
X47.3Y-75.533
X47.3Y-80.533
X47.3Y-85.533
X47.3Y-90.533
X47.3Y-95.533
X47.3Y-113.667
X47.3Y-118.667
X47.3Y-123.667
X47.3Y-128.667
X47.3Y-133.667
X47.3Y-138.667
X47.3Y-156.0
X47.3Y-161.0
X47.3Y-166.0
X47.3Y-171.0
X47.3Y-176.0
X47.3Y-181.0
X57.3Y-28.2
X57.3Y-33.2
X57.3Y-38.2
X57.3Y-43.2
X57.3Y-48.2
X57.3Y-53.2
X57.3Y-70.533
X57.3Y-75.533
X57.3Y-80.533
X57.3Y-85.533
X57.3Y-90.533
X57.3Y-95.533
X57.3Y-113.667
X57.3Y-118.667
X57.3Y-123.667
X57.3Y-128.667
X57.3Y-133.667
X57.3Y-138.667
X57.3Y-156.0
X57.3Y-161.0
X57.3Y-166.0
X57.3Y-171.0
X57.3Y-176.0
X57.3Y-181.0
T5
X25.2Y-25.9
X25.2Y-55.1
X25.2Y-68.633
X25.2Y-97.833
X25.2Y-111.367
X25.2Y-140.567
X25.2Y-154.1
X25.2Y-183.3
X78.6Y-25.9
X78.6Y-55.1
X78.6Y-68.633
X78.6Y-97.833
X78.6Y-111.367
X78.6Y-140.567
X78.6Y-154.1
X78.6Y-183.3
M30
