%TF.GenerationSoftware,KiCad,Pcbnew,9.0.3*%
%TF.CreationDate,2026-04-14T09:44:25+08:00*%
%TF.ProjectId,AcousticGripper,41636f75-7374-4696-9347-726970706572,rev?*%
%TF.SameCoordinates,Original*%
%TF.FileFunction,Copper,L1,Top*%
%TF.FilePolarity,Positive*%
%FSLAX46Y46*%
G04 Gerber Fmt 4.6, Leading zero omitted, Abs format (unit mm)*
G04 Created by KiCad (PCBNEW 9.0.3) date 2026-04-14 09:44:25*
%MOMM*%
%LPD*%
G01*
G04 APERTURE LIST*
G04 Aperture macros list*
%AMRoundRect*
0 Rectangle with rounded corners*
0 $1 Rounding radius*
0 $2 $3 $4 $5 $6 $7 $8 $9 X,Y pos of 4 corners*
0 Add a 4 corners polygon primitive as box body*
4,1,4,$2,$3,$4,$5,$6,$7,$8,$9,$2,$3,0*
0 Add four circle primitives for the rounded corners*
1,1,$1+$1,$2,$3*
1,1,$1+$1,$4,$5*
1,1,$1+$1,$6,$7*
1,1,$1+$1,$8,$9*
0 Add four rect primitives between the rounded corners*
20,1,$1+$1,$2,$3,$4,$5,0*
20,1,$1+$1,$4,$5,$6,$7,0*
20,1,$1+$1,$6,$7,$8,$9,0*
20,1,$1+$1,$8,$9,$2,$3,0*%
G04 Aperture macros list end*
%TA.AperFunction,EtchedComponent*%
%ADD10C,0.200000*%
%TD*%
%TA.AperFunction,EtchedComponent*%
%ADD11C,0.100000*%
%TD*%
%TA.AperFunction,ComponentPad*%
%ADD12C,1.800000*%
%TD*%
%TA.AperFunction,SMDPad,CuDef*%
%ADD13RoundRect,0.150000X-0.825000X-0.150000X0.825000X-0.150000X0.825000X0.150000X-0.825000X0.150000X0*%
%TD*%
%TA.AperFunction,ComponentPad*%
%ADD14C,1.600000*%
%TD*%
%TA.AperFunction,ComponentPad*%
%ADD15RoundRect,0.250000X-0.550000X-0.550000X0.550000X-0.550000X0.550000X0.550000X-0.550000X0.550000X0*%
%TD*%
%TA.AperFunction,ComponentPad*%
%ADD16C,1.700000*%
%TD*%
%TA.AperFunction,ComponentPad*%
%ADD17R,1.700000X1.700000*%
%TD*%
%TA.AperFunction,SMDPad,CuDef*%
%ADD18RoundRect,0.015000X-0.285000X0.760000X-0.285000X-0.760000X0.285000X-0.760000X0.285000X0.760000X0*%
%TD*%
%TA.AperFunction,SMDPad,CuDef*%
%ADD19R,4.520000X2.945000*%
%TD*%
%TA.AperFunction,ComponentPad*%
%ADD20C,5.600000*%
%TD*%
%TA.AperFunction,SMDPad,CuDef*%
%ADD21RoundRect,0.237500X-0.237500X0.300000X-0.237500X-0.300000X0.237500X-0.300000X0.237500X0.300000X0*%
%TD*%
%TA.AperFunction,SMDPad,CuDef*%
%ADD22RoundRect,0.237500X0.237500X-0.300000X0.237500X0.300000X-0.237500X0.300000X-0.237500X-0.300000X0*%
%TD*%
%TA.AperFunction,ViaPad*%
%ADD23C,1.700000*%
%TD*%
%TA.AperFunction,Conductor*%
%ADD24C,0.300000*%
%TD*%
%TA.AperFunction,Conductor*%
%ADD25C,0.400000*%
%TD*%
%TA.AperFunction,Conductor*%
%ADD26C,0.200000*%
%TD*%
G04 APERTURE END LIST*
%TO.C,REF\u002A\u002A*%
D10*
X22600000Y-114866667D02*
X27600000Y-114866667D01*
X27600000Y-119866667D01*
X22600000Y-119866667D01*
X22600000Y-114866667D01*
X22600000Y-116116667D02*
X23225000Y-116116667D01*
X23225000Y-116741667D01*
X22600000Y-116741667D01*
X22600000Y-116116667D01*
D11*
X22600000Y-116741667D02*
X23225000Y-116741667D01*
X23225000Y-117991667D01*
X22600000Y-117991667D01*
X22600000Y-116741667D01*
D10*
X22600000Y-117991667D02*
X23225000Y-117991667D01*
X23225000Y-118616667D01*
X22600000Y-118616667D01*
X22600000Y-117991667D01*
X23225000Y-116741667D02*
X23850000Y-116741667D01*
X23850000Y-117991667D01*
X23225000Y-117991667D01*
X23225000Y-116741667D01*
X23850000Y-114866667D02*
X25100000Y-114866667D01*
X25100000Y-116116667D01*
X23850000Y-116116667D01*
X23850000Y-114866667D01*
%TA.AperFunction,EtchedComponent*%
G36*
X23850000Y-114866667D02*
G01*
X25100000Y-114866667D01*
X25100000Y-116116667D01*
X23850000Y-116116667D01*
X23850000Y-114866667D01*
G37*
%TD.AperFunction*%
X23850000Y-118616667D02*
X25100000Y-118616667D01*
X25100000Y-119866667D01*
X23850000Y-119866667D01*
X23850000Y-118616667D01*
%TA.AperFunction,EtchedComponent*%
G36*
X23850000Y-118616667D02*
G01*
X25100000Y-118616667D01*
X25100000Y-119866667D01*
X23850000Y-119866667D01*
X23850000Y-118616667D01*
G37*
%TD.AperFunction*%
X25100000Y-114866667D02*
X25725000Y-114866667D01*
X25725000Y-119866667D01*
X25100000Y-119866667D01*
X25100000Y-114866667D01*
X25725000Y-114866667D02*
X26350000Y-114866667D01*
X26350000Y-119866667D01*
X25725000Y-119866667D01*
X25725000Y-114866667D01*
X26350000Y-114866667D02*
X27600000Y-114866667D01*
X27600000Y-116741667D01*
X26350000Y-116741667D01*
X26350000Y-114866667D01*
X26350000Y-117991667D02*
X27600000Y-117991667D01*
X27600000Y-119866667D01*
X26350000Y-119866667D01*
X26350000Y-117991667D01*
X22600000Y-29400000D02*
X27600000Y-29400000D01*
X27600000Y-34400000D01*
X22600000Y-34400000D01*
X22600000Y-29400000D01*
X23850000Y-29400000D02*
X25100000Y-29400000D01*
X25100000Y-30650000D01*
X23850000Y-30650000D01*
X23850000Y-29400000D01*
%TA.AperFunction,EtchedComponent*%
G36*
X23850000Y-29400000D02*
G01*
X25100000Y-29400000D01*
X25100000Y-30650000D01*
X23850000Y-30650000D01*
X23850000Y-29400000D01*
G37*
%TD.AperFunction*%
X25100000Y-29400000D02*
X25725000Y-29400000D01*
X25725000Y-34400000D01*
X25100000Y-34400000D01*
X25100000Y-29400000D01*
X25725000Y-29400000D02*
X26350000Y-29400000D01*
X26350000Y-34400000D01*
X25725000Y-34400000D01*
X25725000Y-29400000D01*
X26350000Y-29400000D02*
X27600000Y-29400000D01*
X27600000Y-31275000D01*
X26350000Y-31275000D01*
X26350000Y-29400000D01*
X22600000Y-30650000D02*
X23225000Y-30650000D01*
X23225000Y-31275000D01*
X22600000Y-31275000D01*
X22600000Y-30650000D01*
D11*
X22600000Y-31275000D02*
X23225000Y-31275000D01*
X23225000Y-32525000D01*
X22600000Y-32525000D01*
X22600000Y-31275000D01*
D10*
X23225000Y-31275000D02*
X23850000Y-31275000D01*
X23850000Y-32525000D01*
X23225000Y-32525000D01*
X23225000Y-31275000D01*
X22600000Y-32525000D02*
X23225000Y-32525000D01*
X23225000Y-33150000D01*
X22600000Y-33150000D01*
X22600000Y-32525000D01*
X26350000Y-32525000D02*
X27600000Y-32525000D01*
X27600000Y-34400000D01*
X26350000Y-34400000D01*
X26350000Y-32525000D01*
X23850000Y-33150000D02*
X25100000Y-33150000D01*
X25100000Y-34400000D01*
X23850000Y-34400000D01*
X23850000Y-33150000D01*
%TA.AperFunction,EtchedComponent*%
G36*
X23850000Y-33150000D02*
G01*
X25100000Y-33150000D01*
X25100000Y-34400000D01*
X23850000Y-34400000D01*
X23850000Y-33150000D01*
G37*
%TD.AperFunction*%
%TD*%
D12*
%TO.P,LS1,2,2*%
%TO.N,Net-(U2-OUT2)*%
X37300000Y-95533333D03*
%TO.P,LS1,1,1*%
%TO.N,Net-(U2-OUT1)*%
X37300000Y-90533333D03*
%TD*%
D13*
%TO.P,U1,14,VCC*%
%TO.N,+3.3V*%
X68475000Y-68623333D03*
%TO.P,U1,13*%
%TO.N,A2*%
X68475000Y-69893333D03*
%TO.P,U1,12*%
%TO.N,Net-(U3-IN2)*%
X68475000Y-71163333D03*
%TO.P,U1,11*%
%TO.N,B2*%
X68475000Y-72433333D03*
%TO.P,U1,10*%
%TO.N,Net-(U7-IN2)*%
X68475000Y-73703333D03*
%TO.P,U1,9*%
%TO.N,C2*%
X68475000Y-74973333D03*
%TO.P,U1,8*%
%TO.N,Net-(U10-IN2)*%
X68475000Y-76243333D03*
%TO.P,U1,7,GND*%
%TO.N,GND*%
X63525000Y-76243333D03*
%TO.P,U1,6*%
%TO.N,Net-(U9-IN2)*%
X63525000Y-74973333D03*
%TO.P,U1,5*%
%TO.N,C3*%
X63525000Y-73703333D03*
%TO.P,U1,4*%
%TO.N,Net-(U6-IN2)*%
X63525000Y-72433333D03*
%TO.P,U1,3*%
%TO.N,B3*%
X63525000Y-71163333D03*
%TO.P,U1,2*%
%TO.N,Net-(U4-IN2)*%
X63525000Y-69893333D03*
%TO.P,U1,1*%
%TO.N,A3*%
X63525000Y-68623333D03*
%TD*%
D12*
%TO.P,LS5,2,2*%
%TO.N,Net-(U7-OUT2)*%
X47300000Y-85533333D03*
%TO.P,LS5,1,1*%
%TO.N,Net-(U7-OUT1)*%
X47300000Y-80533333D03*
%TD*%
D14*
%TO.P,C10,2*%
%TO.N,GND*%
X68500000Y-83033333D03*
D15*
%TO.P,C10,1*%
%TO.N,Vin*%
X65000000Y-83033333D03*
%TD*%
D12*
%TO.P,LS8,2,2*%
%TO.N,Net-(U10-OUT2)*%
X57300000Y-85533333D03*
%TO.P,LS8,1,1*%
%TO.N,Net-(U10-OUT1)*%
X57300000Y-80533333D03*
%TD*%
D13*
%TO.P,U5,14,VCC*%
%TO.N,+3.3V*%
X68500000Y-88733333D03*
%TO.P,U5,13*%
%TO.N,unconnected-(U5-Pad13)*%
X68500000Y-90003333D03*
%TO.P,U5,12*%
%TO.N,unconnected-(U5-Pad12)*%
X68500000Y-91273333D03*
%TO.P,U5,11*%
%TO.N,unconnected-(U5-Pad11)*%
X68500000Y-92543333D03*
%TO.P,U5,10*%
%TO.N,unconnected-(U5-Pad10)*%
X68500000Y-93813333D03*
%TO.P,U5,9*%
%TO.N,unconnected-(U5-Pad9)*%
X68500000Y-95083333D03*
%TO.P,U5,8*%
%TO.N,unconnected-(U5-Pad8)*%
X68500000Y-96353333D03*
%TO.P,U5,7,GND*%
%TO.N,GND*%
X63550000Y-96353333D03*
%TO.P,U5,6*%
%TO.N,Net-(U11-IN2)*%
X63550000Y-95083333D03*
%TO.P,U5,5*%
%TO.N,C1*%
X63550000Y-93813333D03*
%TO.P,U5,4*%
%TO.N,Net-(U8-IN2)*%
X63550000Y-92543333D03*
%TO.P,U5,3*%
%TO.N,B1*%
X63550000Y-91273333D03*
%TO.P,U5,2*%
%TO.N,Net-(U2-IN2)*%
X63550000Y-90003333D03*
%TO.P,U5,1*%
%TO.N,A1*%
X63550000Y-88733333D03*
%TD*%
D12*
%TO.P,LS9,2,2*%
%TO.N,Net-(U11-OUT2)*%
X57300000Y-95533333D03*
%TO.P,LS9,1,1*%
%TO.N,Net-(U11-OUT1)*%
X57300000Y-90533333D03*
%TD*%
%TO.P,LS7,2,2*%
%TO.N,Net-(U9-OUT2)*%
X57300000Y-75533333D03*
%TO.P,LS7,1,1*%
%TO.N,Net-(U9-OUT1)*%
X57300000Y-70533333D03*
%TD*%
%TO.P,LS2,2,2*%
%TO.N,Net-(U3-OUT2)*%
X37300000Y-85533333D03*
%TO.P,LS2,1,1*%
%TO.N,Net-(U3-OUT1)*%
X37300000Y-80533333D03*
%TD*%
%TO.P,LS4,2,2*%
%TO.N,Net-(U6-OUT2)*%
X47300000Y-75533333D03*
%TO.P,LS4,1,1*%
%TO.N,Net-(U6-OUT1)*%
X47300000Y-70533333D03*
%TD*%
%TO.P,LS6,2,2*%
%TO.N,Net-(U8-OUT2)*%
X47300000Y-95533333D03*
%TO.P,LS6,1,1*%
%TO.N,Net-(U8-OUT1)*%
X47300000Y-90533333D03*
%TD*%
%TO.P,LS3,2,2*%
%TO.N,Net-(U4-OUT2)*%
X37300000Y-75533333D03*
%TO.P,LS3,1,1*%
%TO.N,Net-(U4-OUT1)*%
X37300000Y-70533333D03*
%TD*%
D16*
%TO.P,J1,12,Pin_12*%
%TO.N,Vin*%
X73200000Y-97673333D03*
%TO.P,J1,11,Pin_11*%
%TO.N,+3.3V*%
X73200000Y-95133333D03*
%TO.P,J1,10,Pin_10*%
%TO.N,GND*%
X73200000Y-92593333D03*
%TO.P,J1,9,Pin_9*%
%TO.N,C1*%
X73200000Y-90053333D03*
%TO.P,J1,8,Pin_8*%
%TO.N,B1*%
X73200000Y-87513333D03*
%TO.P,J1,7,Pin_7*%
%TO.N,A1*%
X73200000Y-84973333D03*
%TO.P,J1,6,Pin_6*%
%TO.N,C2*%
X73200000Y-82433333D03*
%TO.P,J1,5,Pin_5*%
%TO.N,B2*%
X73200000Y-79893333D03*
%TO.P,J1,4,Pin_4*%
%TO.N,A2*%
X73200000Y-77353333D03*
%TO.P,J1,3,Pin_3*%
%TO.N,C3*%
X73200000Y-74813333D03*
%TO.P,J1,2,Pin_2*%
%TO.N,A3*%
X73200000Y-72273333D03*
D17*
%TO.P,J1,1,Pin_1*%
%TO.N,B3*%
X73200000Y-69733333D03*
%TD*%
D18*
%TO.P,U10,1,GND*%
%TO.N,GND*%
X55080000Y-123561667D03*
%TO.P,U10,2,IN2*%
%TO.N,Net-(U10-IN2)*%
X53810000Y-123561667D03*
%TO.P,U10,3,IN1*%
%TO.N,C2*%
X52540000Y-123561667D03*
%TO.P,U10,4,VREF*%
%TO.N,+3.3V*%
X51270000Y-123561667D03*
%TO.P,U10,5,VM*%
%TO.N,Vin*%
X51270000Y-128961667D03*
%TO.P,U10,6,OUT1*%
%TO.N,Net-(U10-OUT1)*%
X52540000Y-128961667D03*
%TO.P,U10,7,ISEN*%
%TO.N,GND*%
X53810000Y-128961667D03*
%TO.P,U10,8,OUT2*%
%TO.N,Net-(U10-OUT2)*%
X55080000Y-128961667D03*
D19*
%TO.P,U10,9,GND*%
%TO.N,GND*%
X53165000Y-126259167D03*
%TD*%
D18*
%TO.P,U2,1,GND*%
%TO.N,GND*%
X35080000Y-113561667D03*
%TO.P,U2,2,IN2*%
%TO.N,Net-(U2-IN2)*%
X33810000Y-113561667D03*
%TO.P,U2,3,IN1*%
%TO.N,A1*%
X32540000Y-113561667D03*
%TO.P,U2,4,VREF*%
%TO.N,+3.3V*%
X31270000Y-113561667D03*
%TO.P,U2,5,VM*%
%TO.N,Vin*%
X31270000Y-118961667D03*
%TO.P,U2,6,OUT1*%
%TO.N,Net-(U2-OUT1)*%
X32540000Y-118961667D03*
%TO.P,U2,7,ISEN*%
%TO.N,GND*%
X33810000Y-118961667D03*
%TO.P,U2,8,OUT2*%
%TO.N,Net-(U2-OUT2)*%
X35080000Y-118961667D03*
D19*
%TO.P,U2,9,GND*%
%TO.N,GND*%
X33165000Y-116259167D03*
%TD*%
D17*
%TO.P,J1,1,Pin_1*%
%TO.N,B3*%
X73200000Y-139466667D03*
D16*
%TO.P,J1,2,Pin_2*%
%TO.N,A3*%
X73200000Y-136926667D03*
%TO.P,J1,3,Pin_3*%
%TO.N,C3*%
X73200000Y-134386667D03*
%TO.P,J1,4,Pin_4*%
%TO.N,A2*%
X73200000Y-131846667D03*
%TO.P,J1,5,Pin_5*%
%TO.N,B2*%
X73200000Y-129306667D03*
%TO.P,J1,6,Pin_6*%
%TO.N,C2*%
X73200000Y-126766667D03*
%TO.P,J1,7,Pin_7*%
%TO.N,A1*%
X73200000Y-124226667D03*
%TO.P,J1,8,Pin_8*%
%TO.N,B1*%
X73200000Y-121686667D03*
%TO.P,J1,9,Pin_9*%
%TO.N,C1*%
X73200000Y-119146667D03*
%TO.P,J1,10,Pin_10*%
%TO.N,GND*%
X73200000Y-116606667D03*
%TO.P,J1,11,Pin_11*%
%TO.N,+3.3V*%
X73200000Y-114066667D03*
%TO.P,J1,12,Pin_12*%
%TO.N,Vin*%
X73200000Y-111526667D03*
%TD*%
D18*
%TO.P,U3,1,GND*%
%TO.N,GND*%
X35080000Y-123561667D03*
%TO.P,U3,2,IN2*%
%TO.N,Net-(U3-IN2)*%
X33810000Y-123561667D03*
%TO.P,U3,3,IN1*%
%TO.N,A2*%
X32540000Y-123561667D03*
%TO.P,U3,4,VREF*%
%TO.N,+3.3V*%
X31270000Y-123561667D03*
%TO.P,U3,5,VM*%
%TO.N,Vin*%
X31270000Y-128961667D03*
%TO.P,U3,6,OUT1*%
%TO.N,Net-(U3-OUT1)*%
X32540000Y-128961667D03*
%TO.P,U3,7,ISEN*%
%TO.N,GND*%
X33810000Y-128961667D03*
%TO.P,U3,8,OUT2*%
%TO.N,Net-(U3-OUT2)*%
X35080000Y-128961667D03*
D19*
%TO.P,U3,9,GND*%
%TO.N,GND*%
X33165000Y-126259167D03*
%TD*%
D18*
%TO.P,U4,1,GND*%
%TO.N,GND*%
X35080000Y-133661667D03*
%TO.P,U4,2,IN2*%
%TO.N,Net-(U4-IN2)*%
X33810000Y-133661667D03*
%TO.P,U4,3,IN1*%
%TO.N,A3*%
X32540000Y-133661667D03*
%TO.P,U4,4,VREF*%
%TO.N,+3.3V*%
X31270000Y-133661667D03*
%TO.P,U4,5,VM*%
%TO.N,Vin*%
X31270000Y-139061667D03*
%TO.P,U4,6,OUT1*%
%TO.N,Net-(U4-OUT1)*%
X32540000Y-139061667D03*
%TO.P,U4,7,ISEN*%
%TO.N,GND*%
X33810000Y-139061667D03*
%TO.P,U4,8,OUT2*%
%TO.N,Net-(U4-OUT2)*%
X35080000Y-139061667D03*
D19*
%TO.P,U4,9,GND*%
%TO.N,GND*%
X33165000Y-136359167D03*
%TD*%
D15*
%TO.P,C10,1*%
%TO.N,Vin*%
X65000000Y-126166667D03*
D14*
%TO.P,C10,2*%
%TO.N,GND*%
X68500000Y-126166667D03*
%TD*%
D18*
%TO.P,U9,1,GND*%
%TO.N,GND*%
X55080000Y-133561667D03*
%TO.P,U9,2,IN2*%
%TO.N,Net-(U9-IN2)*%
X53810000Y-133561667D03*
%TO.P,U9,3,IN1*%
%TO.N,C3*%
X52540000Y-133561667D03*
%TO.P,U9,4,VREF*%
%TO.N,+3.3V*%
X51270000Y-133561667D03*
%TO.P,U9,5,VM*%
%TO.N,Vin*%
X51270000Y-138961667D03*
%TO.P,U9,6,OUT1*%
%TO.N,Net-(U9-OUT1)*%
X52540000Y-138961667D03*
%TO.P,U9,7,ISEN*%
%TO.N,GND*%
X53810000Y-138961667D03*
%TO.P,U9,8,OUT2*%
%TO.N,Net-(U9-OUT2)*%
X55080000Y-138961667D03*
D19*
%TO.P,U9,9,GND*%
%TO.N,GND*%
X53165000Y-136259167D03*
%TD*%
D18*
%TO.P,U8,1,GND*%
%TO.N,GND*%
X45080000Y-113606667D03*
%TO.P,U8,2,IN2*%
%TO.N,Net-(U8-IN2)*%
X43810000Y-113606667D03*
%TO.P,U8,3,IN1*%
%TO.N,B1*%
X42540000Y-113606667D03*
%TO.P,U8,4,VREF*%
%TO.N,+3.3V*%
X41270000Y-113606667D03*
%TO.P,U8,5,VM*%
%TO.N,Vin*%
X41270000Y-119006667D03*
%TO.P,U8,6,OUT1*%
%TO.N,Net-(U8-OUT1)*%
X42540000Y-119006667D03*
%TO.P,U8,7,ISEN*%
%TO.N,GND*%
X43810000Y-119006667D03*
%TO.P,U8,8,OUT2*%
%TO.N,Net-(U8-OUT2)*%
X45080000Y-119006667D03*
D19*
%TO.P,U8,9,GND*%
%TO.N,GND*%
X43165000Y-116304167D03*
%TD*%
D12*
%TO.P,LS1,1,1*%
%TO.N,Net-(U2-OUT1)*%
X37300000Y-118666667D03*
%TO.P,LS1,2,2*%
%TO.N,Net-(U2-OUT2)*%
X37300000Y-113666667D03*
%TD*%
D18*
%TO.P,U6,1,GND*%
%TO.N,GND*%
X45080000Y-133561667D03*
%TO.P,U6,2,IN2*%
%TO.N,Net-(U6-IN2)*%
X43810000Y-133561667D03*
%TO.P,U6,3,IN1*%
%TO.N,B3*%
X42540000Y-133561667D03*
%TO.P,U6,4,VREF*%
%TO.N,+3.3V*%
X41270000Y-133561667D03*
%TO.P,U6,5,VM*%
%TO.N,Vin*%
X41270000Y-138961667D03*
%TO.P,U6,6,OUT1*%
%TO.N,Net-(U6-OUT1)*%
X42540000Y-138961667D03*
%TO.P,U6,7,ISEN*%
%TO.N,GND*%
X43810000Y-138961667D03*
%TO.P,U6,8,OUT2*%
%TO.N,Net-(U6-OUT2)*%
X45080000Y-138961667D03*
D19*
%TO.P,U6,9,GND*%
%TO.N,GND*%
X43165000Y-136259167D03*
%TD*%
D18*
%TO.P,U11,1,GND*%
%TO.N,GND*%
X55080000Y-113561667D03*
%TO.P,U11,2,IN2*%
%TO.N,Net-(U11-IN2)*%
X53810000Y-113561667D03*
%TO.P,U11,3,IN1*%
%TO.N,C1*%
X52540000Y-113561667D03*
%TO.P,U11,4,VREF*%
%TO.N,+3.3V*%
X51270000Y-113561667D03*
%TO.P,U11,5,VM*%
%TO.N,Vin*%
X51270000Y-118961667D03*
%TO.P,U11,6,OUT1*%
%TO.N,Net-(U11-OUT1)*%
X52540000Y-118961667D03*
%TO.P,U11,7,ISEN*%
%TO.N,GND*%
X53810000Y-118961667D03*
%TO.P,U11,8,OUT2*%
%TO.N,Net-(U11-OUT2)*%
X55080000Y-118961667D03*
D19*
%TO.P,U11,9,GND*%
%TO.N,GND*%
X53165000Y-116259167D03*
%TD*%
D18*
%TO.P,U7,1,GND*%
%TO.N,GND*%
X45080000Y-123561667D03*
%TO.P,U7,2,IN2*%
%TO.N,Net-(U7-IN2)*%
X43810000Y-123561667D03*
%TO.P,U7,3,IN1*%
%TO.N,B2*%
X42540000Y-123561667D03*
%TO.P,U7,4,VREF*%
%TO.N,+3.3V*%
X41270000Y-123561667D03*
%TO.P,U7,5,VM*%
%TO.N,Vin*%
X41270000Y-128961667D03*
%TO.P,U7,6,OUT1*%
%TO.N,Net-(U7-OUT1)*%
X42540000Y-128961667D03*
%TO.P,U7,7,ISEN*%
%TO.N,GND*%
X43810000Y-128961667D03*
%TO.P,U7,8,OUT2*%
%TO.N,Net-(U7-OUT2)*%
X45080000Y-128961667D03*
D19*
%TO.P,U7,9,GND*%
%TO.N,GND*%
X43165000Y-126259167D03*
%TD*%
D12*
%TO.P,LS8,1,1*%
%TO.N,Net-(U10-OUT1)*%
X57300000Y-128666667D03*
%TO.P,LS8,2,2*%
%TO.N,Net-(U10-OUT2)*%
X57300000Y-123666667D03*
%TD*%
%TO.P,LS7,1,1*%
%TO.N,Net-(U9-OUT1)*%
X57300000Y-138666667D03*
%TO.P,LS7,2,2*%
%TO.N,Net-(U9-OUT2)*%
X57300000Y-133666667D03*
%TD*%
%TO.P,LS6,1,1*%
%TO.N,Net-(U8-OUT1)*%
X47300000Y-118666667D03*
%TO.P,LS6,2,2*%
%TO.N,Net-(U8-OUT2)*%
X47300000Y-113666667D03*
%TD*%
%TO.P,LS4,1,1*%
%TO.N,Net-(U6-OUT1)*%
X47300000Y-138666667D03*
%TO.P,LS4,2,2*%
%TO.N,Net-(U6-OUT2)*%
X47300000Y-133666667D03*
%TD*%
D20*
%TO.P,REF\u002A\u002A,1*%
%TO.N,N/C*%
X25200000Y-140566667D03*
%TD*%
D12*
%TO.P,LS3,1,1*%
%TO.N,Net-(U4-OUT1)*%
X37300000Y-138666667D03*
%TO.P,LS3,2,2*%
%TO.N,Net-(U4-OUT2)*%
X37300000Y-133666667D03*
%TD*%
%TO.P,LS2,1,1*%
%TO.N,Net-(U3-OUT1)*%
X37300000Y-128666667D03*
%TO.P,LS2,2,2*%
%TO.N,Net-(U3-OUT2)*%
X37300000Y-123666667D03*
%TD*%
%TO.P,LS9,1,1*%
%TO.N,Net-(U11-OUT1)*%
X57300000Y-118666667D03*
%TO.P,LS9,2,2*%
%TO.N,Net-(U11-OUT2)*%
X57300000Y-113666667D03*
%TD*%
D20*
%TO.P,REF\u002A\u002A,1*%
%TO.N,N/C*%
X78600000Y-111366667D03*
%TD*%
D12*
%TO.P,LS5,1,1*%
%TO.N,Net-(U7-OUT1)*%
X47300000Y-128666667D03*
%TO.P,LS5,2,2*%
%TO.N,Net-(U7-OUT2)*%
X47300000Y-123666667D03*
%TD*%
D20*
%TO.P,REF\u002A\u002A,1*%
%TO.N,N/C*%
X25200000Y-111366667D03*
%TD*%
%TO.P,REF\u002A\u002A,1*%
%TO.N,N/C*%
X78600000Y-140566667D03*
%TD*%
D21*
%TO.P,C13,1*%
%TO.N,GND*%
X49700000Y-135866667D03*
%TO.P,C13,2*%
%TO.N,Vin*%
X49700000Y-137591667D03*
%TD*%
%TO.P,C12,1*%
%TO.N,GND*%
X49700000Y-125866667D03*
%TO.P,C12,2*%
%TO.N,Vin*%
X49700000Y-127591667D03*
%TD*%
%TO.P,C1,1*%
%TO.N,GND*%
X29800000Y-115304167D03*
%TO.P,C1,2*%
%TO.N,Vin*%
X29800000Y-117029167D03*
%TD*%
%TO.P,C3,1*%
%TO.N,GND*%
X29700000Y-135841667D03*
%TO.P,C3,2*%
%TO.N,Vin*%
X29700000Y-137566667D03*
%TD*%
%TO.P,C2,1*%
%TO.N,GND*%
X29700000Y-125841667D03*
%TO.P,C2,2*%
%TO.N,Vin*%
X29700000Y-127566667D03*
%TD*%
D22*
%TO.P,C7,1*%
%TO.N,Vin*%
X39700000Y-127591667D03*
%TO.P,C7,2*%
%TO.N,GND*%
X39700000Y-125866667D03*
%TD*%
D21*
%TO.P,C8,1*%
%TO.N,GND*%
X39800000Y-115349167D03*
%TO.P,C8,2*%
%TO.N,Vin*%
X39800000Y-117074167D03*
%TD*%
%TO.P,C11,1*%
%TO.N,GND*%
X49800000Y-115304167D03*
%TO.P,C11,2*%
%TO.N,Vin*%
X49800000Y-117029167D03*
%TD*%
%TO.P,C6,1*%
%TO.N,GND*%
X39700000Y-136204167D03*
%TO.P,C6,2*%
%TO.N,Vin*%
X39700000Y-137929167D03*
%TD*%
D17*
%TO.P,J1,1,Pin_1*%
%TO.N,B3*%
X73200000Y-155200000D03*
D16*
%TO.P,J1,2,Pin_2*%
%TO.N,A3*%
X73200000Y-157740000D03*
%TO.P,J1,3,Pin_3*%
%TO.N,C3*%
X73200000Y-160280000D03*
%TO.P,J1,4,Pin_4*%
%TO.N,A2*%
X73200000Y-162820000D03*
%TO.P,J1,5,Pin_5*%
%TO.N,B2*%
X73200000Y-165360000D03*
%TO.P,J1,6,Pin_6*%
%TO.N,C2*%
X73200000Y-167900000D03*
%TO.P,J1,7,Pin_7*%
%TO.N,A1*%
X73200000Y-170440000D03*
%TO.P,J1,8,Pin_8*%
%TO.N,B1*%
X73200000Y-172980000D03*
%TO.P,J1,9,Pin_9*%
%TO.N,C1*%
X73200000Y-175520000D03*
%TO.P,J1,10,Pin_10*%
%TO.N,GND*%
X73200000Y-178060000D03*
%TO.P,J1,11,Pin_11*%
%TO.N,+3.3V*%
X73200000Y-180600000D03*
%TO.P,J1,12,Pin_12*%
%TO.N,Vin*%
X73200000Y-183140000D03*
%TD*%
D15*
%TO.P,C10,1*%
%TO.N,Vin*%
X65000000Y-168500000D03*
D14*
%TO.P,C10,2*%
%TO.N,GND*%
X68500000Y-168500000D03*
%TD*%
D12*
%TO.P,LS1,1,1*%
%TO.N,Net-(U2-OUT1)*%
X37300000Y-176000000D03*
%TO.P,LS1,2,2*%
%TO.N,Net-(U2-OUT2)*%
X37300000Y-181000000D03*
%TD*%
%TO.P,LS8,1,1*%
%TO.N,Net-(U10-OUT1)*%
X57300000Y-166000000D03*
%TO.P,LS8,2,2*%
%TO.N,Net-(U10-OUT2)*%
X57300000Y-171000000D03*
%TD*%
D13*
%TO.P,U5,1*%
%TO.N,A1*%
X63550000Y-174200000D03*
%TO.P,U5,2*%
%TO.N,Net-(U2-IN2)*%
X63550000Y-175470000D03*
%TO.P,U5,3*%
%TO.N,B1*%
X63550000Y-176740000D03*
%TO.P,U5,4*%
%TO.N,Net-(U8-IN2)*%
X63550000Y-178010000D03*
%TO.P,U5,5*%
%TO.N,C1*%
X63550000Y-179280000D03*
%TO.P,U5,6*%
%TO.N,Net-(U11-IN2)*%
X63550000Y-180550000D03*
%TO.P,U5,7,GND*%
%TO.N,GND*%
X63550000Y-181820000D03*
%TO.P,U5,8*%
%TO.N,unconnected-(U5-Pad8)*%
X68500000Y-181820000D03*
%TO.P,U5,9*%
%TO.N,unconnected-(U5-Pad9)*%
X68500000Y-180550000D03*
%TO.P,U5,10*%
%TO.N,unconnected-(U5-Pad10)*%
X68500000Y-179280000D03*
%TO.P,U5,11*%
%TO.N,unconnected-(U5-Pad11)*%
X68500000Y-178010000D03*
%TO.P,U5,12*%
%TO.N,unconnected-(U5-Pad12)*%
X68500000Y-176740000D03*
%TO.P,U5,13*%
%TO.N,unconnected-(U5-Pad13)*%
X68500000Y-175470000D03*
%TO.P,U5,14,VCC*%
%TO.N,+3.3V*%
X68500000Y-174200000D03*
%TD*%
D20*
%TO.P,REF\u002A\u002A,1*%
%TO.N,N/C*%
X78600000Y-183300000D03*
%TD*%
D12*
%TO.P,LS3,1,1*%
%TO.N,Net-(U4-OUT1)*%
X37300000Y-156000000D03*
%TO.P,LS3,2,2*%
%TO.N,Net-(U4-OUT2)*%
X37300000Y-161000000D03*
%TD*%
%TO.P,LS5,1,1*%
%TO.N,Net-(U7-OUT1)*%
X47300000Y-166000000D03*
%TO.P,LS5,2,2*%
%TO.N,Net-(U7-OUT2)*%
X47300000Y-171000000D03*
%TD*%
%TO.P,LS7,1,1*%
%TO.N,Net-(U9-OUT1)*%
X57300000Y-156000000D03*
%TO.P,LS7,2,2*%
%TO.N,Net-(U9-OUT2)*%
X57300000Y-161000000D03*
%TD*%
D20*
%TO.P,REF\u002A\u002A,1*%
%TO.N,N/C*%
X25200000Y-154100000D03*
%TD*%
D12*
%TO.P,LS4,1,1*%
%TO.N,Net-(U6-OUT1)*%
X47300000Y-156000000D03*
%TO.P,LS4,2,2*%
%TO.N,Net-(U6-OUT2)*%
X47300000Y-161000000D03*
%TD*%
%TO.P,LS2,1,1*%
%TO.N,Net-(U3-OUT1)*%
X37300000Y-166000000D03*
%TO.P,LS2,2,2*%
%TO.N,Net-(U3-OUT2)*%
X37300000Y-171000000D03*
%TD*%
%TO.P,LS9,1,1*%
%TO.N,Net-(U11-OUT1)*%
X57300000Y-176000000D03*
%TO.P,LS9,2,2*%
%TO.N,Net-(U11-OUT2)*%
X57300000Y-181000000D03*
%TD*%
D13*
%TO.P,U1,1*%
%TO.N,A3*%
X63525000Y-154090000D03*
%TO.P,U1,2*%
%TO.N,Net-(U4-IN2)*%
X63525000Y-155360000D03*
%TO.P,U1,3*%
%TO.N,B3*%
X63525000Y-156630000D03*
%TO.P,U1,4*%
%TO.N,Net-(U6-IN2)*%
X63525000Y-157900000D03*
%TO.P,U1,5*%
%TO.N,C3*%
X63525000Y-159170000D03*
%TO.P,U1,6*%
%TO.N,Net-(U9-IN2)*%
X63525000Y-160440000D03*
%TO.P,U1,7,GND*%
%TO.N,GND*%
X63525000Y-161710000D03*
%TO.P,U1,8*%
%TO.N,Net-(U10-IN2)*%
X68475000Y-161710000D03*
%TO.P,U1,9*%
%TO.N,C2*%
X68475000Y-160440000D03*
%TO.P,U1,10*%
%TO.N,Net-(U7-IN2)*%
X68475000Y-159170000D03*
%TO.P,U1,11*%
%TO.N,B2*%
X68475000Y-157900000D03*
%TO.P,U1,12*%
%TO.N,Net-(U3-IN2)*%
X68475000Y-156630000D03*
%TO.P,U1,13*%
%TO.N,A2*%
X68475000Y-155360000D03*
%TO.P,U1,14,VCC*%
%TO.N,+3.3V*%
X68475000Y-154090000D03*
%TD*%
D12*
%TO.P,LS6,1,1*%
%TO.N,Net-(U8-OUT1)*%
X47300000Y-176000000D03*
%TO.P,LS6,2,2*%
%TO.N,Net-(U8-OUT2)*%
X47300000Y-181000000D03*
%TD*%
D20*
%TO.P,REF\u002A\u002A,1*%
%TO.N,N/C*%
X25200000Y-183300000D03*
%TD*%
%TO.P,REF\u002A\u002A,1*%
%TO.N,N/C*%
X78600000Y-154100000D03*
%TD*%
D18*
%TO.P,U10,1,GND*%
%TO.N,GND*%
X55080000Y-38095000D03*
%TO.P,U10,2,IN2*%
%TO.N,Net-(U10-IN2)*%
X53810000Y-38095000D03*
%TO.P,U10,3,IN1*%
%TO.N,C2*%
X52540000Y-38095000D03*
%TO.P,U10,4,VREF*%
%TO.N,+3.3V*%
X51270000Y-38095000D03*
%TO.P,U10,5,VM*%
%TO.N,Vin*%
X51270000Y-43495000D03*
%TO.P,U10,6,OUT1*%
%TO.N,Net-(U10-OUT1)*%
X52540000Y-43495000D03*
%TO.P,U10,7,ISEN*%
%TO.N,GND*%
X53810000Y-43495000D03*
%TO.P,U10,8,OUT2*%
%TO.N,Net-(U10-OUT2)*%
X55080000Y-43495000D03*
D19*
%TO.P,U10,9,GND*%
%TO.N,GND*%
X53165000Y-40792500D03*
%TD*%
D18*
%TO.P,U2,1,GND*%
%TO.N,GND*%
X35080000Y-28095000D03*
%TO.P,U2,2,IN2*%
%TO.N,Net-(U2-IN2)*%
X33810000Y-28095000D03*
%TO.P,U2,3,IN1*%
%TO.N,A1*%
X32540000Y-28095000D03*
%TO.P,U2,4,VREF*%
%TO.N,+3.3V*%
X31270000Y-28095000D03*
%TO.P,U2,5,VM*%
%TO.N,Vin*%
X31270000Y-33495000D03*
%TO.P,U2,6,OUT1*%
%TO.N,Net-(U2-OUT1)*%
X32540000Y-33495000D03*
%TO.P,U2,7,ISEN*%
%TO.N,GND*%
X33810000Y-33495000D03*
%TO.P,U2,8,OUT2*%
%TO.N,Net-(U2-OUT2)*%
X35080000Y-33495000D03*
D19*
%TO.P,U2,9,GND*%
%TO.N,GND*%
X33165000Y-30792500D03*
%TD*%
D18*
%TO.P,U6,1,GND*%
%TO.N,GND*%
X45080000Y-48095000D03*
%TO.P,U6,2,IN2*%
%TO.N,Net-(U6-IN2)*%
X43810000Y-48095000D03*
%TO.P,U6,3,IN1*%
%TO.N,B3*%
X42540000Y-48095000D03*
%TO.P,U6,4,VREF*%
%TO.N,+3.3V*%
X41270000Y-48095000D03*
%TO.P,U6,5,VM*%
%TO.N,Vin*%
X41270000Y-53495000D03*
%TO.P,U6,6,OUT1*%
%TO.N,Net-(U6-OUT1)*%
X42540000Y-53495000D03*
%TO.P,U6,7,ISEN*%
%TO.N,GND*%
X43810000Y-53495000D03*
%TO.P,U6,8,OUT2*%
%TO.N,Net-(U6-OUT2)*%
X45080000Y-53495000D03*
D19*
%TO.P,U6,9,GND*%
%TO.N,GND*%
X43165000Y-50792500D03*
%TD*%
D17*
%TO.P,J1,1,Pin_1*%
%TO.N,B3*%
X73200000Y-54000000D03*
D16*
%TO.P,J1,2,Pin_2*%
%TO.N,A3*%
X73200000Y-51460000D03*
%TO.P,J1,3,Pin_3*%
%TO.N,C3*%
X73200000Y-48920000D03*
%TO.P,J1,4,Pin_4*%
%TO.N,A2*%
X73200000Y-46380000D03*
%TO.P,J1,5,Pin_5*%
%TO.N,B2*%
X73200000Y-43840000D03*
%TO.P,J1,6,Pin_6*%
%TO.N,C2*%
X73200000Y-41300000D03*
%TO.P,J1,7,Pin_7*%
%TO.N,A1*%
X73200000Y-38760000D03*
%TO.P,J1,8,Pin_8*%
%TO.N,B1*%
X73200000Y-36220000D03*
%TO.P,J1,9,Pin_9*%
%TO.N,C1*%
X73200000Y-33680000D03*
%TO.P,J1,10,Pin_10*%
%TO.N,GND*%
X73200000Y-31140000D03*
%TO.P,J1,11,Pin_11*%
%TO.N,+3.3V*%
X73200000Y-28600000D03*
%TO.P,J1,12,Pin_12*%
%TO.N,Vin*%
X73200000Y-26060000D03*
%TD*%
D18*
%TO.P,U11,1,GND*%
%TO.N,GND*%
X55080000Y-28095000D03*
%TO.P,U11,2,IN2*%
%TO.N,Net-(U11-IN2)*%
X53810000Y-28095000D03*
%TO.P,U11,3,IN1*%
%TO.N,C1*%
X52540000Y-28095000D03*
%TO.P,U11,4,VREF*%
%TO.N,+3.3V*%
X51270000Y-28095000D03*
%TO.P,U11,5,VM*%
%TO.N,Vin*%
X51270000Y-33495000D03*
%TO.P,U11,6,OUT1*%
%TO.N,Net-(U11-OUT1)*%
X52540000Y-33495000D03*
%TO.P,U11,7,ISEN*%
%TO.N,GND*%
X53810000Y-33495000D03*
%TO.P,U11,8,OUT2*%
%TO.N,Net-(U11-OUT2)*%
X55080000Y-33495000D03*
D19*
%TO.P,U11,9,GND*%
%TO.N,GND*%
X53165000Y-30792500D03*
%TD*%
D18*
%TO.P,U3,1,GND*%
%TO.N,GND*%
X35080000Y-38095000D03*
%TO.P,U3,2,IN2*%
%TO.N,Net-(U3-IN2)*%
X33810000Y-38095000D03*
%TO.P,U3,3,IN1*%
%TO.N,A2*%
X32540000Y-38095000D03*
%TO.P,U3,4,VREF*%
%TO.N,+3.3V*%
X31270000Y-38095000D03*
%TO.P,U3,5,VM*%
%TO.N,Vin*%
X31270000Y-43495000D03*
%TO.P,U3,6,OUT1*%
%TO.N,Net-(U3-OUT1)*%
X32540000Y-43495000D03*
%TO.P,U3,7,ISEN*%
%TO.N,GND*%
X33810000Y-43495000D03*
%TO.P,U3,8,OUT2*%
%TO.N,Net-(U3-OUT2)*%
X35080000Y-43495000D03*
D19*
%TO.P,U3,9,GND*%
%TO.N,GND*%
X33165000Y-40792500D03*
%TD*%
D18*
%TO.P,U7,1,GND*%
%TO.N,GND*%
X45080000Y-38095000D03*
%TO.P,U7,2,IN2*%
%TO.N,Net-(U7-IN2)*%
X43810000Y-38095000D03*
%TO.P,U7,3,IN1*%
%TO.N,B2*%
X42540000Y-38095000D03*
%TO.P,U7,4,VREF*%
%TO.N,+3.3V*%
X41270000Y-38095000D03*
%TO.P,U7,5,VM*%
%TO.N,Vin*%
X41270000Y-43495000D03*
%TO.P,U7,6,OUT1*%
%TO.N,Net-(U7-OUT1)*%
X42540000Y-43495000D03*
%TO.P,U7,7,ISEN*%
%TO.N,GND*%
X43810000Y-43495000D03*
%TO.P,U7,8,OUT2*%
%TO.N,Net-(U7-OUT2)*%
X45080000Y-43495000D03*
D19*
%TO.P,U7,9,GND*%
%TO.N,GND*%
X43165000Y-40792500D03*
%TD*%
D15*
%TO.P,C10,1*%
%TO.N,Vin*%
X65000000Y-40700000D03*
D14*
%TO.P,C10,2*%
%TO.N,GND*%
X68500000Y-40700000D03*
%TD*%
D18*
%TO.P,U4,1,GND*%
%TO.N,GND*%
X35080000Y-48195000D03*
%TO.P,U4,2,IN2*%
%TO.N,Net-(U4-IN2)*%
X33810000Y-48195000D03*
%TO.P,U4,3,IN1*%
%TO.N,A3*%
X32540000Y-48195000D03*
%TO.P,U4,4,VREF*%
%TO.N,+3.3V*%
X31270000Y-48195000D03*
%TO.P,U4,5,VM*%
%TO.N,Vin*%
X31270000Y-53595000D03*
%TO.P,U4,6,OUT1*%
%TO.N,Net-(U4-OUT1)*%
X32540000Y-53595000D03*
%TO.P,U4,7,ISEN*%
%TO.N,GND*%
X33810000Y-53595000D03*
%TO.P,U4,8,OUT2*%
%TO.N,Net-(U4-OUT2)*%
X35080000Y-53595000D03*
D19*
%TO.P,U4,9,GND*%
%TO.N,GND*%
X33165000Y-50892500D03*
%TD*%
D18*
%TO.P,U9,1,GND*%
%TO.N,GND*%
X55080000Y-48095000D03*
%TO.P,U9,2,IN2*%
%TO.N,Net-(U9-IN2)*%
X53810000Y-48095000D03*
%TO.P,U9,3,IN1*%
%TO.N,C3*%
X52540000Y-48095000D03*
%TO.P,U9,4,VREF*%
%TO.N,+3.3V*%
X51270000Y-48095000D03*
%TO.P,U9,5,VM*%
%TO.N,Vin*%
X51270000Y-53495000D03*
%TO.P,U9,6,OUT1*%
%TO.N,Net-(U9-OUT1)*%
X52540000Y-53495000D03*
%TO.P,U9,7,ISEN*%
%TO.N,GND*%
X53810000Y-53495000D03*
%TO.P,U9,8,OUT2*%
%TO.N,Net-(U9-OUT2)*%
X55080000Y-53495000D03*
D19*
%TO.P,U9,9,GND*%
%TO.N,GND*%
X53165000Y-50792500D03*
%TD*%
D18*
%TO.P,U8,1,GND*%
%TO.N,GND*%
X45080000Y-28140000D03*
%TO.P,U8,2,IN2*%
%TO.N,Net-(U8-IN2)*%
X43810000Y-28140000D03*
%TO.P,U8,3,IN1*%
%TO.N,B1*%
X42540000Y-28140000D03*
%TO.P,U8,4,VREF*%
%TO.N,+3.3V*%
X41270000Y-28140000D03*
%TO.P,U8,5,VM*%
%TO.N,Vin*%
X41270000Y-33540000D03*
%TO.P,U8,6,OUT1*%
%TO.N,Net-(U8-OUT1)*%
X42540000Y-33540000D03*
%TO.P,U8,7,ISEN*%
%TO.N,GND*%
X43810000Y-33540000D03*
%TO.P,U8,8,OUT2*%
%TO.N,Net-(U8-OUT2)*%
X45080000Y-33540000D03*
D19*
%TO.P,U8,9,GND*%
%TO.N,GND*%
X43165000Y-30837500D03*
%TD*%
D12*
%TO.P,LS1,1,1*%
%TO.N,Net-(U2-OUT1)*%
X37300000Y-33200000D03*
%TO.P,LS1,2,2*%
%TO.N,Net-(U2-OUT2)*%
X37300000Y-28200000D03*
%TD*%
%TO.P,LS8,1,1*%
%TO.N,Net-(U10-OUT1)*%
X57300000Y-43200000D03*
%TO.P,LS8,2,2*%
%TO.N,Net-(U10-OUT2)*%
X57300000Y-38200000D03*
%TD*%
%TO.P,LS3,1,1*%
%TO.N,Net-(U4-OUT1)*%
X37300000Y-53200000D03*
%TO.P,LS3,2,2*%
%TO.N,Net-(U4-OUT2)*%
X37300000Y-48200000D03*
%TD*%
%TO.P,LS5,1,1*%
%TO.N,Net-(U7-OUT1)*%
X47300000Y-43200000D03*
%TO.P,LS5,2,2*%
%TO.N,Net-(U7-OUT2)*%
X47300000Y-38200000D03*
%TD*%
%TO.P,LS7,1,1*%
%TO.N,Net-(U9-OUT1)*%
X57300000Y-53200000D03*
%TO.P,LS7,2,2*%
%TO.N,Net-(U9-OUT2)*%
X57300000Y-48200000D03*
%TD*%
%TO.P,LS4,1,1*%
%TO.N,Net-(U6-OUT1)*%
X47300000Y-53200000D03*
%TO.P,LS4,2,2*%
%TO.N,Net-(U6-OUT2)*%
X47300000Y-48200000D03*
%TD*%
%TO.P,LS2,1,1*%
%TO.N,Net-(U3-OUT1)*%
X37300000Y-43200000D03*
%TO.P,LS2,2,2*%
%TO.N,Net-(U3-OUT2)*%
X37300000Y-38200000D03*
%TD*%
%TO.P,LS9,1,1*%
%TO.N,Net-(U11-OUT1)*%
X57300000Y-33200000D03*
%TO.P,LS9,2,2*%
%TO.N,Net-(U11-OUT2)*%
X57300000Y-28200000D03*
%TD*%
%TO.P,LS6,1,1*%
%TO.N,Net-(U8-OUT1)*%
X47300000Y-33200000D03*
%TO.P,LS6,2,2*%
%TO.N,Net-(U8-OUT2)*%
X47300000Y-28200000D03*
%TD*%
D21*
%TO.P,C13,1*%
%TO.N,GND*%
X49700000Y-50400000D03*
%TO.P,C13,2*%
%TO.N,Vin*%
X49700000Y-52125000D03*
%TD*%
%TO.P,C12,1*%
%TO.N,GND*%
X49700000Y-40400000D03*
%TO.P,C12,2*%
%TO.N,Vin*%
X49700000Y-42125000D03*
%TD*%
%TO.P,C8,1*%
%TO.N,GND*%
X39800000Y-29882500D03*
%TO.P,C8,2*%
%TO.N,Vin*%
X39800000Y-31607500D03*
%TD*%
%TO.P,C1,1*%
%TO.N,GND*%
X29800000Y-29837500D03*
%TO.P,C1,2*%
%TO.N,Vin*%
X29800000Y-31562500D03*
%TD*%
%TO.P,C11,1*%
%TO.N,GND*%
X49800000Y-29837500D03*
%TO.P,C11,2*%
%TO.N,Vin*%
X49800000Y-31562500D03*
%TD*%
%TO.P,C3,1*%
%TO.N,GND*%
X29700000Y-50375000D03*
%TO.P,C3,2*%
%TO.N,Vin*%
X29700000Y-52100000D03*
%TD*%
D22*
%TO.P,C7,1*%
%TO.N,Vin*%
X39700000Y-42125000D03*
%TO.P,C7,2*%
%TO.N,GND*%
X39700000Y-40400000D03*
%TD*%
D21*
%TO.P,C2,1*%
%TO.N,GND*%
X29700000Y-40375000D03*
%TO.P,C2,2*%
%TO.N,Vin*%
X29700000Y-42100000D03*
%TD*%
%TO.P,C6,1*%
%TO.N,GND*%
X39700000Y-50737500D03*
%TO.P,C6,2*%
%TO.N,Vin*%
X39700000Y-52462500D03*
%TD*%
D23*
%TO.N,+3.3V*%
X50237959Y-78046617D03*
X70500000Y-68652572D03*
X40188787Y-77913136D03*
%TO.N,Net-(U2-IN2)*%
X34180000Y-97783333D03*
%TO.N,B1*%
X42141612Y-97388333D03*
%TO.N,Net-(U8-IN2)*%
X44136069Y-97388333D03*
%TO.N,+3.3V*%
X30237959Y-98046617D03*
%TO.N,Net-(U9-IN2)*%
X54136069Y-77433333D03*
%TO.N,B2*%
X42207026Y-87696214D03*
%TO.N,Net-(U4-IN2)*%
X34136069Y-77333333D03*
%TO.N,Net-(U11-IN2)*%
X54136069Y-97433333D03*
%TO.N,Net-(U7-IN2)*%
X44207192Y-87582684D03*
%TO.N,A3*%
X32141612Y-77333333D03*
%TO.N,C1*%
X52141612Y-97433333D03*
%TO.N,A1*%
X32141612Y-97433333D03*
%TO.N,+3.3V*%
X30030000Y-87953333D03*
%TO.N,GND*%
X60300000Y-78033333D03*
X60400000Y-97933333D03*
%TO.N,+3.3V*%
X30237959Y-77946617D03*
%TO.N,C3*%
X52141612Y-77433333D03*
%TO.N,+3.3V*%
X50237959Y-98046617D03*
X70700000Y-95133333D03*
X40237959Y-98001617D03*
X40237959Y-88046617D03*
X50237959Y-88046617D03*
%TO.N,Vin*%
X62500000Y-86633333D03*
%TO.N,B3*%
X42152159Y-77532107D03*
%TO.N,Net-(U3-IN2)*%
X34160000Y-87633333D03*
%TO.N,A2*%
X32100000Y-87533333D03*
%TO.N,+3.3V*%
X62225000Y-67173333D03*
%TO.N,Vin*%
X68800000Y-98633333D03*
%TO.N,Net-(U6-IN2)*%
X44151505Y-77583333D03*
%TO.N,C2*%
X52141612Y-87433333D03*
%TO.N,Net-(U10-IN2)*%
X54136069Y-87433333D03*
%TO.N,Net-(U11-IN2)*%
X54136069Y-111766667D03*
%TO.N,Net-(U6-IN2)*%
X44151505Y-131616667D03*
%TO.N,B2*%
X42207026Y-121503786D03*
%TO.N,Net-(U7-IN2)*%
X44207192Y-121617316D03*
%TO.N,Net-(U2-IN2)*%
X34180000Y-111416667D03*
%TO.N,Net-(U8-IN2)*%
X44136069Y-111811667D03*
%TO.N,B1*%
X42141612Y-111811667D03*
%TO.N,+3.3V*%
X62225000Y-142026667D03*
%TO.N,C1*%
X52141612Y-111766667D03*
%TO.N,A3*%
X32141612Y-131866667D03*
%TO.N,A2*%
X32100000Y-121666667D03*
%TO.N,+3.3V*%
X50237959Y-121153383D03*
%TO.N,Net-(U9-IN2)*%
X54136069Y-131766667D03*
%TO.N,Vin*%
X68800000Y-110566667D03*
%TO.N,Net-(U4-IN2)*%
X34136069Y-131866667D03*
%TO.N,+3.3V*%
X30237959Y-111153383D03*
%TO.N,C3*%
X52141612Y-131766667D03*
%TO.N,C2*%
X52141612Y-121766667D03*
%TO.N,+3.3V*%
X50237959Y-131153383D03*
X30030000Y-121246667D03*
%TO.N,Net-(U3-IN2)*%
X34160000Y-121566667D03*
%TO.N,B3*%
X42152159Y-131667893D03*
%TO.N,Vin*%
X62500000Y-122566667D03*
%TO.N,Net-(U10-IN2)*%
X54136069Y-121766667D03*
%TO.N,+3.3V*%
X40237959Y-111198383D03*
X70500000Y-140547428D03*
X40188787Y-131286864D03*
X30237959Y-131253383D03*
X70700000Y-114066667D03*
%TO.N,GND*%
X60300000Y-131166667D03*
%TO.N,+3.3V*%
X50237959Y-111153383D03*
%TO.N,GND*%
X60400000Y-111266667D03*
%TO.N,+3.3V*%
X40237959Y-121153383D03*
%TO.N,A1*%
X32141612Y-111766667D03*
%TO.N,C3*%
X52141612Y-162900000D03*
%TO.N,Net-(U11-IN2)*%
X54136069Y-182900000D03*
%TO.N,Net-(U10-IN2)*%
X54136069Y-172900000D03*
%TO.N,Net-(U8-IN2)*%
X44136069Y-182855000D03*
%TO.N,Net-(U9-IN2)*%
X54136069Y-162900000D03*
%TO.N,+3.3V*%
X30237959Y-183513284D03*
%TO.N,A3*%
X32141612Y-162800000D03*
%TO.N,C2*%
X52141612Y-172900000D03*
%TO.N,Net-(U6-IN2)*%
X44151505Y-163050000D03*
%TO.N,Vin*%
X68800000Y-184100000D03*
%TO.N,B2*%
X42207026Y-173162881D03*
%TO.N,+3.3V*%
X30030000Y-173420000D03*
X50237959Y-163513284D03*
%TO.N,B1*%
X42141612Y-182855000D03*
%TO.N,+3.3V*%
X62225000Y-152640000D03*
%TO.N,A2*%
X32100000Y-173000000D03*
%TO.N,C1*%
X52141612Y-182900000D03*
%TO.N,Net-(U3-IN2)*%
X34160000Y-173100000D03*
%TO.N,Net-(U4-IN2)*%
X34136069Y-162800000D03*
%TO.N,B3*%
X42152159Y-162998774D03*
%TO.N,Net-(U7-IN2)*%
X44207192Y-173049351D03*
%TO.N,Net-(U2-IN2)*%
X34180000Y-183250000D03*
%TO.N,Vin*%
X62500000Y-172100000D03*
%TO.N,+3.3V*%
X50237959Y-173513284D03*
X40237959Y-173513284D03*
X40237959Y-183468284D03*
X70700000Y-180600000D03*
X70500000Y-154119239D03*
%TO.N,A1*%
X32141612Y-182900000D03*
%TO.N,GND*%
X60300000Y-163500000D03*
%TO.N,+3.3V*%
X50237959Y-183513284D03*
X40188787Y-163379803D03*
X30237959Y-163413284D03*
%TO.N,GND*%
X60400000Y-183400000D03*
%TO.N,C3*%
X52141612Y-46300000D03*
%TO.N,Net-(U11-IN2)*%
X54136069Y-26300000D03*
%TO.N,Net-(U10-IN2)*%
X54136069Y-36300000D03*
%TO.N,Net-(U8-IN2)*%
X44136069Y-26345000D03*
%TO.N,Net-(U9-IN2)*%
X54136069Y-46300000D03*
%TO.N,+3.3V*%
X30237959Y-25686716D03*
%TO.N,A3*%
X32141612Y-46400000D03*
%TO.N,C2*%
X52141612Y-36300000D03*
%TO.N,Net-(U6-IN2)*%
X44151505Y-46150000D03*
%TO.N,Vin*%
X68800000Y-25100000D03*
%TO.N,B2*%
X42207026Y-36037119D03*
%TO.N,+3.3V*%
X30030000Y-35780000D03*
X50237959Y-45686716D03*
%TO.N,B1*%
X42141612Y-26345000D03*
%TO.N,+3.3V*%
X62225000Y-56560000D03*
%TO.N,A2*%
X32100000Y-36200000D03*
%TO.N,C1*%
X52141612Y-26300000D03*
%TO.N,Net-(U3-IN2)*%
X34160000Y-36100000D03*
%TO.N,Net-(U4-IN2)*%
X34136069Y-46400000D03*
%TO.N,B3*%
X42152159Y-46201226D03*
%TO.N,Net-(U7-IN2)*%
X44207192Y-36150649D03*
%TO.N,Net-(U2-IN2)*%
X34180000Y-25950000D03*
%TO.N,Vin*%
X62500000Y-37100000D03*
%TO.N,+3.3V*%
X50237959Y-35686716D03*
X40237959Y-35686716D03*
X40237959Y-25731716D03*
X70700000Y-28600000D03*
X70500000Y-55080761D03*
%TO.N,A1*%
X32141612Y-26300000D03*
%TO.N,GND*%
X60300000Y-45700000D03*
%TO.N,+3.3V*%
X50237959Y-25686716D03*
X40188787Y-45820197D03*
X30237959Y-45786716D03*
%TO.N,GND*%
X60400000Y-25800000D03*
%TD*%
D24*
%TO.N,GND*%
X61980000Y-96353333D02*
X63550000Y-96353333D01*
%TO.N,B3*%
X65749058Y-66634333D02*
X64951000Y-67432391D01*
%TO.N,Net-(U4-IN2)*%
X35001000Y-69133333D02*
X34136069Y-69998264D01*
%TO.N,A2*%
X69760000Y-69893333D02*
X68475000Y-69893333D01*
%TO.N,C2*%
X59252000Y-86341878D02*
X58108545Y-87485333D01*
D25*
%TO.N,Vin*%
X73200000Y-97673333D02*
X72240000Y-98633333D01*
D24*
%TO.N,A1*%
X59853000Y-88088333D02*
X59900000Y-88135333D01*
%TO.N,B1*%
X64109100Y-91273333D02*
X63550000Y-91273333D01*
%TO.N,Net-(U10-IN2)*%
X58651000Y-85082333D02*
X58651000Y-86092936D01*
%TO.N,A3*%
X33951058Y-69333333D02*
X33900000Y-69333333D01*
D25*
%TO.N,Vin*%
X62500000Y-86633333D02*
X65000000Y-84133333D01*
D24*
%TO.N,GND*%
X60300000Y-78033333D02*
X62100000Y-76233333D01*
%TO.N,B2*%
X65203000Y-78630333D02*
X66448000Y-77385333D01*
D25*
%TO.N,Vin*%
X72240000Y-98633333D02*
X68800000Y-98633333D01*
D24*
%TO.N,+3.3V*%
X61660000Y-67173333D02*
X60902000Y-67931333D01*
%TO.N,B2*%
X58501000Y-83532333D02*
X63054593Y-78978740D01*
%TO.N,A2*%
X65246000Y-76787333D02*
X64608651Y-77424682D01*
%TO.N,Net-(U11-IN2)*%
X54888000Y-93745333D02*
X54136069Y-94497264D01*
%TO.N,B1*%
X61600000Y-91933333D02*
X43900000Y-91933333D01*
%TO.N,Net-(U9-IN2)*%
X63525000Y-74973333D02*
X62237000Y-74973333D01*
%TO.N,+3.3V*%
X69800000Y-68633333D02*
X69790000Y-68623333D01*
%TO.N,C1*%
X52141612Y-94802721D02*
X52141612Y-97433333D01*
%TO.N,A3*%
X61790000Y-68623333D02*
X61780000Y-68633333D01*
%TO.N,+3.3V*%
X70500000Y-68652572D02*
X70480761Y-68633333D01*
%TO.N,A2*%
X70697000Y-73160275D02*
X70697000Y-70830333D01*
%TO.N,B2*%
X67049000Y-73720291D02*
X67049000Y-73300233D01*
%TO.N,GND*%
X70500000Y-85033333D02*
X68500000Y-83033333D01*
%TO.N,Net-(U3-IN2)*%
X65847000Y-77036275D02*
X65847000Y-74072349D01*
%TO.N,B1*%
X71899000Y-84522275D02*
X70799000Y-83422275D01*
%TO.N,Net-(U10-IN2)*%
X63901000Y-79832333D02*
X58651000Y-85082333D01*
%TO.N,+3.3V*%
X70700000Y-95133333D02*
X70600000Y-95133333D01*
%TO.N,A2*%
X67500001Y-69893333D02*
X66399000Y-70994334D01*
%TO.N,A1*%
X54911619Y-89347617D02*
X49699067Y-89347617D01*
%TO.N,Net-(U3-IN2)*%
X66448000Y-73471349D02*
X66448000Y-73051291D01*
X67000000Y-72499291D02*
X67000000Y-72033333D01*
%TO.N,C2*%
X54674961Y-88734333D02*
X53442612Y-88734333D01*
%TO.N,+3.3V*%
X73200000Y-95133333D02*
X70700000Y-95133333D01*
%TO.N,C3*%
X63525000Y-73703333D02*
X61970000Y-73703333D01*
%TO.N,Net-(U3-IN2)*%
X67870000Y-71163333D02*
X68475000Y-71163333D01*
%TO.N,+3.3V*%
X66900000Y-97104333D02*
X66900000Y-89358334D01*
%TO.N,Net-(U3-IN2)*%
X65847000Y-74072349D02*
X66448000Y-73471349D01*
X66448000Y-73051291D02*
X67000000Y-72499291D01*
%TO.N,B3*%
X62070000Y-71163333D02*
X61302000Y-71931333D01*
%TO.N,Net-(U3-IN2)*%
X34136069Y-87609402D02*
X34136069Y-83897264D01*
X64857593Y-78025682D02*
X65847000Y-77036275D01*
%TO.N,A1*%
X63550000Y-88733333D02*
X62300000Y-88733333D01*
%TO.N,A2*%
X58101000Y-82232333D02*
X34951058Y-82232333D01*
%TO.N,Net-(U3-IN2)*%
X67000000Y-72033333D02*
X67870000Y-71163333D01*
%TO.N,+3.3V*%
X34452058Y-67931333D02*
X30237959Y-72145432D01*
%TO.N,Net-(U3-IN2)*%
X58349942Y-82833333D02*
X63157593Y-78025682D01*
%TO.N,A1*%
X71400000Y-81733333D02*
X69501000Y-79834333D01*
%TO.N,Net-(U3-IN2)*%
X34136069Y-83897264D02*
X35200000Y-82833333D01*
%TO.N,Net-(U11-IN2)*%
X63550000Y-95083333D02*
X62338000Y-95083333D01*
%TO.N,Net-(U3-IN2)*%
X34160000Y-87633333D02*
X34136069Y-87609402D01*
%TO.N,+3.3V*%
X31274675Y-89083333D02*
X34740058Y-89083333D01*
%TO.N,A2*%
X66399000Y-72234449D02*
X65818037Y-72815412D01*
%TO.N,C2*%
X70000000Y-79233333D02*
X67149942Y-79233333D01*
D25*
%TO.N,Vin*%
X65000000Y-84133333D02*
X65000000Y-83033333D01*
D24*
%TO.N,C2*%
X73200000Y-82433333D02*
X70697000Y-79930333D01*
%TO.N,+3.3V*%
X30144675Y-87953333D02*
X31274675Y-89083333D01*
%TO.N,Net-(U3-IN2)*%
X35200000Y-82833333D02*
X58349942Y-82833333D01*
%TO.N,Net-(U10-IN2)*%
X55675019Y-86884333D02*
X55126019Y-87433333D01*
%TO.N,Net-(U3-IN2)*%
X63157593Y-78025682D02*
X64857593Y-78025682D01*
%TO.N,Net-(U2-IN2)*%
X62269000Y-90002333D02*
X62269000Y-90003333D01*
%TO.N,Net-(U9-IN2)*%
X55100000Y-74036333D02*
X54136069Y-75000264D01*
%TO.N,C1*%
X65577000Y-92761332D02*
X64524999Y-93813333D01*
%TO.N,A2*%
X72320000Y-77353333D02*
X71899000Y-76932333D01*
%TO.N,Net-(U9-IN2)*%
X61300000Y-74036333D02*
X55100000Y-74036333D01*
%TO.N,C1*%
X65577000Y-85406275D02*
X65577000Y-92761332D01*
%TO.N,A2*%
X68475000Y-69893333D02*
X67500001Y-69893333D01*
%TO.N,+3.3V*%
X30237959Y-98046617D02*
X31284675Y-99093333D01*
%TO.N,Net-(U10-IN2)*%
X68475000Y-77058333D02*
X65701000Y-79832333D01*
%TO.N,B1*%
X70799000Y-83422275D02*
X70799000Y-81982275D01*
%TO.N,Net-(U4-IN2)*%
X34136069Y-69998264D02*
X34136069Y-77333333D01*
%TO.N,A2*%
X62908651Y-77424682D02*
X58101000Y-82232333D01*
%TO.N,B1*%
X42141612Y-93691721D02*
X42141612Y-97388333D01*
%TO.N,Net-(U7-IN2)*%
X67049000Y-77634275D02*
X67049000Y-74570233D01*
%TO.N,A1*%
X56123903Y-88135333D02*
X54911619Y-89347617D01*
%TO.N,B1*%
X73200000Y-87513333D02*
X71899000Y-86212333D01*
%TO.N,Net-(U4-IN2)*%
X61860000Y-69893333D02*
X61100000Y-69133333D01*
%TO.N,C3*%
X61598000Y-73335333D02*
X53900000Y-73335333D01*
%TO.N,B1*%
X67898000Y-80435333D02*
X66251000Y-82082333D01*
%TO.N,+3.3V*%
X40237959Y-98001617D02*
X40975675Y-98739333D01*
%TO.N,B1*%
X66251000Y-82082333D02*
X66251000Y-83882333D01*
X63550000Y-91273333D02*
X62260000Y-91273333D01*
X62260000Y-91273333D02*
X61600000Y-91933333D01*
%TO.N,+3.3V*%
X49248009Y-88046617D02*
X49034725Y-87833333D01*
%TO.N,Net-(U2-IN2)*%
X62269000Y-90003333D02*
X63550000Y-90003333D01*
%TO.N,C1*%
X71920000Y-90053333D02*
X71298000Y-89431333D01*
%TO.N,C2*%
X59252000Y-85331275D02*
X59252000Y-86341878D01*
%TO.N,C1*%
X69001058Y-81036333D02*
X68146942Y-81036333D01*
%TO.N,Net-(U4-IN2)*%
X61100000Y-69133333D02*
X35001000Y-69133333D01*
%TO.N,A1*%
X71400000Y-83173333D02*
X71400000Y-81733333D01*
%TO.N,B1*%
X64976000Y-90406433D02*
X64109100Y-91273333D01*
%TO.N,A2*%
X34951058Y-82232333D02*
X32100000Y-85083391D01*
%TO.N,A3*%
X61449942Y-68633333D02*
X61348942Y-68532333D01*
%TO.N,C1*%
X61700000Y-93144333D02*
X53800000Y-93144333D01*
%TO.N,+3.3V*%
X49350243Y-78934333D02*
X50237959Y-78046617D01*
%TO.N,Net-(U6-IN2)*%
X61700000Y-72632333D02*
X58173678Y-72632333D01*
%TO.N,B1*%
X66251000Y-83882333D02*
X64976000Y-85157333D01*
X43900000Y-91933333D02*
X42141612Y-93691721D01*
X69252058Y-80435333D02*
X67898000Y-80435333D01*
%TO.N,+3.3V*%
X39417590Y-78684333D02*
X40188787Y-77913136D01*
X60938892Y-99234333D02*
X51425675Y-99234333D01*
%TO.N,C1*%
X71298000Y-84771217D02*
X70198000Y-83671217D01*
X64524999Y-93813333D02*
X63550000Y-93813333D01*
%TO.N,Net-(U4-IN2)*%
X63525000Y-69893333D02*
X61860000Y-69893333D01*
%TO.N,B2*%
X71298000Y-77181275D02*
X71298000Y-74611217D01*
%TO.N,B1*%
X71899000Y-86212333D02*
X71899000Y-84522275D01*
X70799000Y-81982275D02*
X69252058Y-80435333D01*
X64976000Y-85157333D02*
X64976000Y-90406433D01*
%TO.N,+3.3V*%
X41209984Y-78934333D02*
X49350243Y-78934333D01*
%TO.N,C1*%
X66852000Y-82331275D02*
X66852000Y-84131275D01*
%TO.N,C3*%
X61970000Y-73703333D02*
X61600000Y-73333333D01*
%TO.N,B2*%
X42207026Y-87696214D02*
X42180089Y-87696214D01*
%TO.N,Net-(U2-IN2)*%
X34180000Y-97783333D02*
X34136069Y-97739402D01*
%TO.N,A1*%
X44830058Y-89703333D02*
X40054783Y-89703333D01*
%TO.N,Net-(U10-IN2)*%
X55126019Y-87433333D02*
X54136069Y-87433333D01*
%TO.N,GND*%
X66300000Y-94578332D02*
X66300000Y-86333333D01*
%TO.N,Net-(U10-IN2)*%
X57859603Y-86884333D02*
X55675019Y-86884333D01*
%TO.N,B2*%
X65154593Y-78626682D02*
X65158244Y-78630333D01*
%TO.N,+3.3V*%
X71229000Y-97104333D02*
X66900000Y-97104333D01*
%TO.N,A1*%
X59900000Y-88135333D02*
X56123903Y-88135333D01*
X36239000Y-88434333D02*
X32141612Y-92531721D01*
%TO.N,Net-(U6-IN2)*%
X58171678Y-72634333D02*
X45100000Y-72634333D01*
%TO.N,Net-(U7-IN2)*%
X65451942Y-79231333D02*
X67049000Y-77634275D01*
%TO.N,A1*%
X69501000Y-79834333D02*
X67398884Y-79834333D01*
%TO.N,A3*%
X72700000Y-66033333D02*
X64300000Y-66033333D01*
%TO.N,C1*%
X73200000Y-90053333D02*
X71920000Y-90053333D01*
%TO.N,B3*%
X73200000Y-69733333D02*
X73200000Y-67433333D01*
%TO.N,A2*%
X71899000Y-74362275D02*
X70697000Y-73160275D01*
%TO.N,+3.3V*%
X44581116Y-89102333D02*
X41299000Y-89102333D01*
X30171243Y-87953333D02*
X30030000Y-87953333D01*
%TO.N,Net-(U8-IN2)*%
X45232612Y-92543333D02*
X44136069Y-93639876D01*
%TO.N,A2*%
X71899000Y-76932333D02*
X71899000Y-74362275D01*
%TO.N,+3.3V*%
X49545243Y-98739333D02*
X50237959Y-98046617D01*
%TO.N,A1*%
X61702000Y-88135333D02*
X59900000Y-88135333D01*
X67398884Y-79834333D02*
X66198884Y-81034333D01*
%TO.N,Net-(U7-IN2)*%
X67049000Y-74570233D02*
X67396900Y-74222333D01*
%TO.N,A1*%
X62300000Y-88733333D02*
X61702000Y-88135333D01*
%TO.N,+3.3V*%
X73200000Y-95133333D02*
X71229000Y-97104333D01*
X30251243Y-88033333D02*
X30171243Y-87953333D01*
X67525001Y-88733333D02*
X68500000Y-88733333D01*
X30237959Y-98046617D02*
X30237959Y-77946617D01*
%TO.N,Net-(U6-IN2)*%
X58173678Y-72632333D02*
X58171678Y-72634333D01*
%TO.N,+3.3V*%
X41299000Y-89102333D02*
X40251243Y-88054576D01*
X39146243Y-99093333D02*
X40237959Y-98001617D01*
X69790000Y-68623333D02*
X68475000Y-68623333D01*
%TO.N,A1*%
X73200000Y-84973333D02*
X71400000Y-83173333D01*
X32141612Y-92531721D02*
X32141612Y-97433333D01*
%TO.N,+3.3V*%
X60902000Y-67931333D02*
X34452058Y-67931333D01*
X34740058Y-89083333D02*
X35990058Y-87833333D01*
%TO.N,C3*%
X65601000Y-70912274D02*
X65000000Y-71513274D01*
%TO.N,+3.3V*%
X40251243Y-88054576D02*
X40251243Y-88033333D01*
X39248009Y-88046617D02*
X40237959Y-88046617D01*
X63068892Y-97104333D02*
X60938892Y-99234333D01*
%TO.N,A1*%
X46099058Y-88434333D02*
X44830058Y-89703333D01*
%TO.N,+3.3V*%
X30975675Y-78684333D02*
X39417590Y-78684333D01*
%TO.N,A1*%
X59853000Y-85580217D02*
X59853000Y-88088333D01*
%TO.N,Net-(U9-IN2)*%
X62237000Y-74973333D02*
X61300000Y-74036333D01*
%TO.N,A1*%
X38785783Y-88434333D02*
X36239000Y-88434333D01*
%TO.N,+3.3V*%
X66900000Y-89358334D02*
X67525001Y-88733333D01*
X51425675Y-99234333D02*
X50237959Y-98046617D01*
%TO.N,A2*%
X32100000Y-85083391D02*
X32100000Y-87533333D01*
%TO.N,A1*%
X64398884Y-81034333D02*
X59853000Y-85580217D01*
%TO.N,+3.3V*%
X50237959Y-88046617D02*
X49248009Y-88046617D01*
%TO.N,A1*%
X49699067Y-89347617D02*
X48785783Y-88434333D01*
X66198884Y-81034333D02*
X64398884Y-81034333D01*
%TO.N,B3*%
X61302000Y-71931333D02*
X57883314Y-71931333D01*
%TO.N,+3.3V*%
X66900000Y-97104333D02*
X63068892Y-97104333D01*
X30030000Y-87953333D02*
X30144675Y-87953333D01*
%TO.N,A2*%
X64608651Y-77424682D02*
X62908651Y-77424682D01*
%TO.N,B2*%
X73200000Y-79893333D02*
X71300000Y-77993333D01*
%TO.N,+3.3V*%
X49034725Y-87833333D02*
X45850116Y-87833333D01*
%TO.N,C1*%
X70198000Y-83671217D02*
X70198000Y-82233275D01*
%TO.N,A1*%
X40054783Y-89703333D02*
X38785783Y-88434333D01*
X48785783Y-88434333D02*
X46099058Y-88434333D01*
%TO.N,+3.3V*%
X40251243Y-88033333D02*
X40237959Y-88046617D01*
%TO.N,C1*%
X53800000Y-93144333D02*
X52141612Y-94802721D01*
%TO.N,Net-(U7-IN2)*%
X44207192Y-87500525D02*
X44136069Y-87429402D01*
%TO.N,+3.3V*%
X30237959Y-72145432D02*
X30237959Y-77946617D01*
%TO.N,C3*%
X64951000Y-72836433D02*
X64603100Y-73184333D01*
%TO.N,Net-(U2-IN2)*%
X34136069Y-97739402D02*
X34136069Y-91407264D01*
%TO.N,GND*%
X66300000Y-86333333D02*
X68500000Y-84133333D01*
%TO.N,+3.3V*%
X70480761Y-68633333D02*
X69800000Y-68633333D01*
%TO.N,A2*%
X65818037Y-73251370D02*
X65246000Y-73823407D01*
%TO.N,+3.3V*%
X40188787Y-87997445D02*
X40237959Y-88046617D01*
%TO.N,A3*%
X64300000Y-66033333D02*
X63525000Y-66808333D01*
%TO.N,+3.3V*%
X40975675Y-98739333D02*
X49545243Y-98739333D01*
%TO.N,GND*%
X60400000Y-97933333D02*
X61980000Y-96353333D01*
%TO.N,C3*%
X64603100Y-73184333D02*
X64576050Y-73184333D01*
%TO.N,+3.3V*%
X31284675Y-99093333D02*
X39146243Y-99093333D01*
X62225000Y-67173333D02*
X61660000Y-67173333D01*
%TO.N,B3*%
X57883314Y-71931333D02*
X57881314Y-71933333D01*
%TO.N,+3.3V*%
X69474999Y-88733333D02*
X68500000Y-88733333D01*
X40188787Y-77913136D02*
X41209984Y-78934333D01*
%TO.N,C3*%
X71102000Y-67235333D02*
X65998000Y-67235333D01*
%TO.N,+3.3V*%
X45850116Y-87833333D02*
X44581116Y-89102333D01*
X39034725Y-87833333D02*
X39248009Y-88046617D01*
%TO.N,C1*%
X63550000Y-93813333D02*
X62369000Y-93813333D01*
%TO.N,+3.3V*%
X35990058Y-87833333D02*
X39034725Y-87833333D01*
%TO.N,B3*%
X57881314Y-71933333D02*
X43900000Y-71933333D01*
%TO.N,C1*%
X62369000Y-93813333D02*
X61700000Y-93144333D01*
%TO.N,+3.3V*%
X30237959Y-77946617D02*
X30975675Y-78684333D01*
%TO.N,A2*%
X65818037Y-72815412D02*
X65818037Y-73251370D01*
%TO.N,Net-(U2-IN2)*%
X46348000Y-89035333D02*
X48536841Y-89035333D01*
X36508000Y-89035333D02*
X38536841Y-89035333D01*
%TO.N,Net-(U8-IN2)*%
X44136069Y-93639876D02*
X44136069Y-97388333D01*
%TO.N,B2*%
X71298000Y-74611217D02*
X70096000Y-73409217D01*
%TO.N,Net-(U7-IN2)*%
X44207192Y-87582684D02*
X44207192Y-87500525D01*
%TO.N,Net-(U6-IN2)*%
X61899000Y-72433333D02*
X61700000Y-72632333D01*
%TO.N,A2*%
X70697000Y-70830333D02*
X69760000Y-69893333D01*
%TO.N,B2*%
X42180089Y-87696214D02*
X42141612Y-87657737D01*
%TO.N,Net-(U7-IN2)*%
X64905651Y-79227682D02*
X64909302Y-79231333D01*
%TO.N,Net-(U2-IN2)*%
X34136069Y-91407264D02*
X36508000Y-89035333D01*
%TO.N,GND*%
X62110000Y-76243333D02*
X63525000Y-76243333D01*
%TO.N,Net-(U6-IN2)*%
X44151505Y-73582828D02*
X44151505Y-77583333D01*
%TO.N,A2*%
X65246000Y-73823407D02*
X65246000Y-76787333D01*
%TO.N,C1*%
X70198000Y-82233275D02*
X69001058Y-81036333D01*
%TO.N,Net-(U7-IN2)*%
X67396900Y-74222333D02*
X67411000Y-74222333D01*
%TO.N,Net-(U8-IN2)*%
X63550000Y-92543333D02*
X45232612Y-92543333D01*
%TO.N,B3*%
X64951000Y-67432391D02*
X64951000Y-70712332D01*
%TO.N,Net-(U7-IN2)*%
X45200000Y-84133333D02*
X58749942Y-84133333D01*
%TO.N,C1*%
X68146942Y-81036333D02*
X66852000Y-82331275D01*
X66852000Y-84131275D02*
X65577000Y-85406275D01*
%TO.N,Net-(U6-IN2)*%
X45100000Y-72634333D02*
X44151505Y-73582828D01*
%TO.N,A2*%
X73200000Y-77353333D02*
X72320000Y-77353333D01*
%TO.N,Net-(U7-IN2)*%
X64909302Y-79231333D02*
X65451942Y-79231333D01*
%TO.N,A2*%
X66399000Y-70994334D02*
X66399000Y-72234449D01*
%TO.N,Net-(U7-IN2)*%
X58749942Y-84133333D02*
X63655593Y-79227682D01*
%TO.N,C1*%
X71298000Y-89431333D02*
X71298000Y-84771217D01*
%TO.N,Net-(U6-IN2)*%
X63525000Y-72433333D02*
X61899000Y-72433333D01*
%TO.N,Net-(U7-IN2)*%
X44136069Y-87429402D02*
X44136069Y-85197264D01*
X63655593Y-79227682D02*
X64905651Y-79227682D01*
%TO.N,C2*%
X58108545Y-87524788D02*
X58100000Y-87533333D01*
X70697000Y-79930333D02*
X70000000Y-79233333D01*
%TO.N,B2*%
X44801000Y-83532333D02*
X58501000Y-83532333D01*
%TO.N,C2*%
X70697000Y-75833333D02*
X69837000Y-74973333D01*
%TO.N,B2*%
X69600000Y-72433333D02*
X68475000Y-72433333D01*
%TO.N,C2*%
X55875961Y-87533333D02*
X54674961Y-88734333D01*
%TO.N,B2*%
X66448000Y-77385333D02*
X66448000Y-74321291D01*
X42141612Y-87657737D02*
X42141612Y-86191721D01*
%TO.N,Net-(U7-IN2)*%
X67411000Y-74222333D02*
X67930000Y-73703333D01*
X44136069Y-85197264D02*
X45200000Y-84133333D01*
%TO.N,B2*%
X70096000Y-73409217D02*
X70096000Y-72929333D01*
X63054593Y-78978740D02*
X63054593Y-78978624D01*
X70096000Y-72929333D02*
X69600000Y-72433333D01*
X63406535Y-78626682D02*
X65154593Y-78626682D01*
X71300000Y-77993333D02*
X71300000Y-77183275D01*
X71300000Y-77183275D02*
X71298000Y-77181275D01*
X42141612Y-86191721D02*
X44801000Y-83532333D01*
%TO.N,C2*%
X65949942Y-80433333D02*
X64149942Y-80433333D01*
%TO.N,Net-(U7-IN2)*%
X67930000Y-73703333D02*
X68475000Y-73703333D01*
%TO.N,B2*%
X67915900Y-72433333D02*
X68250000Y-72433333D01*
X65158244Y-78630333D02*
X65203000Y-78630333D01*
%TO.N,C2*%
X64149942Y-80433333D02*
X59252000Y-85331275D01*
X58100000Y-87533333D02*
X55875961Y-87533333D01*
%TO.N,GND*%
X63550000Y-96353333D02*
X64524999Y-96353333D01*
%TO.N,C2*%
X69837000Y-74973333D02*
X68475000Y-74973333D01*
X58108545Y-87485333D02*
X58108545Y-87524788D01*
%TO.N,B2*%
X67049000Y-73300233D02*
X67915900Y-72433333D01*
X63054593Y-78978624D02*
X63406535Y-78626682D01*
%TO.N,C2*%
X67149942Y-79233333D02*
X65949942Y-80433333D01*
X70697000Y-79930333D02*
X70697000Y-75833333D01*
%TO.N,B2*%
X66448000Y-74321291D02*
X67049000Y-73720291D01*
%TO.N,C2*%
X53442612Y-88734333D02*
X52141612Y-87433333D01*
%TO.N,A3*%
X63525000Y-66808333D02*
X63525000Y-68623333D01*
%TO.N,B3*%
X73200000Y-67433333D02*
X72401000Y-66634333D01*
%TO.N,A3*%
X74700000Y-70773333D02*
X74700000Y-68033333D01*
%TO.N,Net-(U10-IN2)*%
X58651000Y-86092936D02*
X57859603Y-86884333D01*
%TO.N,A3*%
X74700000Y-68033333D02*
X72700000Y-66033333D01*
%TO.N,C3*%
X71800000Y-67933333D02*
X71102000Y-67235333D01*
%TO.N,A3*%
X63525000Y-68623333D02*
X61790000Y-68623333D01*
%TO.N,Net-(U9-IN2)*%
X54136069Y-75000264D02*
X54136069Y-77433333D01*
%TO.N,Net-(U2-IN2)*%
X55160561Y-89948617D02*
X56372845Y-88736333D01*
%TO.N,B3*%
X64499999Y-71163333D02*
X63525000Y-71163333D01*
%TO.N,C3*%
X65000000Y-71513274D02*
X65000000Y-72760383D01*
%TO.N,Net-(U10-IN2)*%
X65701000Y-79832333D02*
X63901000Y-79832333D01*
%TO.N,B3*%
X63525000Y-71163333D02*
X62070000Y-71163333D01*
%TO.N,Net-(U2-IN2)*%
X49413284Y-89911776D02*
X49413284Y-89948617D01*
%TO.N,A3*%
X33900000Y-69333333D02*
X32141612Y-71091721D01*
X61780000Y-68633333D02*
X61449942Y-68633333D01*
%TO.N,Net-(U11-IN2)*%
X61000000Y-93745333D02*
X54888000Y-93745333D01*
%TO.N,B3*%
X64951000Y-70712332D02*
X64499999Y-71163333D01*
X43900000Y-71933333D02*
X42152159Y-73681174D01*
%TO.N,A3*%
X32141612Y-71091721D02*
X32141612Y-77333333D01*
X61348942Y-68532333D02*
X34752058Y-68532333D01*
X73200000Y-72273333D02*
X74700000Y-70773333D01*
X34752058Y-68532333D02*
X33951058Y-69333333D01*
%TO.N,B3*%
X72401000Y-66634333D02*
X65749058Y-66634333D01*
X42152159Y-73681174D02*
X42152159Y-77532107D01*
%TO.N,C3*%
X61600000Y-73333333D02*
X61598000Y-73335333D01*
X64576050Y-73184333D02*
X64057050Y-73703333D01*
X71800000Y-73413333D02*
X71800000Y-67933333D01*
%TO.N,Net-(U2-IN2)*%
X45080000Y-90303333D02*
X46348000Y-89035333D01*
%TO.N,C3*%
X64057050Y-73703333D02*
X63525000Y-73703333D01*
%TO.N,Net-(U11-IN2)*%
X54136069Y-94497264D02*
X54136069Y-97433333D01*
%TO.N,Net-(U2-IN2)*%
X38536841Y-89035333D02*
X39804841Y-90303333D01*
X49413284Y-89948617D02*
X55160561Y-89948617D01*
X61003000Y-88736333D02*
X62269000Y-90002333D01*
%TO.N,C3*%
X53900000Y-73335333D02*
X52141612Y-75093721D01*
%TO.N,Net-(U2-IN2)*%
X39804841Y-90303333D02*
X45080000Y-90303333D01*
%TO.N,Net-(U11-IN2)*%
X62338000Y-95083333D02*
X61000000Y-93745333D01*
%TO.N,C3*%
X65601000Y-67632333D02*
X65601000Y-70912274D01*
X65998000Y-67235333D02*
X65601000Y-67632333D01*
X65000000Y-72760383D02*
X64951000Y-72809383D01*
%TO.N,Net-(U2-IN2)*%
X56372845Y-88736333D02*
X61003000Y-88736333D01*
%TO.N,Net-(U10-IN2)*%
X68475000Y-76243333D02*
X68475000Y-77058333D01*
%TO.N,Net-(U2-IN2)*%
X48536841Y-89035333D02*
X49413284Y-89911776D01*
%TO.N,C3*%
X64951000Y-72809383D02*
X64951000Y-72836433D01*
X73200000Y-74813333D02*
X71800000Y-73413333D01*
X52141612Y-75093721D02*
X52141612Y-77433333D01*
%TO.N,GND*%
X64524999Y-96353333D02*
X66300000Y-94578332D01*
X62100000Y-76233333D02*
X62110000Y-76243333D01*
X70500000Y-91333333D02*
X70500000Y-85033333D01*
X68500000Y-84133333D02*
X68500000Y-83033333D01*
X71760000Y-92593333D02*
X70500000Y-91333333D01*
X73200000Y-92593333D02*
X71760000Y-92593333D01*
X45080000Y-124751666D02*
X43569999Y-126261667D01*
X43810000Y-116941667D02*
X43175000Y-116306667D01*
X48040657Y-127426010D02*
X48050000Y-127416667D01*
X60230314Y-131096981D02*
X60300000Y-131166667D01*
X38100000Y-112485353D02*
X38100000Y-112166667D01*
X33175000Y-116261667D02*
X32669000Y-115755667D01*
X33569999Y-136361667D02*
X33175000Y-136361667D01*
X58700000Y-119245981D02*
X58700000Y-118047981D01*
X55079000Y-123761981D02*
X55079000Y-122926981D01*
X53810000Y-138741667D02*
X53810000Y-136896667D01*
X35080000Y-132867981D02*
X38701000Y-129246981D01*
X48281314Y-122666667D02*
X48050000Y-122435353D01*
X38136787Y-120003454D02*
X38050000Y-119916667D01*
X35080000Y-114751666D02*
X33569999Y-116261667D01*
X53810000Y-118741667D02*
X53810000Y-116896667D01*
X38701000Y-124246981D02*
X38701000Y-123067667D01*
X58049000Y-127396981D02*
X58049000Y-124896981D01*
X45080000Y-122946667D02*
X45050000Y-122916667D01*
X36800000Y-121166667D02*
X38050000Y-119916667D01*
X55080000Y-123781667D02*
X55080000Y-124751666D01*
X48701000Y-128086353D02*
X48040657Y-127426010D01*
X38050000Y-116916667D02*
X38050000Y-114897981D01*
X43810000Y-138741667D02*
X43810000Y-136896667D01*
X35080000Y-134851666D02*
X33569999Y-136361667D01*
X60400000Y-131066667D02*
X60300000Y-131166667D01*
X53810000Y-116896667D02*
X53175000Y-116261667D01*
X38701000Y-113086353D02*
X38140657Y-112526010D01*
X55080000Y-113781667D02*
X55080000Y-114751666D01*
%TO.N,Net-(U2-IN2)*%
X34180000Y-111722736D02*
X33810000Y-112092736D01*
%TO.N,GND*%
X58700000Y-124245981D02*
X58700000Y-123047981D01*
X45080000Y-114796666D02*
X43569999Y-116306667D01*
X45080000Y-132867981D02*
X48701000Y-129246981D01*
X48165657Y-114782324D02*
X48701000Y-114246981D01*
X58039657Y-127406324D02*
X58049000Y-127396981D01*
X55049000Y-122878295D02*
X58539657Y-119387638D01*
X53569999Y-136261667D02*
X53175000Y-136261667D01*
%TO.N,Net-(U11-OUT2)*%
X57300000Y-116521667D02*
X57300000Y-113666667D01*
%TO.N,Net-(U11-OUT1)*%
X52800000Y-120266667D02*
X55700000Y-120266667D01*
%TO.N,Net-(U2-IN2)*%
X34180000Y-111416667D02*
X34180000Y-111722736D01*
%TO.N,Net-(U11-IN2)*%
X53810000Y-113781667D02*
X53810000Y-112092736D01*
%TO.N,Net-(U2-OUT1)*%
X32540000Y-120006667D02*
X32800000Y-120266667D01*
X35700000Y-120266667D02*
X37300000Y-118666667D01*
%TO.N,Net-(U10-IN2)*%
X53810000Y-123781667D02*
X53810000Y-122092736D01*
%TO.N,Net-(U2-IN2)*%
X33810000Y-112092736D02*
X33810000Y-113781667D01*
%TO.N,Net-(U2-OUT1)*%
X32540000Y-118741667D02*
X32540000Y-120006667D01*
%TO.N,C3*%
X52540000Y-132165055D02*
X52141612Y-131766667D01*
%TO.N,Net-(U2-OUT1)*%
X32800000Y-120266667D02*
X35700000Y-120266667D01*
%TO.N,Net-(U2-OUT2)*%
X37300000Y-116521667D02*
X37300000Y-113666667D01*
%TO.N,Net-(U11-IN2)*%
X53810000Y-112092736D02*
X54136069Y-111766667D01*
%TO.N,Net-(U11-OUT2)*%
X55080000Y-118741667D02*
X57300000Y-116521667D01*
%TO.N,Net-(U10-OUT2)*%
X55080000Y-128741667D02*
X57300000Y-126521667D01*
%TO.N,Net-(U10-IN2)*%
X53810000Y-122092736D02*
X54136069Y-121766667D01*
%TO.N,Net-(U11-OUT1)*%
X52800000Y-120266667D02*
X52540000Y-120006667D01*
X52540000Y-120006667D02*
X52540000Y-118741667D01*
X55700000Y-120266667D02*
X57300000Y-118666667D01*
%TO.N,C3*%
X52540000Y-133781667D02*
X52540000Y-132165055D01*
%TO.N,Net-(U2-OUT2)*%
X35080000Y-118741667D02*
X37300000Y-116521667D01*
%TO.N,Net-(U10-OUT2)*%
X57300000Y-126521667D02*
X57300000Y-123666667D01*
%TO.N,Net-(U8-IN2)*%
X43810000Y-113826667D02*
X43810000Y-112137736D01*
%TO.N,Net-(U9-OUT1)*%
X55700000Y-140266667D02*
X57300000Y-138666667D01*
X52540000Y-138741667D02*
X52540000Y-140006667D01*
%TO.N,C2*%
X52540000Y-123781667D02*
X52540000Y-122165055D01*
%TO.N,B3*%
X42540000Y-133781667D02*
X42540000Y-132055734D01*
%TO.N,Net-(U9-IN2)*%
X53810000Y-132092736D02*
X54136069Y-131766667D01*
%TO.N,C2*%
X52540000Y-122165055D02*
X52141612Y-121766667D01*
%TO.N,B3*%
X42540000Y-132055734D02*
X42152159Y-131667893D01*
%TO.N,Net-(U10-OUT1)*%
X52540000Y-130006667D02*
X52800000Y-130266667D01*
%TO.N,Net-(U8-IN2)*%
X43810000Y-112137736D02*
X44136069Y-111811667D01*
%TO.N,Net-(U9-OUT2)*%
X55080000Y-138741667D02*
X57300000Y-136521667D01*
%TO.N,Net-(U9-IN2)*%
X53810000Y-133781667D02*
X53810000Y-132092736D01*
%TO.N,Net-(U9-OUT2)*%
X57300000Y-136521667D02*
X57300000Y-133666667D01*
%TO.N,Net-(U10-OUT1)*%
X52800000Y-130266667D02*
X55700000Y-130266667D01*
%TO.N,Net-(U9-OUT1)*%
X52800000Y-140266667D02*
X55700000Y-140266667D01*
X52540000Y-140006667D02*
X52800000Y-140266667D01*
%TO.N,A3*%
X32540000Y-132265055D02*
X32141612Y-131866667D01*
%TO.N,Net-(U10-OUT1)*%
X55700000Y-130266667D02*
X57300000Y-128666667D01*
%TO.N,A3*%
X32540000Y-133881667D02*
X32540000Y-132265055D01*
%TO.N,Net-(U7-OUT2)*%
X47300000Y-126521667D02*
X47300000Y-123666667D01*
%TO.N,B2*%
X42212522Y-121509282D02*
X42212522Y-121837577D01*
%TO.N,Net-(U8-OUT2)*%
X47300000Y-116566667D02*
X47300000Y-113711667D01*
%TO.N,Net-(U8-OUT1)*%
X42540000Y-120051667D02*
X42800000Y-120311667D01*
%TO.N,Net-(U7-IN2)*%
X44207192Y-121617316D02*
X44207192Y-121695544D01*
%TO.N,B2*%
X42207026Y-121503786D02*
X42212522Y-121509282D01*
%TO.N,Net-(U8-OUT1)*%
X42800000Y-120311667D02*
X45700000Y-120311667D01*
%TO.N,Net-(U7-OUT2)*%
X45080000Y-128741667D02*
X47300000Y-126521667D01*
%TO.N,B2*%
X42540000Y-122165055D02*
X42540000Y-123781667D01*
%TO.N,Net-(U8-OUT2)*%
X45080000Y-118786667D02*
X47300000Y-116566667D01*
%TO.N,Net-(U10-OUT1)*%
X52540000Y-128741667D02*
X52540000Y-130006667D01*
%TO.N,B2*%
X42212522Y-121837577D02*
X42540000Y-122165055D01*
%TO.N,Net-(U8-OUT1)*%
X45700000Y-120311667D02*
X47300000Y-118711667D01*
%TO.N,Net-(U7-IN2)*%
X44207192Y-121695544D02*
X43810000Y-122092736D01*
X43810000Y-122092736D02*
X43810000Y-123781667D01*
%TO.N,Net-(U8-OUT1)*%
X42540000Y-118786667D02*
X42540000Y-120051667D01*
%TO.N,+3.3V*%
X41270000Y-123781667D02*
X40237959Y-122749626D01*
%TO.N,GND*%
X43810000Y-126896667D02*
X43175000Y-126261667D01*
D25*
%TO.N,Vin*%
X51270000Y-138741667D02*
X51270000Y-139446667D01*
D24*
%TO.N,GND*%
X53810000Y-126896667D02*
X53175000Y-126261667D01*
X48701000Y-114246981D02*
X48701000Y-113067667D01*
X38001000Y-124946981D02*
X38701000Y-124246981D01*
X35080000Y-133881667D02*
X35080000Y-134851666D01*
X58700000Y-128066667D02*
X58039657Y-127406324D01*
X33175000Y-136361667D02*
X32669000Y-135855667D01*
X35080000Y-123781667D02*
X35080000Y-124751666D01*
X38050000Y-114897981D02*
X38540657Y-114407324D01*
X48701000Y-124265667D02*
X48701000Y-123067667D01*
X32669000Y-125755667D02*
X29800000Y-125755667D01*
X53175000Y-116261667D02*
X52669000Y-115755667D01*
X33569999Y-116261667D02*
X33175000Y-116261667D01*
X35080000Y-122886667D02*
X36800000Y-121166667D01*
X53569999Y-126261667D02*
X53175000Y-126261667D01*
X43175000Y-136261667D02*
X42761500Y-135848167D01*
X45080000Y-134751666D02*
X43569999Y-136261667D01*
X43569999Y-136261667D02*
X43175000Y-136261667D01*
X35080000Y-124751666D02*
X33569999Y-126261667D01*
X58700000Y-114227295D02*
X58700000Y-113047981D01*
X45080000Y-123781667D02*
X45080000Y-124751666D01*
X33569999Y-126261667D02*
X33175000Y-126261667D01*
X53810000Y-136896667D02*
X53175000Y-136261667D01*
%TO.N,+3.3V*%
X40237959Y-112794626D02*
X40237959Y-111198383D01*
X51270000Y-123781667D02*
X50237959Y-122749626D01*
X30237959Y-122749626D02*
X31270000Y-123781667D01*
X69020761Y-142026667D02*
X70500000Y-140547428D01*
%TO.N,Net-(U3-OUT1)*%
X32540000Y-130006667D02*
X32800000Y-130266667D01*
%TO.N,+3.3V*%
X30030000Y-121246667D02*
X30237959Y-121454626D01*
X51270000Y-113781667D02*
X50237959Y-112749626D01*
%TO.N,GND*%
X48701000Y-129246981D02*
X48701000Y-128086353D01*
%TO.N,+3.3V*%
X31270000Y-133881667D02*
X30237959Y-132849626D01*
X31270000Y-113781667D02*
X30237959Y-112749626D01*
X70700000Y-114066667D02*
X70500000Y-114266667D01*
X30237959Y-132849626D02*
X30237959Y-131253383D01*
X51270000Y-133781667D02*
X50237959Y-132749626D01*
X50237959Y-112749626D02*
X50237959Y-111153383D01*
X62225000Y-142026667D02*
X69020761Y-142026667D01*
X50237959Y-132749626D02*
X50237959Y-131153383D01*
X30237959Y-112749626D02*
X30237959Y-111153383D01*
X40188787Y-132700454D02*
X40188787Y-131286864D01*
X41270000Y-133781667D02*
X40188787Y-132700454D01*
X30237959Y-121454626D02*
X30237959Y-122749626D01*
X40237959Y-122749626D02*
X40237959Y-121153383D01*
%TO.N,Net-(U3-OUT1)*%
X35700000Y-130266667D02*
X37300000Y-128666667D01*
%TO.N,+3.3V*%
X70500000Y-114266667D02*
X70500000Y-140547428D01*
X41270000Y-113826667D02*
X40237959Y-112794626D01*
%TO.N,Net-(U3-OUT1)*%
X32540000Y-128741667D02*
X32540000Y-130006667D01*
%TO.N,GND*%
X38701000Y-118067667D02*
X38050000Y-117416667D01*
X56830314Y-131096981D02*
X60230314Y-131096981D01*
X43810000Y-136896667D02*
X43175000Y-136261667D01*
X55079000Y-113806981D02*
X56739000Y-112146981D01*
X48050000Y-119916667D02*
X48701000Y-119265667D01*
%TO.N,A1*%
X32540000Y-113781667D02*
X32540000Y-112165055D01*
%TO.N,GND*%
X45080000Y-113826667D02*
X46740000Y-112166667D01*
X33810000Y-138841667D02*
X33810000Y-136996667D01*
X55080000Y-114751666D02*
X53569999Y-116261667D01*
X48050000Y-110666667D02*
X48050000Y-112166667D01*
X38100000Y-110366667D02*
X38619284Y-109847383D01*
X46740000Y-112166667D02*
X48050000Y-112166667D01*
X53810000Y-128741667D02*
X53810000Y-126896667D01*
X43569999Y-116306667D02*
X43175000Y-116306667D01*
X33810000Y-116896667D02*
X33175000Y-116261667D01*
X58049000Y-117396981D02*
X58049000Y-114878295D01*
X43175000Y-126261667D02*
X42669000Y-125755667D01*
%TO.N,Net-(U3-OUT1)*%
X32800000Y-130266667D02*
X35700000Y-130266667D01*
%TO.N,GND*%
X32669000Y-135855667D02*
X29800000Y-135855667D01*
X43810000Y-128741667D02*
X43810000Y-126896667D01*
X33810000Y-136996667D02*
X33175000Y-136361667D01*
X45080000Y-123781667D02*
X45080000Y-122946667D01*
X55080000Y-124751666D02*
X53569999Y-126261667D01*
%TO.N,A1*%
X32540000Y-112165055D02*
X32141612Y-111766667D01*
%TO.N,GND*%
X48300000Y-122666667D02*
X48281314Y-122666667D01*
X58049000Y-112146981D02*
X58049000Y-110417667D01*
X38050000Y-119916667D02*
X38701000Y-119265667D01*
X58700000Y-123047981D02*
X58299000Y-122646981D01*
X45050000Y-122916667D02*
X45050000Y-122897981D01*
X55079000Y-133761981D02*
X55079000Y-132848295D01*
D25*
%TO.N,Vin*%
X28500000Y-126866667D02*
X29800000Y-128166667D01*
D24*
%TO.N,GND*%
X38136787Y-122503454D02*
X38136787Y-120003454D01*
X38701000Y-123067667D02*
X38136787Y-122503454D01*
D25*
%TO.N,Vin*%
X28500000Y-125166667D02*
X28500000Y-126866667D01*
D24*
%TO.N,GND*%
X57433716Y-109802383D02*
X48914284Y-109802383D01*
X48050000Y-124916667D02*
X48701000Y-124265667D01*
X58049000Y-112146981D02*
X59519686Y-112146981D01*
X55080000Y-134751666D02*
X53569999Y-136261667D01*
X43175000Y-116306667D02*
X42669000Y-115800667D01*
X58049000Y-119896981D02*
X58700000Y-119245981D01*
X58049000Y-124896981D02*
X58700000Y-124245981D01*
X60400000Y-111266667D02*
X60400000Y-131066667D01*
X38701000Y-128086353D02*
X38001000Y-127386353D01*
X48050000Y-122435353D02*
X48050000Y-119916667D01*
X59519686Y-112146981D02*
X60400000Y-111266667D01*
X45080000Y-133781667D02*
X45080000Y-134751666D01*
X35080000Y-133881667D02*
X35080000Y-132867981D01*
X38050000Y-117416667D02*
X38050000Y-116916667D01*
X58049000Y-112396981D02*
X58049000Y-112146981D01*
X55079000Y-132848295D02*
X56830314Y-131096981D01*
X48701000Y-113067667D02*
X48550000Y-112916667D01*
X58280314Y-122646981D02*
X58049000Y-122415667D01*
X48050000Y-127416667D02*
X48050000Y-124916667D01*
%TO.N,Net-(U4-OUT1)*%
X32800000Y-140366667D02*
X35700000Y-140366667D01*
%TO.N,GND*%
X48701000Y-118067667D02*
X48050000Y-117416667D01*
X38140657Y-112526010D02*
X38100000Y-112485353D01*
%TO.N,Net-(U3-OUT2)*%
X35080000Y-128741667D02*
X35300000Y-128741667D01*
%TO.N,GND*%
X33810000Y-126896667D02*
X33175000Y-126261667D01*
X58700000Y-129227295D02*
X58700000Y-128066667D01*
X48050000Y-110416667D02*
X48050000Y-110666667D01*
X58049000Y-122415667D02*
X58049000Y-119896981D01*
X48914284Y-109802383D02*
X48050000Y-110666667D01*
%TO.N,Net-(U4-OUT2)*%
X35080000Y-138841667D02*
X37300000Y-136621667D01*
%TO.N,GND*%
X35080000Y-113781667D02*
X36695000Y-112166667D01*
X45050000Y-122897981D02*
X48540657Y-119407324D01*
X38701000Y-119265667D02*
X38701000Y-118067667D01*
X58700000Y-113047981D02*
X58049000Y-112396981D01*
X48050000Y-117416667D02*
X48050000Y-115166667D01*
X45080000Y-113826667D02*
X45080000Y-114796666D01*
X58049000Y-114878295D02*
X58700000Y-114227295D01*
X53569999Y-116261667D02*
X53175000Y-116261667D01*
X48701000Y-119265667D02*
X48701000Y-118067667D01*
X48550000Y-112916667D02*
X48050000Y-112416667D01*
%TO.N,Net-(U4-IN2)*%
X33810000Y-132192736D02*
X34136069Y-131866667D01*
D25*
%TO.N,Vin*%
X29536959Y-122803626D02*
X29536959Y-124166667D01*
D24*
%TO.N,GND*%
X48050000Y-114897981D02*
X48165657Y-114782324D01*
X56830314Y-131096981D02*
X58700000Y-129227295D01*
X47480716Y-109847383D02*
X48050000Y-110416667D01*
X38540657Y-114407324D02*
X38701000Y-114246981D01*
X35080000Y-113781667D02*
X35080000Y-114751666D01*
X48050000Y-115166667D02*
X48050000Y-114897981D01*
X43569999Y-126261667D02*
X43175000Y-126261667D01*
X36695000Y-112166667D02*
X38100000Y-112166667D01*
X53175000Y-126261667D02*
X52669000Y-125755667D01*
X58299000Y-122646981D02*
X58280314Y-122646981D01*
X48050000Y-112416667D02*
X48050000Y-112166667D01*
D25*
%TO.N,Vin*%
X67900000Y-111466667D02*
X67900000Y-115466667D01*
X39902500Y-118314167D02*
X39800000Y-118211667D01*
X49800000Y-140916667D02*
X49875000Y-140841667D01*
X30375000Y-128741667D02*
X29800000Y-128166667D01*
X42759636Y-141117667D02*
X45840364Y-141117667D01*
X45840364Y-141117667D02*
X46041364Y-140916667D01*
D24*
%TO.N,Net-(U4-OUT2)*%
X37300000Y-136621667D02*
X37300000Y-133766667D01*
%TO.N,Net-(U4-OUT1)*%
X32540000Y-140106667D02*
X32800000Y-140366667D01*
%TO.N,Net-(U3-OUT2)*%
X35300000Y-128741667D02*
X37300000Y-126741667D01*
D25*
%TO.N,Vin*%
X39800000Y-118211667D02*
X39800000Y-116622667D01*
X41270000Y-138741667D02*
X41270000Y-139628031D01*
X50375000Y-118741667D02*
X49800000Y-118166667D01*
X46041364Y-140916667D02*
X49800000Y-140916667D01*
X67900000Y-115466667D02*
X62500000Y-120866667D01*
X50300000Y-141266667D02*
X56681314Y-141266667D01*
D24*
%TO.N,Net-(U3-IN2)*%
X34160000Y-121742736D02*
X33810000Y-122092736D01*
D25*
%TO.N,Vin*%
X62500000Y-135447981D02*
X62500000Y-127466667D01*
X41270000Y-118786667D02*
X40375000Y-118786667D01*
X62500000Y-127466667D02*
X62500000Y-122566667D01*
X49875000Y-140841667D02*
X50300000Y-141266667D01*
X30375000Y-118741667D02*
X29800000Y-118166667D01*
X49800000Y-118166667D02*
X49800000Y-116577667D01*
D24*
%TO.N,Net-(U4-OUT1)*%
X32540000Y-138841667D02*
X32540000Y-140106667D01*
D25*
%TO.N,Vin*%
X56681314Y-141266667D02*
X62500000Y-135447981D01*
D24*
%TO.N,Net-(U4-IN2)*%
X33810000Y-133881667D02*
X33810000Y-132192736D01*
%TO.N,Net-(U3-IN2)*%
X34160000Y-121566667D02*
X34160000Y-121742736D01*
%TO.N,B1*%
X42540000Y-113826667D02*
X42540000Y-112210055D01*
D25*
%TO.N,Vin*%
X41270000Y-139628031D02*
X42759636Y-141117667D01*
D24*
%TO.N,Net-(U3-OUT2)*%
X37300000Y-126741667D02*
X37300000Y-123666667D01*
%TO.N,Net-(U4-OUT1)*%
X35700000Y-140366667D02*
X37300000Y-138766667D01*
D25*
%TO.N,Vin*%
X68800000Y-110566667D02*
X67900000Y-111466667D01*
D24*
%TO.N,B1*%
X42540000Y-112210055D02*
X42141612Y-111811667D01*
D25*
%TO.N,Vin*%
X31270000Y-128741667D02*
X30375000Y-128741667D01*
D24*
%TO.N,GND*%
X38701000Y-114246981D02*
X38701000Y-113086353D01*
D25*
%TO.N,Vin*%
X48886959Y-120593780D02*
X48886959Y-121712986D01*
X31270000Y-118741667D02*
X30375000Y-118741667D01*
D24*
%TO.N,GND*%
X38701000Y-129246981D02*
X38701000Y-128086353D01*
X45080000Y-133781667D02*
X45080000Y-132867981D01*
%TO.N,Net-(U3-IN2)*%
X33810000Y-122092736D02*
X33810000Y-123781667D01*
D25*
%TO.N,Vin*%
X51270000Y-118741667D02*
X50375000Y-118741667D01*
D24*
%TO.N,GND*%
X58700000Y-118047981D02*
X58049000Y-117396981D01*
X53175000Y-136261667D02*
X52669000Y-135755667D01*
X33810000Y-118741667D02*
X33810000Y-116896667D01*
X32669000Y-115755667D02*
X29800000Y-115755667D01*
X43810000Y-118786667D02*
X43810000Y-116941667D01*
D25*
%TO.N,Vin*%
X49536959Y-122362986D02*
X49536959Y-124329708D01*
D24*
%TO.N,GND*%
X38001000Y-127386353D02*
X38001000Y-124946981D01*
D25*
%TO.N,Vin*%
X41270000Y-128741667D02*
X40375000Y-128741667D01*
X40375000Y-118786667D02*
X39902500Y-118314167D01*
D24*
%TO.N,GND*%
X48701000Y-123067667D02*
X48300000Y-122666667D01*
%TO.N,+3.3V*%
X50237959Y-122749626D02*
X50237959Y-121153383D01*
D25*
%TO.N,Vin*%
X40375000Y-128741667D02*
X40050000Y-128416667D01*
D24*
%TO.N,GND*%
X38100000Y-112166667D02*
X38100000Y-110366667D01*
X33175000Y-126261667D02*
X32669000Y-125755667D01*
D25*
%TO.N,Vin*%
X62500000Y-120866667D02*
X62500000Y-122566667D01*
D24*
%TO.N,GND*%
X35080000Y-123781667D02*
X35080000Y-122886667D01*
X56739000Y-112146981D02*
X58049000Y-112146981D01*
X38619284Y-109847383D02*
X47480716Y-109847383D01*
X58049000Y-110417667D02*
X57433716Y-109802383D01*
X55080000Y-133781667D02*
X55080000Y-134751666D01*
X33810000Y-128741667D02*
X33810000Y-126896667D01*
D25*
%TO.N,Vin*%
X29800000Y-119376667D02*
X28680000Y-120496667D01*
X28680000Y-121946667D02*
X29536959Y-122803626D01*
X29800000Y-118166667D02*
X29800000Y-119376667D01*
X29500000Y-124166667D02*
X28500000Y-125166667D01*
X38837787Y-130727261D02*
X38837787Y-131846467D01*
X38600000Y-135241667D02*
X38600000Y-137366667D01*
X49352000Y-127816699D02*
X49352000Y-127818667D01*
X49352000Y-124535321D02*
X48701000Y-125186321D01*
X49536959Y-124329708D02*
X49352000Y-124514667D01*
X39800000Y-128166667D02*
X39800000Y-129765048D01*
X50275000Y-128741667D02*
X51270000Y-128741667D01*
X49352000Y-127818667D02*
X50275000Y-128741667D01*
X29536959Y-124166667D02*
X29500000Y-124166667D01*
X49800000Y-118166667D02*
X49800000Y-119680739D01*
X49800000Y-119680739D02*
X48886959Y-120593780D01*
X28680000Y-120496667D02*
X28680000Y-121946667D01*
X49352000Y-124514667D02*
X49352000Y-124535321D01*
X40050000Y-128416667D02*
X39800000Y-128166667D01*
X39800000Y-129765048D02*
X38837787Y-130727261D01*
X48701000Y-125186321D02*
X48701000Y-127165699D01*
X48886959Y-121712986D02*
X49536959Y-122362986D01*
X48701000Y-127165699D02*
X49352000Y-127816699D01*
D24*
%TO.N,Net-(U6-IN2)*%
X43810000Y-131958172D02*
X43810000Y-133781667D01*
%TO.N,Net-(U6-OUT1)*%
X45550000Y-140416667D02*
X47300000Y-138666667D01*
X43050000Y-140416667D02*
X45550000Y-140416667D01*
%TO.N,Net-(U7-OUT1)*%
X42540000Y-128741667D02*
X42540000Y-130006667D01*
X42540000Y-130006667D02*
X42800000Y-130266667D01*
%TO.N,A2*%
X32540000Y-122106667D02*
X32100000Y-121666667D01*
%TO.N,C1*%
X52540000Y-112165055D02*
X52141612Y-111766667D01*
%TO.N,Net-(U6-OUT1)*%
X42540000Y-138741667D02*
X42540000Y-139906667D01*
%TO.N,Net-(U7-OUT1)*%
X42800000Y-130266667D02*
X45700000Y-130266667D01*
%TO.N,Net-(U6-OUT1)*%
X42540000Y-139906667D02*
X43050000Y-140416667D01*
%TO.N,Net-(U7-OUT1)*%
X45700000Y-130266667D02*
X47300000Y-128666667D01*
%TO.N,C1*%
X52540000Y-113781667D02*
X52540000Y-112165055D01*
%TO.N,Net-(U6-OUT2)*%
X47300000Y-136521667D02*
X47300000Y-133666667D01*
%TO.N,Net-(U6-IN2)*%
X44151505Y-131616667D02*
X43810000Y-131958172D01*
%TO.N,A2*%
X32540000Y-123781667D02*
X32540000Y-122106667D01*
%TO.N,Net-(U6-OUT2)*%
X45080000Y-138741667D02*
X47300000Y-136521667D01*
D25*
%TO.N,Vin*%
X29536959Y-134154708D02*
X28700000Y-134991667D01*
D26*
%TO.N,GND*%
X42772500Y-125866667D02*
X43165000Y-126259167D01*
D25*
%TO.N,Vin*%
X38600000Y-137366667D02*
X39975000Y-138741667D01*
X67300000Y-109066667D02*
X30414072Y-109066667D01*
X39536959Y-124329708D02*
X38652000Y-125214667D01*
X38652000Y-127116699D02*
X39352000Y-127816699D01*
X29800000Y-116577667D02*
X29800000Y-118166667D01*
X39487787Y-134353880D02*
X38600000Y-135241667D01*
X28886959Y-130693780D02*
X28886959Y-131812986D01*
X28700000Y-134991667D02*
X28700000Y-137166667D01*
X28886959Y-131812986D02*
X29536959Y-132462986D01*
X31270000Y-139886667D02*
X32550000Y-141166667D01*
X30375000Y-138841667D02*
X31270000Y-138841667D01*
X39800000Y-141166667D02*
X41270000Y-139696667D01*
D26*
%TO.N,GND*%
X52210000Y-115304167D02*
X53165000Y-116259167D01*
D25*
%TO.N,Vin*%
X32550000Y-141166667D02*
X39800000Y-141166667D01*
X38652000Y-125214667D02*
X38652000Y-127116699D01*
X39902500Y-118314167D02*
X39800000Y-118416667D01*
X48886959Y-130593780D02*
X48886959Y-131712986D01*
X50075000Y-138741667D02*
X51270000Y-138741667D01*
X29536959Y-132462986D02*
X29536959Y-134154708D01*
X41270000Y-139696667D02*
X41270000Y-138741667D01*
X39450032Y-127816699D02*
X40050000Y-128416667D01*
X28600000Y-110880739D02*
X28600000Y-115729381D01*
X39352000Y-127816699D02*
X39450032Y-127816699D01*
%TO.N,GND*%
X39700000Y-136204167D02*
X43110000Y-136204167D01*
X49700000Y-135866667D02*
X52772500Y-135866667D01*
X49700000Y-125866667D02*
X52772500Y-125866667D01*
%TO.N,Vin*%
X49462500Y-134491667D02*
X48700000Y-135254167D01*
D26*
%TO.N,GND*%
X52772500Y-125866667D02*
X53165000Y-126259167D01*
D25*
%TO.N,Vin*%
X48700000Y-135254167D02*
X48700000Y-137366667D01*
X38886959Y-121712986D02*
X39536959Y-122362986D01*
X38886959Y-120593780D02*
X38886959Y-121712986D01*
X49462500Y-132288527D02*
X49462500Y-134491667D01*
X49700000Y-129780739D02*
X48886959Y-130593780D01*
X49320320Y-132146347D02*
X49462500Y-132288527D01*
X49700000Y-127591667D02*
X49700000Y-129780739D01*
X51270000Y-139446667D02*
X49875000Y-140841667D01*
X39800000Y-118416667D02*
X39800000Y-119680739D01*
D26*
%TO.N,GND*%
X52772500Y-135866667D02*
X53165000Y-136259167D01*
X43110000Y-136204167D02*
X43165000Y-136259167D01*
D25*
X49800000Y-115304167D02*
X52210000Y-115304167D01*
%TO.N,Vin*%
X39800000Y-119680739D02*
X38886959Y-120593780D01*
D26*
%TO.N,GND*%
X42210000Y-115349167D02*
X43165000Y-116304167D01*
D25*
%TO.N,Vin*%
X68800000Y-110566667D02*
X67300000Y-109066667D01*
%TO.N,GND*%
X39800000Y-115349167D02*
X42210000Y-115349167D01*
%TO.N,Vin*%
X49320320Y-132146347D02*
X49536959Y-132362986D01*
X48700000Y-137366667D02*
X50075000Y-138741667D01*
X28600000Y-115729381D02*
X29448286Y-116577667D01*
%TO.N,GND*%
X39700000Y-125866667D02*
X42772500Y-125866667D01*
%TO.N,Vin*%
X29448286Y-116577667D02*
X29800000Y-116577667D01*
X31270000Y-138841667D02*
X31270000Y-139886667D01*
X48886959Y-131712986D02*
X49320320Y-132146347D01*
X29800000Y-128166667D02*
X29800000Y-129780739D01*
X29800000Y-129780739D02*
X28886959Y-130693780D01*
X39536959Y-122362986D02*
X39536959Y-124329708D01*
X30414072Y-109066667D02*
X28600000Y-110880739D01*
X38837787Y-131846467D02*
X39487787Y-132496467D01*
X39975000Y-138741667D02*
X41270000Y-138741667D01*
X39487787Y-132496467D02*
X39487787Y-134353880D01*
X28700000Y-137166667D02*
X30375000Y-138841667D01*
D24*
%TO.N,GND*%
X70500000Y-170500000D02*
X68500000Y-168500000D01*
X62110000Y-161710000D02*
X63525000Y-161710000D01*
X66300000Y-171800000D02*
X68500000Y-169600000D01*
X60300000Y-163500000D02*
X62100000Y-161700000D01*
X66300000Y-180044999D02*
X66300000Y-171800000D01*
X61980000Y-181820000D02*
X63550000Y-181820000D01*
X73200000Y-178060000D02*
X71760000Y-178060000D01*
X71760000Y-178060000D02*
X70500000Y-176800000D01*
X68500000Y-169600000D02*
X68500000Y-168500000D01*
X70500000Y-176800000D02*
X70500000Y-170500000D01*
X63550000Y-181820000D02*
X64524999Y-181820000D01*
X62100000Y-161700000D02*
X62110000Y-161710000D01*
X64524999Y-181820000D02*
X66300000Y-180044999D01*
X60400000Y-183400000D02*
X61980000Y-181820000D01*
%TO.N,Net-(U2-IN2)*%
X46348000Y-174502000D02*
X48536841Y-174502000D01*
%TO.N,C3*%
X52141612Y-160560388D02*
X52141612Y-162900000D01*
X73200000Y-160280000D02*
X71800000Y-158880000D01*
%TO.N,Net-(U11-IN2)*%
X61000000Y-179212000D02*
X54888000Y-179212000D01*
%TO.N,C3*%
X65601000Y-156378941D02*
X65000000Y-156979941D01*
%TO.N,Net-(U11-IN2)*%
X63550000Y-180550000D02*
X62338000Y-180550000D01*
%TO.N,C3*%
X61970000Y-159170000D02*
X61600000Y-158800000D01*
X64951000Y-158276050D02*
X64951000Y-158303100D01*
%TO.N,Net-(U2-IN2)*%
X62269000Y-175469000D02*
X62269000Y-175470000D01*
X48536841Y-174502000D02*
X49413284Y-175378443D01*
%TO.N,C3*%
X64603100Y-158651000D02*
X64576050Y-158651000D01*
%TO.N,Net-(U2-IN2)*%
X49413284Y-175378443D02*
X49413284Y-175415284D01*
X34180000Y-183250000D02*
X34136069Y-183206069D01*
X36508000Y-174502000D02*
X38536841Y-174502000D01*
%TO.N,C3*%
X65000000Y-156979941D02*
X65000000Y-158227050D01*
%TO.N,Net-(U10-IN2)*%
X68475000Y-161710000D02*
X68475000Y-162525000D01*
%TO.N,Net-(U2-IN2)*%
X34136069Y-176873931D02*
X36508000Y-174502000D01*
%TO.N,C3*%
X61598000Y-158802000D02*
X53900000Y-158802000D01*
%TO.N,Net-(U2-IN2)*%
X55160561Y-175415284D02*
X56372845Y-174203000D01*
X56372845Y-174203000D02*
X61003000Y-174203000D01*
%TO.N,C3*%
X71800000Y-153400000D02*
X71102000Y-152702000D01*
X65000000Y-158227050D02*
X64951000Y-158276050D01*
X63525000Y-159170000D02*
X61970000Y-159170000D01*
X65998000Y-152702000D02*
X65601000Y-153099000D01*
X71102000Y-152702000D02*
X65998000Y-152702000D01*
X65601000Y-153099000D02*
X65601000Y-156378941D01*
X64951000Y-158303100D02*
X64603100Y-158651000D01*
%TO.N,Net-(U11-IN2)*%
X62338000Y-180550000D02*
X61000000Y-179212000D01*
%TO.N,Net-(U10-IN2)*%
X55126019Y-172900000D02*
X54136069Y-172900000D01*
%TO.N,Net-(U2-IN2)*%
X39804841Y-175770000D02*
X45080000Y-175770000D01*
%TO.N,Net-(U11-IN2)*%
X54888000Y-179212000D02*
X54136069Y-179963931D01*
%TO.N,C3*%
X53900000Y-158802000D02*
X52141612Y-160560388D01*
%TO.N,Net-(U2-IN2)*%
X61003000Y-174203000D02*
X62269000Y-175469000D01*
X49413284Y-175415284D02*
X55160561Y-175415284D01*
X38536841Y-174502000D02*
X39804841Y-175770000D01*
%TO.N,Net-(U11-IN2)*%
X54136069Y-179963931D02*
X54136069Y-182900000D01*
%TO.N,C3*%
X64057050Y-159170000D02*
X63525000Y-159170000D01*
%TO.N,Net-(U2-IN2)*%
X45080000Y-175770000D02*
X46348000Y-174502000D01*
X62269000Y-175470000D02*
X63550000Y-175470000D01*
%TO.N,C3*%
X71800000Y-158880000D02*
X71800000Y-153400000D01*
%TO.N,Net-(U2-IN2)*%
X34136069Y-183206069D02*
X34136069Y-176873931D01*
%TO.N,C3*%
X64576050Y-158651000D02*
X64057050Y-159170000D01*
X61600000Y-158800000D02*
X61598000Y-158802000D01*
%TO.N,B3*%
X42152159Y-159147841D02*
X42152159Y-162998774D01*
%TO.N,Net-(U9-IN2)*%
X55100000Y-159503000D02*
X54136069Y-160466931D01*
%TO.N,B3*%
X72401000Y-152101000D02*
X65749058Y-152101000D01*
X65749058Y-152101000D02*
X64951000Y-152899058D01*
%TO.N,A3*%
X34752058Y-153999000D02*
X33951058Y-154800000D01*
%TO.N,Net-(U8-IN2)*%
X45232612Y-178010000D02*
X44136069Y-179106543D01*
%TO.N,B3*%
X73200000Y-155200000D02*
X73200000Y-152900000D01*
%TO.N,A3*%
X73200000Y-157740000D02*
X74700000Y-156240000D01*
X61348942Y-153999000D02*
X34752058Y-153999000D01*
%TO.N,Net-(U9-IN2)*%
X63525000Y-160440000D02*
X62237000Y-160440000D01*
X62237000Y-160440000D02*
X61300000Y-159503000D01*
%TO.N,A3*%
X32141612Y-156558388D02*
X32141612Y-162800000D01*
%TO.N,B3*%
X64951000Y-152899058D02*
X64951000Y-156178999D01*
X43900000Y-157400000D02*
X42152159Y-159147841D01*
%TO.N,Net-(U8-IN2)*%
X63550000Y-178010000D02*
X45232612Y-178010000D01*
%TO.N,Net-(U10-IN2)*%
X68475000Y-162525000D02*
X65701000Y-165299000D01*
%TO.N,A3*%
X33951058Y-154800000D02*
X33900000Y-154800000D01*
%TO.N,B3*%
X64951000Y-156178999D02*
X64499999Y-156630000D01*
%TO.N,A3*%
X61780000Y-154100000D02*
X61449942Y-154100000D01*
%TO.N,B3*%
X62070000Y-156630000D02*
X61302000Y-157398000D01*
X61302000Y-157398000D02*
X57883314Y-157398000D01*
%TO.N,A3*%
X72700000Y-151500000D02*
X64300000Y-151500000D01*
X61449942Y-154100000D02*
X61348942Y-153999000D01*
X64300000Y-151500000D02*
X63525000Y-152275000D01*
%TO.N,Net-(U9-IN2)*%
X61300000Y-159503000D02*
X55100000Y-159503000D01*
%TO.N,A3*%
X33900000Y-154800000D02*
X32141612Y-156558388D01*
%TO.N,Net-(U10-IN2)*%
X55675019Y-172351000D02*
X55126019Y-172900000D01*
%TO.N,B3*%
X63525000Y-156630000D02*
X62070000Y-156630000D01*
%TO.N,Net-(U8-IN2)*%
X44136069Y-179106543D02*
X44136069Y-182855000D01*
%TO.N,B3*%
X57883314Y-157398000D02*
X57881314Y-157400000D01*
%TO.N,Net-(U10-IN2)*%
X58651000Y-170549000D02*
X58651000Y-171559603D01*
X65701000Y-165299000D02*
X63901000Y-165299000D01*
X63901000Y-165299000D02*
X58651000Y-170549000D01*
X57859603Y-172351000D02*
X55675019Y-172351000D01*
%TO.N,B3*%
X64499999Y-156630000D02*
X63525000Y-156630000D01*
%TO.N,A3*%
X61790000Y-154090000D02*
X61780000Y-154100000D01*
%TO.N,B3*%
X57881314Y-157400000D02*
X43900000Y-157400000D01*
%TO.N,Net-(U9-IN2)*%
X54136069Y-160466931D02*
X54136069Y-162900000D01*
%TO.N,A3*%
X63525000Y-154090000D02*
X61790000Y-154090000D01*
X74700000Y-153500000D02*
X72700000Y-151500000D01*
%TO.N,Net-(U10-IN2)*%
X58651000Y-171559603D02*
X57859603Y-172351000D01*
%TO.N,A3*%
X74700000Y-156240000D02*
X74700000Y-153500000D01*
%TO.N,B3*%
X73200000Y-152900000D02*
X72401000Y-152101000D01*
%TO.N,A3*%
X63525000Y-152275000D02*
X63525000Y-154090000D01*
%TO.N,C2*%
X53442612Y-174201000D02*
X52141612Y-172900000D01*
%TO.N,B2*%
X42180089Y-173162881D02*
X42141612Y-173124404D01*
X66448000Y-159787958D02*
X67049000Y-159186958D01*
%TO.N,C2*%
X70697000Y-165397000D02*
X70697000Y-161300000D01*
X67149942Y-164700000D02*
X65949942Y-165900000D01*
%TO.N,B2*%
X63054593Y-164445291D02*
X63406535Y-164093349D01*
X67049000Y-158766900D02*
X67915900Y-157900000D01*
%TO.N,Net-(U7-IN2)*%
X67049000Y-160036900D02*
X67396900Y-159689000D01*
%TO.N,C2*%
X59252000Y-170797942D02*
X59252000Y-171808545D01*
X58108545Y-172952000D02*
X58108545Y-172991455D01*
X69837000Y-160440000D02*
X68475000Y-160440000D01*
X58100000Y-173000000D02*
X55875961Y-173000000D01*
X54674961Y-174201000D02*
X53442612Y-174201000D01*
X73200000Y-167900000D02*
X70697000Y-165397000D01*
X59252000Y-171808545D02*
X58108545Y-172952000D01*
X70000000Y-164700000D02*
X67149942Y-164700000D01*
X64149942Y-165900000D02*
X59252000Y-170797942D01*
%TO.N,B2*%
X65158244Y-164097000D02*
X65203000Y-164097000D01*
X67915900Y-157900000D02*
X68250000Y-157900000D01*
%TO.N,Net-(U7-IN2)*%
X67930000Y-159170000D02*
X68475000Y-159170000D01*
%TO.N,C2*%
X65949942Y-165900000D02*
X64149942Y-165900000D01*
%TO.N,Net-(U7-IN2)*%
X67049000Y-163100942D02*
X67049000Y-160036900D01*
%TO.N,B2*%
X42141612Y-171658388D02*
X44801000Y-168999000D01*
X71300000Y-162649942D02*
X71298000Y-162647942D01*
X71300000Y-163460000D02*
X71300000Y-162649942D01*
X71298000Y-162647942D02*
X71298000Y-160077884D01*
X71298000Y-160077884D02*
X70096000Y-158875884D01*
X63406535Y-164093349D02*
X65154593Y-164093349D01*
X70096000Y-158396000D02*
X69600000Y-157900000D01*
X63054593Y-164445407D02*
X63054593Y-164445291D01*
%TO.N,Net-(U7-IN2)*%
X44207192Y-172967192D02*
X44136069Y-172896069D01*
X65451942Y-164698000D02*
X67049000Y-163100942D01*
%TO.N,B2*%
X58501000Y-168999000D02*
X63054593Y-164445407D01*
X70096000Y-158875884D02*
X70096000Y-158396000D01*
%TO.N,Net-(U7-IN2)*%
X44136069Y-170663931D02*
X45200000Y-169600000D01*
X67411000Y-159689000D02*
X67930000Y-159170000D01*
%TO.N,B2*%
X42141612Y-173124404D02*
X42141612Y-171658388D01*
X73200000Y-165360000D02*
X71300000Y-163460000D01*
X66448000Y-162852000D02*
X66448000Y-159787958D01*
%TO.N,C2*%
X55875961Y-173000000D02*
X54674961Y-174201000D01*
%TO.N,B2*%
X65203000Y-164097000D02*
X66448000Y-162852000D01*
X69600000Y-157900000D02*
X68475000Y-157900000D01*
%TO.N,C2*%
X70697000Y-161300000D02*
X69837000Y-160440000D01*
%TO.N,B2*%
X65154593Y-164093349D02*
X65158244Y-164097000D01*
X44801000Y-168999000D02*
X58501000Y-168999000D01*
X42207026Y-173162881D02*
X42180089Y-173162881D01*
%TO.N,C2*%
X70697000Y-165397000D02*
X70000000Y-164700000D01*
%TO.N,B2*%
X67049000Y-159186958D02*
X67049000Y-158766900D01*
%TO.N,C2*%
X58108545Y-172991455D02*
X58100000Y-173000000D01*
%TO.N,Net-(U7-IN2)*%
X63655593Y-164694349D02*
X64905651Y-164694349D01*
X44136069Y-172896069D02*
X44136069Y-170663931D01*
%TO.N,Net-(U6-IN2)*%
X63525000Y-157900000D02*
X61899000Y-157900000D01*
X58171678Y-158101000D02*
X45100000Y-158101000D01*
%TO.N,C1*%
X71298000Y-174898000D02*
X71298000Y-170237884D01*
%TO.N,A2*%
X58101000Y-167699000D02*
X34951058Y-167699000D01*
%TO.N,Net-(U7-IN2)*%
X58749942Y-169600000D02*
X63655593Y-164694349D01*
%TO.N,C1*%
X62369000Y-179280000D02*
X61700000Y-178611000D01*
%TO.N,Net-(U7-IN2)*%
X64905651Y-164694349D02*
X64909302Y-164698000D01*
%TO.N,A2*%
X66399000Y-156461001D02*
X66399000Y-157701116D01*
X71899000Y-159828942D02*
X70697000Y-158626942D01*
%TO.N,C1*%
X70198000Y-169137884D02*
X70198000Y-167699942D01*
%TO.N,Net-(U7-IN2)*%
X64909302Y-164698000D02*
X65451942Y-164698000D01*
%TO.N,A2*%
X73200000Y-162820000D02*
X72320000Y-162820000D01*
%TO.N,Net-(U6-IN2)*%
X45100000Y-158101000D02*
X44151505Y-159049495D01*
%TO.N,A2*%
X34951058Y-167699000D02*
X32100000Y-170550058D01*
%TO.N,C1*%
X65577000Y-178227999D02*
X64524999Y-179280000D01*
%TO.N,A2*%
X65246000Y-162254000D02*
X64608651Y-162891349D01*
X65818037Y-158718037D02*
X65246000Y-159290074D01*
X70697000Y-156297000D02*
X69760000Y-155360000D01*
X71899000Y-162399000D02*
X71899000Y-159828942D01*
%TO.N,C1*%
X63550000Y-179280000D02*
X62369000Y-179280000D01*
X66852000Y-169597942D02*
X65577000Y-170872942D01*
X52141612Y-180269388D02*
X52141612Y-182900000D01*
X68146942Y-166503000D02*
X66852000Y-167797942D01*
%TO.N,Net-(U7-IN2)*%
X45200000Y-169600000D02*
X58749942Y-169600000D01*
%TO.N,Net-(U6-IN2)*%
X61899000Y-157900000D02*
X61700000Y-158099000D01*
%TO.N,A2*%
X67500001Y-155360000D02*
X66399000Y-156461001D01*
X32100000Y-170550058D02*
X32100000Y-173000000D01*
%TO.N,C1*%
X53800000Y-178611000D02*
X52141612Y-180269388D01*
%TO.N,Net-(U6-IN2)*%
X58173678Y-158099000D02*
X58171678Y-158101000D01*
%TO.N,C1*%
X65577000Y-170872942D02*
X65577000Y-178227999D01*
%TO.N,Net-(U7-IN2)*%
X67396900Y-159689000D02*
X67411000Y-159689000D01*
%TO.N,A2*%
X70697000Y-158626942D02*
X70697000Y-156297000D01*
X64608651Y-162891349D02*
X62908651Y-162891349D01*
%TO.N,C1*%
X70198000Y-167699942D02*
X69001058Y-166503000D01*
%TO.N,Net-(U6-IN2)*%
X61700000Y-158099000D02*
X58173678Y-158099000D01*
%TO.N,A2*%
X65818037Y-158282079D02*
X65818037Y-158718037D01*
%TO.N,C1*%
X66852000Y-167797942D02*
X66852000Y-169597942D01*
%TO.N,A2*%
X72320000Y-162820000D02*
X71899000Y-162399000D01*
%TO.N,C1*%
X73200000Y-175520000D02*
X71920000Y-175520000D01*
%TO.N,Net-(U7-IN2)*%
X44207192Y-173049351D02*
X44207192Y-172967192D01*
%TO.N,A2*%
X68475000Y-155360000D02*
X67500001Y-155360000D01*
%TO.N,Net-(U6-IN2)*%
X44151505Y-159049495D02*
X44151505Y-163050000D01*
%TO.N,A2*%
X66399000Y-157701116D02*
X65818037Y-158282079D01*
X69760000Y-155360000D02*
X68475000Y-155360000D01*
X65246000Y-159290074D02*
X65246000Y-162254000D01*
X62908651Y-162891349D02*
X58101000Y-167699000D01*
%TO.N,+3.3V*%
X30237959Y-163413284D02*
X30975675Y-164151000D01*
X39417590Y-164151000D02*
X40188787Y-163379803D01*
X60938892Y-184701000D02*
X51425675Y-184701000D01*
X61660000Y-152640000D02*
X60902000Y-153398000D01*
X35990058Y-173300000D02*
X39034725Y-173300000D01*
X39034725Y-173300000D02*
X39248009Y-173513284D01*
X45850116Y-173300000D02*
X44581116Y-174569000D01*
X40188787Y-163379803D02*
X41209984Y-164401000D01*
X69474999Y-174200000D02*
X68500000Y-174200000D01*
X44581116Y-174569000D02*
X41299000Y-174569000D01*
X30171243Y-173420000D02*
X30030000Y-173420000D01*
X62225000Y-152640000D02*
X61660000Y-152640000D01*
X31284675Y-184560000D02*
X39146243Y-184560000D01*
X40975675Y-184206000D02*
X49545243Y-184206000D01*
X40188787Y-173464112D02*
X40237959Y-173513284D01*
X66900000Y-182571000D02*
X66900000Y-174825001D01*
X41209984Y-164401000D02*
X49350243Y-164401000D01*
X70480761Y-154100000D02*
X69800000Y-154100000D01*
X69790000Y-154090000D02*
X68475000Y-154090000D01*
X73200000Y-180600000D02*
X70700000Y-180600000D01*
X30237959Y-157612099D02*
X30237959Y-163413284D01*
X30237959Y-183513284D02*
X31284675Y-184560000D01*
X40251243Y-173500000D02*
X40237959Y-173513284D01*
%TO.N,A1*%
X48785783Y-173901000D02*
X46099058Y-173901000D01*
X36239000Y-173901000D02*
X32141612Y-177998388D01*
X40054783Y-175170000D02*
X38785783Y-173901000D01*
%TO.N,+3.3V*%
X49034725Y-173300000D02*
X45850116Y-173300000D01*
X30030000Y-173420000D02*
X30144675Y-173420000D01*
X66900000Y-182571000D02*
X63068892Y-182571000D01*
%TO.N,A1*%
X66198884Y-166501000D02*
X64398884Y-166501000D01*
X49699067Y-174814284D02*
X48785783Y-173901000D01*
%TO.N,+3.3V*%
X71229000Y-182571000D02*
X66900000Y-182571000D01*
%TO.N,A1*%
X59900000Y-173602000D02*
X56123903Y-173602000D01*
%TO.N,+3.3V*%
X49350243Y-164401000D02*
X50237959Y-163513284D01*
X50237959Y-173513284D02*
X49248009Y-173513284D01*
%TO.N,A1*%
X64398884Y-166501000D02*
X59853000Y-171046884D01*
%TO.N,+3.3V*%
X70700000Y-180600000D02*
X70600000Y-180600000D01*
X34452058Y-153398000D02*
X30237959Y-157612099D01*
%TO.N,A1*%
X71400000Y-167200000D02*
X69501000Y-165301000D01*
X67398884Y-165301000D02*
X66198884Y-166501000D01*
%TO.N,+3.3V*%
X51425675Y-184701000D02*
X50237959Y-183513284D01*
X66900000Y-174825001D02*
X67525001Y-174200000D01*
%TO.N,A1*%
X38785783Y-173901000D02*
X36239000Y-173901000D01*
X59853000Y-173555000D02*
X59900000Y-173602000D01*
X59853000Y-171046884D02*
X59853000Y-173555000D01*
%TO.N,+3.3V*%
X70500000Y-154119239D02*
X70480761Y-154100000D01*
%TO.N,A1*%
X44830058Y-175170000D02*
X40054783Y-175170000D01*
%TO.N,+3.3V*%
X30975675Y-164151000D02*
X39417590Y-164151000D01*
X40237959Y-183468284D02*
X40975675Y-184206000D01*
%TO.N,A1*%
X46099058Y-173901000D02*
X44830058Y-175170000D01*
%TO.N,+3.3V*%
X31274675Y-174550000D02*
X34740058Y-174550000D01*
X63068892Y-182571000D02*
X60938892Y-184701000D01*
X39248009Y-173513284D02*
X40237959Y-173513284D01*
X40251243Y-173521243D02*
X40251243Y-173500000D01*
X34740058Y-174550000D02*
X35990058Y-173300000D01*
X60902000Y-153398000D02*
X34452058Y-153398000D01*
%TO.N,A1*%
X71400000Y-168640000D02*
X71400000Y-167200000D01*
X32141612Y-177998388D02*
X32141612Y-182900000D01*
X69501000Y-165301000D02*
X67398884Y-165301000D01*
X73200000Y-170440000D02*
X71400000Y-168640000D01*
%TO.N,+3.3V*%
X39146243Y-184560000D02*
X40237959Y-183468284D01*
X41299000Y-174569000D02*
X40251243Y-173521243D01*
X30237959Y-183513284D02*
X30237959Y-163413284D01*
X67525001Y-174200000D02*
X68500000Y-174200000D01*
X30251243Y-173500000D02*
X30171243Y-173420000D01*
%TO.N,A1*%
X56123903Y-173602000D02*
X54911619Y-174814284D01*
X54911619Y-174814284D02*
X49699067Y-174814284D01*
%TO.N,+3.3V*%
X73200000Y-180600000D02*
X71229000Y-182571000D01*
X30144675Y-173420000D02*
X31274675Y-174550000D01*
%TO.N,A1*%
X62300000Y-174200000D02*
X61702000Y-173602000D01*
X61702000Y-173602000D02*
X59900000Y-173602000D01*
%TO.N,+3.3V*%
X69800000Y-154100000D02*
X69790000Y-154090000D01*
%TO.N,A1*%
X63550000Y-174200000D02*
X62300000Y-174200000D01*
%TO.N,+3.3V*%
X49545243Y-184206000D02*
X50237959Y-183513284D01*
X49248009Y-173513284D02*
X49034725Y-173300000D01*
%TO.N,B1*%
X64976000Y-170624000D02*
X64976000Y-175873100D01*
X70799000Y-167448942D02*
X69252058Y-165902000D01*
X71899000Y-171679000D02*
X71899000Y-169988942D01*
%TO.N,Net-(U4-IN2)*%
X63525000Y-155360000D02*
X61860000Y-155360000D01*
%TO.N,C1*%
X64524999Y-179280000D02*
X63550000Y-179280000D01*
X71298000Y-170237884D02*
X70198000Y-169137884D01*
%TO.N,B1*%
X69252058Y-165902000D02*
X67898000Y-165902000D01*
X61600000Y-177400000D02*
X43900000Y-177400000D01*
X43900000Y-177400000D02*
X42141612Y-179158388D01*
X66251000Y-169349000D02*
X64976000Y-170624000D01*
%TO.N,C1*%
X61700000Y-178611000D02*
X53800000Y-178611000D01*
%TO.N,B1*%
X64976000Y-175873100D02*
X64109100Y-176740000D01*
X71899000Y-169988942D02*
X70799000Y-168888942D01*
%TO.N,Net-(U4-IN2)*%
X61100000Y-154600000D02*
X35001000Y-154600000D01*
%TO.N,C1*%
X69001058Y-166503000D02*
X68146942Y-166503000D01*
X71920000Y-175520000D02*
X71298000Y-174898000D01*
%TO.N,Net-(U4-IN2)*%
X35001000Y-154600000D02*
X34136069Y-155464931D01*
%TO.N,B1*%
X62260000Y-176740000D02*
X61600000Y-177400000D01*
X63550000Y-176740000D02*
X62260000Y-176740000D01*
X66251000Y-167549000D02*
X66251000Y-169349000D01*
X67898000Y-165902000D02*
X66251000Y-167549000D01*
%TO.N,Net-(U4-IN2)*%
X61860000Y-155360000D02*
X61100000Y-154600000D01*
%TO.N,B1*%
X73200000Y-172980000D02*
X71899000Y-171679000D01*
X64109100Y-176740000D02*
X63550000Y-176740000D01*
X42141612Y-179158388D02*
X42141612Y-182855000D01*
%TO.N,Net-(U4-IN2)*%
X34136069Y-155464931D02*
X34136069Y-162800000D01*
%TO.N,B1*%
X70799000Y-168888942D02*
X70799000Y-167448942D01*
%TO.N,Net-(U3-IN2)*%
X63157593Y-163492349D02*
X64857593Y-163492349D01*
X35200000Y-168300000D02*
X58349942Y-168300000D01*
D25*
%TO.N,Vin*%
X73200000Y-183140000D02*
X72240000Y-184100000D01*
X65000000Y-169600000D02*
X65000000Y-168500000D01*
X72240000Y-184100000D02*
X68800000Y-184100000D01*
D24*
%TO.N,Net-(U3-IN2)*%
X34160000Y-173100000D02*
X34136069Y-173076069D01*
X34136069Y-169363931D02*
X35200000Y-168300000D01*
X58349942Y-168300000D02*
X63157593Y-163492349D01*
X67000000Y-157500000D02*
X67870000Y-156630000D01*
X64857593Y-163492349D02*
X65847000Y-162502942D01*
D25*
%TO.N,Vin*%
X62500000Y-172100000D02*
X65000000Y-169600000D01*
D24*
%TO.N,Net-(U3-IN2)*%
X34136069Y-173076069D02*
X34136069Y-169363931D01*
X65847000Y-162502942D02*
X65847000Y-159539016D01*
X66448000Y-158938016D02*
X66448000Y-158517958D01*
X67000000Y-157965958D02*
X67000000Y-157500000D01*
X66448000Y-158517958D02*
X67000000Y-157965958D01*
X65847000Y-159539016D02*
X66448000Y-158938016D01*
X67870000Y-156630000D02*
X68475000Y-156630000D01*
%TO.N,GND*%
X58700000Y-38779314D02*
X58700000Y-37581314D01*
X35080000Y-47401314D02*
X38701000Y-43780314D01*
X38050000Y-31450000D02*
X38050000Y-29431314D01*
X60400000Y-45600000D02*
X60300000Y-45700000D01*
X45080000Y-29329999D02*
X43569999Y-30840000D01*
X45080000Y-37480000D02*
X45050000Y-37450000D01*
X55080000Y-38315000D02*
X55080000Y-39284999D01*
X33175000Y-30795000D02*
X32669000Y-30289000D01*
X38701000Y-38780314D02*
X38701000Y-37601000D01*
X58700000Y-33779314D02*
X58700000Y-32581314D01*
X48701000Y-42619686D02*
X48040657Y-41959343D01*
X53810000Y-53275000D02*
X53810000Y-51430000D01*
X43810000Y-53275000D02*
X43810000Y-51430000D01*
X45080000Y-47401314D02*
X48701000Y-43780314D01*
X48165657Y-29315657D02*
X48701000Y-28780314D01*
X58039657Y-41939657D02*
X58049000Y-41930314D01*
X58049000Y-41930314D02*
X58049000Y-39430314D01*
X55049000Y-37411628D02*
X58539657Y-33920971D01*
X38701000Y-27619686D02*
X38140657Y-27059343D01*
X53569999Y-50795000D02*
X53175000Y-50795000D01*
X60230314Y-45630314D02*
X60300000Y-45700000D01*
X55079000Y-38295314D02*
X55079000Y-37460314D01*
X38100000Y-27018686D02*
X38100000Y-26700000D01*
X35080000Y-29284999D02*
X33569999Y-30795000D01*
X45080000Y-39284999D02*
X43569999Y-40795000D01*
X48281314Y-37200000D02*
X48050000Y-36968686D01*
X53810000Y-33275000D02*
X53810000Y-31430000D01*
X43810000Y-31475000D02*
X43175000Y-30840000D01*
X53810000Y-31430000D02*
X53175000Y-30795000D01*
X48040657Y-41959343D02*
X48050000Y-41950000D01*
X55080000Y-28315000D02*
X55080000Y-29284999D01*
X36800000Y-35700000D02*
X38050000Y-34450000D01*
X35080000Y-49384999D02*
X33569999Y-50895000D01*
X33569999Y-50895000D02*
X33175000Y-50895000D01*
X38136787Y-34536787D02*
X38050000Y-34450000D01*
%TO.N,Net-(U2-IN2)*%
X34180000Y-26256069D02*
X33810000Y-26626069D01*
X34180000Y-25950000D02*
X34180000Y-26256069D01*
%TO.N,Net-(U11-IN2)*%
X53810000Y-28315000D02*
X53810000Y-26626069D01*
%TO.N,Net-(U2-OUT1)*%
X35700000Y-34800000D02*
X37300000Y-33200000D01*
X32540000Y-34540000D02*
X32800000Y-34800000D01*
%TO.N,Net-(U11-OUT1)*%
X55700000Y-34800000D02*
X57300000Y-33200000D01*
%TO.N,C3*%
X52540000Y-48315000D02*
X52540000Y-46698388D01*
%TO.N,Net-(U10-OUT2)*%
X57300000Y-41055000D02*
X57300000Y-38200000D01*
%TO.N,Net-(U2-OUT2)*%
X37300000Y-31055000D02*
X37300000Y-28200000D01*
%TO.N,Net-(U10-IN2)*%
X53810000Y-36626069D02*
X54136069Y-36300000D01*
%TO.N,Net-(U11-OUT1)*%
X52800000Y-34800000D02*
X55700000Y-34800000D01*
%TO.N,Net-(U2-OUT1)*%
X32540000Y-33275000D02*
X32540000Y-34540000D01*
%TO.N,Net-(U10-IN2)*%
X53810000Y-38315000D02*
X53810000Y-36626069D01*
%TO.N,Net-(U11-OUT1)*%
X52800000Y-34800000D02*
X52540000Y-34540000D01*
%TO.N,Net-(U2-OUT1)*%
X32800000Y-34800000D02*
X35700000Y-34800000D01*
%TO.N,Net-(U11-OUT2)*%
X55080000Y-33275000D02*
X57300000Y-31055000D01*
%TO.N,Net-(U11-IN2)*%
X53810000Y-26626069D02*
X54136069Y-26300000D01*
%TO.N,Net-(U2-OUT2)*%
X35080000Y-33275000D02*
X37300000Y-31055000D01*
%TO.N,Net-(U10-OUT2)*%
X55080000Y-43275000D02*
X57300000Y-41055000D01*
%TO.N,Net-(U11-OUT2)*%
X57300000Y-31055000D02*
X57300000Y-28200000D01*
%TO.N,Net-(U11-OUT1)*%
X52540000Y-34540000D02*
X52540000Y-33275000D01*
%TO.N,Net-(U2-IN2)*%
X33810000Y-26626069D02*
X33810000Y-28315000D01*
%TO.N,C3*%
X52540000Y-46698388D02*
X52141612Y-46300000D01*
%TO.N,B3*%
X42540000Y-46589067D02*
X42152159Y-46201226D01*
%TO.N,C2*%
X52540000Y-36698388D02*
X52141612Y-36300000D01*
%TO.N,Net-(U9-OUT1)*%
X52800000Y-54800000D02*
X55700000Y-54800000D01*
%TO.N,A3*%
X32540000Y-46798388D02*
X32141612Y-46400000D01*
%TO.N,Net-(U10-OUT1)*%
X55700000Y-44800000D02*
X57300000Y-43200000D01*
%TO.N,A3*%
X32540000Y-48415000D02*
X32540000Y-46798388D01*
%TO.N,Net-(U9-OUT1)*%
X52540000Y-54540000D02*
X52800000Y-54800000D01*
%TO.N,Net-(U8-IN2)*%
X43810000Y-26671069D02*
X44136069Y-26345000D01*
X43810000Y-28360000D02*
X43810000Y-26671069D01*
%TO.N,Net-(U9-OUT1)*%
X55700000Y-54800000D02*
X57300000Y-53200000D01*
%TO.N,Net-(U9-OUT2)*%
X57300000Y-51055000D02*
X57300000Y-48200000D01*
X55080000Y-53275000D02*
X57300000Y-51055000D01*
%TO.N,C2*%
X52540000Y-38315000D02*
X52540000Y-36698388D01*
%TO.N,B3*%
X42540000Y-48315000D02*
X42540000Y-46589067D01*
%TO.N,Net-(U10-OUT1)*%
X52800000Y-44800000D02*
X55700000Y-44800000D01*
%TO.N,Net-(U9-IN2)*%
X53810000Y-46626069D02*
X54136069Y-46300000D01*
%TO.N,Net-(U10-OUT1)*%
X52540000Y-44540000D02*
X52800000Y-44800000D01*
%TO.N,Net-(U9-OUT1)*%
X52540000Y-53275000D02*
X52540000Y-54540000D01*
%TO.N,Net-(U9-IN2)*%
X53810000Y-48315000D02*
X53810000Y-46626069D01*
%TO.N,Net-(U10-OUT1)*%
X52540000Y-43275000D02*
X52540000Y-44540000D01*
%TO.N,Net-(U8-OUT1)*%
X42540000Y-33320000D02*
X42540000Y-34585000D01*
X42800000Y-34845000D02*
X45700000Y-34845000D01*
%TO.N,Net-(U7-OUT2)*%
X45080000Y-43275000D02*
X47300000Y-41055000D01*
%TO.N,Net-(U8-OUT2)*%
X45080000Y-33320000D02*
X47300000Y-31100000D01*
X47300000Y-31100000D02*
X47300000Y-28245000D01*
%TO.N,Net-(U8-OUT1)*%
X42540000Y-34585000D02*
X42800000Y-34845000D01*
X45700000Y-34845000D02*
X47300000Y-33245000D01*
%TO.N,Net-(U7-OUT2)*%
X47300000Y-41055000D02*
X47300000Y-38200000D01*
%TO.N,B2*%
X42540000Y-36698388D02*
X42540000Y-38315000D01*
X42212522Y-36370910D02*
X42540000Y-36698388D01*
%TO.N,Net-(U7-IN2)*%
X44207192Y-36228877D02*
X43810000Y-36626069D01*
X43810000Y-36626069D02*
X43810000Y-38315000D01*
%TO.N,B2*%
X42212522Y-36042615D02*
X42212522Y-36370910D01*
X42207026Y-36037119D02*
X42212522Y-36042615D01*
%TO.N,Net-(U7-IN2)*%
X44207192Y-36150649D02*
X44207192Y-36228877D01*
%TO.N,Net-(U6-OUT1)*%
X45550000Y-54950000D02*
X47300000Y-53200000D01*
X43050000Y-54950000D02*
X45550000Y-54950000D01*
%TO.N,A2*%
X32540000Y-36640000D02*
X32100000Y-36200000D01*
%TO.N,Net-(U7-OUT1)*%
X42540000Y-43275000D02*
X42540000Y-44540000D01*
X42800000Y-44800000D02*
X45700000Y-44800000D01*
%TO.N,C1*%
X52540000Y-26698388D02*
X52141612Y-26300000D01*
%TO.N,A2*%
X32540000Y-38315000D02*
X32540000Y-36640000D01*
%TO.N,Net-(U6-OUT1)*%
X42540000Y-54440000D02*
X43050000Y-54950000D01*
%TO.N,C1*%
X52540000Y-28315000D02*
X52540000Y-26698388D01*
%TO.N,Net-(U6-OUT2)*%
X45080000Y-53275000D02*
X47300000Y-51055000D01*
%TO.N,Net-(U7-OUT1)*%
X45700000Y-44800000D02*
X47300000Y-43200000D01*
%TO.N,Net-(U6-IN2)*%
X44151505Y-46150000D02*
X43810000Y-46491505D01*
X43810000Y-46491505D02*
X43810000Y-48315000D01*
%TO.N,Net-(U6-OUT1)*%
X42540000Y-53275000D02*
X42540000Y-54440000D01*
%TO.N,Net-(U7-OUT1)*%
X42540000Y-44540000D02*
X42800000Y-44800000D01*
%TO.N,Net-(U6-OUT2)*%
X47300000Y-51055000D02*
X47300000Y-48200000D01*
D25*
%TO.N,Vin*%
X38837787Y-46379800D02*
X39487787Y-47029800D01*
X39975000Y-53275000D02*
X41270000Y-53275000D01*
X39487787Y-47029800D02*
X39487787Y-48887213D01*
X38600000Y-51900000D02*
X39975000Y-53275000D01*
X39487787Y-48887213D02*
X38600000Y-49775000D01*
X28886959Y-46346319D02*
X29536959Y-46996319D01*
X31270000Y-54420000D02*
X32550000Y-55700000D01*
X31270000Y-53375000D02*
X31270000Y-54420000D01*
X30375000Y-53375000D02*
X31270000Y-53375000D01*
X28886959Y-45227113D02*
X28886959Y-46346319D01*
X28700000Y-51700000D02*
X30375000Y-53375000D01*
X29800000Y-42700000D02*
X29800000Y-44314072D01*
X29536959Y-48688041D02*
X28700000Y-49525000D01*
X39800000Y-55700000D02*
X41270000Y-54230000D01*
X32550000Y-55700000D02*
X39800000Y-55700000D01*
X29536959Y-46996319D02*
X29536959Y-48688041D01*
X29800000Y-44314072D02*
X28886959Y-45227113D01*
X28700000Y-49525000D02*
X28700000Y-51700000D01*
X41270000Y-54230000D02*
X41270000Y-53275000D01*
X38652000Y-39748000D02*
X38652000Y-41650032D01*
X38886959Y-36246319D02*
X39536959Y-36896319D01*
X39800000Y-32950000D02*
X39800000Y-34214072D01*
X67300000Y-23600000D02*
X30414072Y-23600000D01*
X28600000Y-30262714D02*
X29448286Y-31111000D01*
D26*
%TO.N,GND*%
X52772500Y-50400000D02*
X53165000Y-50792500D01*
X43110000Y-50737500D02*
X43165000Y-50792500D01*
D25*
%TO.N,Vin*%
X38886959Y-35127113D02*
X38886959Y-36246319D01*
X39800000Y-34214072D02*
X38886959Y-35127113D01*
D26*
%TO.N,GND*%
X52210000Y-29837500D02*
X53165000Y-30792500D01*
D25*
%TO.N,Vin*%
X39450032Y-42350032D02*
X40050000Y-42950000D01*
X30414072Y-23600000D02*
X28600000Y-25414072D01*
D26*
%TO.N,GND*%
X42210000Y-29882500D02*
X43165000Y-30837500D01*
D25*
%TO.N,Vin*%
X39902500Y-32847500D02*
X39800000Y-32950000D01*
%TO.N,GND*%
X49800000Y-29837500D02*
X52210000Y-29837500D01*
%TO.N,Vin*%
X39352000Y-42350032D02*
X39450032Y-42350032D01*
X39536959Y-38863041D02*
X38652000Y-39748000D01*
%TO.N,GND*%
X39700000Y-50737500D02*
X43110000Y-50737500D01*
D26*
X52772500Y-40400000D02*
X53165000Y-40792500D01*
X42772500Y-40400000D02*
X43165000Y-40792500D01*
D25*
%TO.N,Vin*%
X28600000Y-25414072D02*
X28600000Y-30262714D01*
X29448286Y-31111000D02*
X29800000Y-31111000D01*
X38652000Y-41650032D02*
X39352000Y-42350032D01*
X68800000Y-25100000D02*
X67300000Y-23600000D01*
X29800000Y-31111000D02*
X29800000Y-32700000D01*
%TO.N,GND*%
X39700000Y-40400000D02*
X42772500Y-40400000D01*
X39800000Y-29882500D02*
X42210000Y-29882500D01*
%TO.N,Vin*%
X39536959Y-36896319D02*
X39536959Y-38863041D01*
%TO.N,GND*%
X49700000Y-50400000D02*
X52772500Y-50400000D01*
X49700000Y-40400000D02*
X52772500Y-40400000D01*
%TO.N,Vin*%
X49320320Y-46679680D02*
X49536959Y-46896319D01*
X48886959Y-45127113D02*
X48886959Y-46246319D01*
X49700000Y-44314072D02*
X48886959Y-45127113D01*
X49320320Y-46679680D02*
X49462500Y-46821860D01*
X49700000Y-42125000D02*
X49700000Y-44314072D01*
X51270000Y-53980000D02*
X49875000Y-55375000D01*
X50075000Y-53275000D02*
X51270000Y-53275000D01*
X48700000Y-49787500D02*
X48700000Y-51900000D01*
X49462500Y-46821860D02*
X49462500Y-49025000D01*
X49462500Y-49025000D02*
X48700000Y-49787500D01*
X48700000Y-51900000D02*
X50075000Y-53275000D01*
X48886959Y-46246319D02*
X49320320Y-46679680D01*
X51270000Y-53275000D02*
X51270000Y-53980000D01*
D24*
%TO.N,GND*%
X58700000Y-28760628D02*
X58700000Y-27581314D01*
X45080000Y-38315000D02*
X45080000Y-39284999D01*
X35080000Y-38315000D02*
X35080000Y-39284999D01*
X33569999Y-30795000D02*
X33175000Y-30795000D01*
X48701000Y-38799000D02*
X48701000Y-37601000D01*
X53175000Y-30795000D02*
X52669000Y-30289000D01*
X58700000Y-42600000D02*
X58039657Y-41939657D01*
X38001000Y-39480314D02*
X38701000Y-38780314D01*
X35080000Y-48415000D02*
X35080000Y-49384999D01*
X33569999Y-40795000D02*
X33175000Y-40795000D01*
X48701000Y-28780314D02*
X48701000Y-27601000D01*
X33175000Y-50895000D02*
X32669000Y-50389000D01*
X35080000Y-37420000D02*
X36800000Y-35700000D01*
X38050000Y-29431314D02*
X38540657Y-28940657D01*
X53569999Y-40795000D02*
X53175000Y-40795000D01*
X32669000Y-40289000D02*
X29800000Y-40289000D01*
X43569999Y-50795000D02*
X43175000Y-50795000D01*
X53810000Y-41430000D02*
X53175000Y-40795000D01*
X43175000Y-50795000D02*
X42761500Y-50381500D01*
X43810000Y-41430000D02*
X43175000Y-40795000D01*
X53810000Y-51430000D02*
X53175000Y-50795000D01*
X45080000Y-49284999D02*
X43569999Y-50795000D01*
X35080000Y-39284999D02*
X33569999Y-40795000D01*
%TO.N,+3.3V*%
X41270000Y-38315000D02*
X40237959Y-37282959D01*
X70700000Y-28600000D02*
X70500000Y-28800000D01*
X30237959Y-47382959D02*
X30237959Y-45786716D01*
X40188787Y-47233787D02*
X40188787Y-45820197D01*
X51270000Y-48315000D02*
X50237959Y-47282959D01*
X62225000Y-56560000D02*
X69020761Y-56560000D01*
X41270000Y-48315000D02*
X40188787Y-47233787D01*
X30237959Y-35987959D02*
X30237959Y-37282959D01*
X50237959Y-27282959D02*
X50237959Y-25686716D01*
X51270000Y-28315000D02*
X50237959Y-27282959D01*
X40237959Y-27327959D02*
X40237959Y-25731716D01*
X30030000Y-35780000D02*
X30237959Y-35987959D01*
X31270000Y-48415000D02*
X30237959Y-47382959D01*
X51270000Y-38315000D02*
X50237959Y-37282959D01*
X50237959Y-47282959D02*
X50237959Y-45686716D01*
X30237959Y-37282959D02*
X31270000Y-38315000D01*
X41270000Y-28360000D02*
X40237959Y-27327959D01*
X30237959Y-27282959D02*
X30237959Y-25686716D01*
X40237959Y-37282959D02*
X40237959Y-35686716D01*
X31270000Y-28315000D02*
X30237959Y-27282959D01*
X69020761Y-56560000D02*
X70500000Y-55080761D01*
X70500000Y-28800000D02*
X70500000Y-55080761D01*
%TO.N,Net-(U3-OUT1)*%
X32540000Y-44540000D02*
X32800000Y-44800000D01*
%TO.N,GND*%
X48701000Y-43780314D02*
X48701000Y-42619686D01*
%TO.N,Net-(U3-OUT1)*%
X35700000Y-44800000D02*
X37300000Y-43200000D01*
%TO.N,GND*%
X58700000Y-37581314D02*
X58299000Y-37180314D01*
%TO.N,A1*%
X32540000Y-28315000D02*
X32540000Y-26698388D01*
%TO.N,Net-(U3-OUT1)*%
X32540000Y-43275000D02*
X32540000Y-44540000D01*
%TO.N,A1*%
X32540000Y-26698388D02*
X32141612Y-26300000D01*
%TO.N,GND*%
X43810000Y-51430000D02*
X43175000Y-50795000D01*
%TO.N,Net-(U3-OUT1)*%
X32800000Y-44800000D02*
X35700000Y-44800000D01*
%TO.N,GND*%
X45080000Y-38315000D02*
X45080000Y-37480000D01*
X45080000Y-28360000D02*
X46740000Y-26700000D01*
X33810000Y-53375000D02*
X33810000Y-51530000D01*
X33810000Y-51530000D02*
X33175000Y-50895000D01*
X38050000Y-34450000D02*
X38701000Y-33799000D01*
X43175000Y-40795000D02*
X42669000Y-40289000D01*
X33810000Y-31430000D02*
X33175000Y-30795000D01*
X48300000Y-37200000D02*
X48281314Y-37200000D01*
X58049000Y-31930314D02*
X58049000Y-29411628D01*
X32669000Y-50389000D02*
X29800000Y-50389000D01*
X55079000Y-28340314D02*
X56739000Y-26680314D01*
X46740000Y-26700000D02*
X48050000Y-26700000D01*
X55080000Y-29284999D02*
X53569999Y-30795000D01*
X48050000Y-25200000D02*
X48050000Y-26700000D01*
X58049000Y-26680314D02*
X58049000Y-24951000D01*
X55080000Y-39284999D02*
X53569999Y-40795000D01*
X38701000Y-32601000D02*
X38050000Y-31950000D01*
X38100000Y-24900000D02*
X38619284Y-24380716D01*
X56830314Y-45630314D02*
X60230314Y-45630314D01*
X48050000Y-34450000D02*
X48701000Y-33799000D01*
X53810000Y-43275000D02*
X53810000Y-41430000D01*
X43569999Y-30840000D02*
X43175000Y-30840000D01*
X43810000Y-43275000D02*
X43810000Y-41430000D01*
X53175000Y-40795000D02*
X52669000Y-40289000D01*
X38136787Y-37036787D02*
X38136787Y-34536787D01*
X33810000Y-41430000D02*
X33175000Y-40795000D01*
X48050000Y-26950000D02*
X48050000Y-26700000D01*
X58700000Y-43760628D02*
X58700000Y-42600000D01*
X58049000Y-36949000D02*
X58049000Y-34430314D01*
X35080000Y-48415000D02*
X35080000Y-47401314D01*
X58700000Y-27581314D02*
X58049000Y-26930314D01*
X58049000Y-26680314D02*
X59519686Y-26680314D01*
X38050000Y-31950000D02*
X38050000Y-31450000D01*
X58049000Y-34430314D02*
X58700000Y-33779314D01*
X48050000Y-31950000D02*
X48050000Y-29700000D01*
X48701000Y-33799000D02*
X48701000Y-32601000D01*
X60400000Y-25800000D02*
X60400000Y-45600000D01*
X45050000Y-37450000D02*
X45050000Y-37431314D01*
X48701000Y-32601000D02*
X48050000Y-31950000D01*
X55079000Y-47381628D02*
X56830314Y-45630314D01*
X45080000Y-28360000D02*
X45080000Y-29329999D01*
X48914284Y-24335716D02*
X48050000Y-25200000D01*
X38701000Y-42619686D02*
X38001000Y-41919686D01*
X56830314Y-45630314D02*
X58700000Y-43760628D01*
X48701000Y-27601000D02*
X48550000Y-27450000D01*
X38540657Y-28940657D02*
X38701000Y-28780314D01*
X55080000Y-49284999D02*
X53569999Y-50795000D01*
X35080000Y-28315000D02*
X36695000Y-26700000D01*
X48050000Y-24950000D02*
X48050000Y-25200000D01*
X58049000Y-29411628D02*
X58700000Y-28760628D01*
X43175000Y-30840000D02*
X42669000Y-30334000D01*
X35080000Y-28315000D02*
X35080000Y-29284999D01*
X48550000Y-27450000D02*
X48050000Y-26950000D01*
X58280314Y-37180314D02*
X58049000Y-36949000D01*
X57433716Y-24335716D02*
X48914284Y-24335716D01*
X47480716Y-24380716D02*
X48050000Y-24950000D01*
X36695000Y-26700000D02*
X38100000Y-26700000D01*
X48050000Y-39450000D02*
X48701000Y-38799000D01*
X58299000Y-37180314D02*
X58280314Y-37180314D01*
X48050000Y-29700000D02*
X48050000Y-29431314D01*
X38701000Y-33799000D02*
X38701000Y-32601000D01*
X48050000Y-36968686D02*
X48050000Y-34450000D01*
X43569999Y-40795000D02*
X43175000Y-40795000D01*
X58049000Y-39430314D02*
X58700000Y-38779314D01*
X53569999Y-30795000D02*
X53175000Y-30795000D01*
X58049000Y-26930314D02*
X58049000Y-26680314D01*
X45050000Y-37431314D02*
X48540657Y-33940657D01*
X45080000Y-48315000D02*
X45080000Y-49284999D01*
X38140657Y-27059343D02*
X38100000Y-27018686D01*
X55079000Y-48295314D02*
X55079000Y-47381628D01*
X59519686Y-26680314D02*
X60400000Y-25800000D01*
X38701000Y-37601000D02*
X38136787Y-37036787D01*
X48050000Y-29431314D02*
X48165657Y-29315657D01*
X48050000Y-41950000D02*
X48050000Y-39450000D01*
D25*
%TO.N,Vin*%
X28500000Y-39700000D02*
X28500000Y-41400000D01*
X28500000Y-41400000D02*
X29800000Y-42700000D01*
X29536959Y-37336959D02*
X29536959Y-38700000D01*
D24*
%TO.N,Net-(U3-OUT2)*%
X35080000Y-43275000D02*
X35300000Y-43275000D01*
%TO.N,Net-(U4-IN2)*%
X33810000Y-46726069D02*
X34136069Y-46400000D01*
%TO.N,Net-(U4-OUT1)*%
X32800000Y-54900000D02*
X35700000Y-54900000D01*
%TO.N,Net-(U4-OUT2)*%
X35080000Y-53375000D02*
X37300000Y-51155000D01*
%TO.N,Net-(U3-OUT2)*%
X37300000Y-41275000D02*
X37300000Y-38200000D01*
%TO.N,Net-(U4-OUT1)*%
X35700000Y-54900000D02*
X37300000Y-53300000D01*
%TO.N,Net-(U4-OUT2)*%
X37300000Y-51155000D02*
X37300000Y-48300000D01*
%TO.N,Net-(U4-OUT1)*%
X32540000Y-53375000D02*
X32540000Y-54640000D01*
%TO.N,B1*%
X42540000Y-26743388D02*
X42141612Y-26345000D01*
X42540000Y-28360000D02*
X42540000Y-26743388D01*
%TO.N,Net-(U4-IN2)*%
X33810000Y-48415000D02*
X33810000Y-46726069D01*
%TO.N,Net-(U4-OUT1)*%
X32540000Y-54640000D02*
X32800000Y-54900000D01*
%TO.N,Net-(U3-OUT2)*%
X35300000Y-43275000D02*
X37300000Y-41275000D01*
D25*
%TO.N,Vin*%
X67900000Y-30000000D02*
X62500000Y-35400000D01*
X39902500Y-32847500D02*
X39800000Y-32745000D01*
X49800000Y-55450000D02*
X49875000Y-55375000D01*
X30375000Y-43275000D02*
X29800000Y-42700000D01*
X62500000Y-49981314D02*
X62500000Y-42000000D01*
X41270000Y-53275000D02*
X41270000Y-54161364D01*
X56681314Y-55800000D02*
X62500000Y-49981314D01*
X41270000Y-54161364D02*
X42759636Y-55651000D01*
X67900000Y-26000000D02*
X67900000Y-30000000D01*
X68800000Y-25100000D02*
X67900000Y-26000000D01*
X62500000Y-42000000D02*
X62500000Y-37100000D01*
X50300000Y-55800000D02*
X56681314Y-55800000D01*
X46041364Y-55450000D02*
X49800000Y-55450000D01*
X39800000Y-32745000D02*
X39800000Y-31156000D01*
X41270000Y-33320000D02*
X40375000Y-33320000D01*
X49875000Y-55375000D02*
X50300000Y-55800000D01*
X50375000Y-33275000D02*
X49800000Y-32700000D01*
X49800000Y-32700000D02*
X49800000Y-31111000D01*
X42759636Y-55651000D02*
X45840364Y-55651000D01*
D24*
%TO.N,Net-(U3-IN2)*%
X34160000Y-36276069D02*
X33810000Y-36626069D01*
D25*
%TO.N,Vin*%
X30375000Y-33275000D02*
X29800000Y-32700000D01*
X31270000Y-43275000D02*
X30375000Y-43275000D01*
X45840364Y-55651000D02*
X46041364Y-55450000D01*
D24*
%TO.N,Net-(U3-IN2)*%
X34160000Y-36100000D02*
X34160000Y-36276069D01*
D25*
%TO.N,Vin*%
X41270000Y-43275000D02*
X40375000Y-43275000D01*
X40375000Y-33320000D02*
X39902500Y-32847500D01*
D24*
%TO.N,Net-(U3-IN2)*%
X33810000Y-36626069D02*
X33810000Y-38315000D01*
%TO.N,+3.3V*%
X50237959Y-37282959D02*
X50237959Y-35686716D01*
D25*
%TO.N,Vin*%
X31270000Y-33275000D02*
X30375000Y-33275000D01*
X51270000Y-33275000D02*
X50375000Y-33275000D01*
X62500000Y-35400000D02*
X62500000Y-37100000D01*
X40375000Y-43275000D02*
X40050000Y-42950000D01*
D24*
%TO.N,GND*%
X58700000Y-32581314D02*
X58049000Y-31930314D01*
X32669000Y-30289000D02*
X29800000Y-30289000D01*
X38001000Y-41919686D02*
X38001000Y-39480314D01*
X33810000Y-33275000D02*
X33810000Y-31430000D01*
X48701000Y-37601000D02*
X48300000Y-37200000D01*
X35080000Y-38315000D02*
X35080000Y-37420000D01*
X53175000Y-50795000D02*
X52669000Y-50289000D01*
X38701000Y-43780314D02*
X38701000Y-42619686D01*
X43810000Y-33320000D02*
X43810000Y-31475000D01*
X56739000Y-26680314D02*
X58049000Y-26680314D01*
X45080000Y-48315000D02*
X45080000Y-47401314D01*
X33175000Y-40795000D02*
X32669000Y-40289000D01*
X38619284Y-24380716D02*
X47480716Y-24380716D01*
X33810000Y-43275000D02*
X33810000Y-41430000D01*
X38701000Y-28780314D02*
X38701000Y-27619686D01*
X55080000Y-48315000D02*
X55080000Y-49284999D01*
X38100000Y-26700000D02*
X38100000Y-24900000D01*
X58049000Y-24951000D02*
X57433716Y-24335716D01*
D25*
%TO.N,Vin*%
X49536959Y-36896319D02*
X49536959Y-38863041D01*
X48886959Y-35127113D02*
X48886959Y-36246319D01*
X49536959Y-38863041D02*
X49352000Y-39048000D01*
X49800000Y-32700000D02*
X49800000Y-34214072D01*
X49800000Y-34214072D02*
X48886959Y-35127113D01*
X49352000Y-39048000D02*
X49352000Y-39068654D01*
X40050000Y-42950000D02*
X39800000Y-42700000D01*
X39800000Y-44298381D02*
X38837787Y-45260594D01*
X39800000Y-42700000D02*
X39800000Y-44298381D01*
X50275000Y-43275000D02*
X51270000Y-43275000D01*
X48701000Y-39719654D02*
X48701000Y-41699032D01*
X48886959Y-36246319D02*
X49536959Y-36896319D01*
X49352000Y-42350032D02*
X49352000Y-42352000D01*
X48701000Y-41699032D02*
X49352000Y-42350032D01*
X29800000Y-33910000D02*
X28680000Y-35030000D01*
X49352000Y-42352000D02*
X50275000Y-43275000D01*
X28680000Y-35030000D02*
X28680000Y-36480000D01*
X28680000Y-36480000D02*
X29536959Y-37336959D01*
X49352000Y-39068654D02*
X48701000Y-39719654D01*
X29536959Y-38700000D02*
X29500000Y-38700000D01*
X29800000Y-32700000D02*
X29800000Y-33910000D01*
X29500000Y-38700000D02*
X28500000Y-39700000D01*
X38837787Y-45260594D02*
X38837787Y-46379800D01*
X38600000Y-49775000D02*
X38600000Y-51900000D01*
%TD*%
M02*
