%TF.GenerationSoftware,KiCad,Pcbnew,9.0.3*%
%TF.CreationDate,2026-05-23T04:47:08+08:00*%
%TF.ProjectId,AcousticGripper_DaughterboardV1.1,41636f75-7374-4696-9347-726970706572,rev?*%
%TF.SameCoordinates,Original*%
%TF.FileFunction,Soldermask,Top*%
%TF.FilePolarity,Negative*%
%FSLAX46Y46*%
G04 Gerber Fmt 4.6, Leading zero omitted, Abs format (unit mm)*
G04 Created by KiCad (PCBNEW 9.0.3) date 2026-05-23 04:47:08*
%MOMM*%
%LPD*%
G01*
G04 APERTURE LIST*
G04 Aperture macros list*
%AMRoundRect*
0 Rectangle with rounded corners*
0 $1 Rounding radius*
0 $2 $3 $4 $5 $6 $7 $8 $9 X,Y pos of 4 corners*
0 Add a 4 corners polygon primitive as box body*
4,1,4,$2,$3,$4,$5,$6,$7,$8,$9,$2,$3,0*
0 Add four circle primitives for the rounded corners*
1,1,$1+$1,$2,$3*
1,1,$1+$1,$4,$5*
1,1,$1+$1,$6,$7*
1,1,$1+$1,$8,$9*
0 Add four rect primitives between the rounded corners*
20,1,$1+$1,$2,$3,$4,$5,0*
20,1,$1+$1,$4,$5,$6,$7,0*
20,1,$1+$1,$6,$7,$8,$9,0*
20,1,$1+$1,$8,$9,$2,$3,0*%
G04 Aperture macros list end*
%ADD10R,0.600000X1.550000*%
%ADD11R,1.960000X3.150000*%
%ADD12RoundRect,0.135000X-0.135000X-0.185000X0.135000X-0.185000X0.135000X0.185000X-0.135000X0.185000X0*%
%ADD13RoundRect,0.250000X-0.475000X0.337500X-0.475000X-0.337500X0.475000X-0.337500X0.475000X0.337500X0*%
%ADD14RoundRect,0.237500X-0.237500X0.300000X-0.237500X-0.300000X0.237500X-0.300000X0.237500X0.300000X0*%
%ADD15RoundRect,0.135000X0.135000X0.185000X-0.135000X0.185000X-0.135000X-0.185000X0.135000X-0.185000X0*%
%ADD16RoundRect,0.250001X1.099999X-1.099999X1.099999X1.099999X-1.099999X1.099999X-1.099999X-1.099999X0*%
%ADD17C,2.700000*%
%ADD18C,5.600000*%
%ADD19C,3.600000*%
%ADD20C,1.700000*%
%ADD21RoundRect,0.250000X0.600000X-0.600000X0.600000X0.600000X-0.600000X0.600000X-0.600000X-0.600000X0*%
%ADD22C,2.004000*%
G04 APERTURE END LIST*
D10*
%TO.C,IC33*%
X135545000Y-34650000D03*
X136815000Y-34650000D03*
X138085000Y-34650000D03*
X139355000Y-34650000D03*
X139355000Y-29350000D03*
X138085000Y-29350000D03*
X136815000Y-29350000D03*
X135545000Y-29350000D03*
%TD*%
%TO.C,IC32*%
X125545000Y-34650000D03*
X126815000Y-34650000D03*
X128085000Y-34650000D03*
X129355000Y-34650000D03*
X129355000Y-29350000D03*
X128085000Y-29350000D03*
X126815000Y-29350000D03*
X125545000Y-29350000D03*
%TD*%
%TO.C,IC31*%
X115545000Y-34650000D03*
X116815000Y-34650000D03*
X118085000Y-34650000D03*
X119355000Y-34650000D03*
X119355000Y-29350000D03*
X118085000Y-29350000D03*
X116815000Y-29350000D03*
X115545000Y-29350000D03*
%TD*%
%TO.C,IC30*%
X145545000Y-44650000D03*
X146815000Y-44650000D03*
X148085000Y-44650000D03*
X149355000Y-44650000D03*
X149355000Y-39350000D03*
X148085000Y-39350000D03*
X146815000Y-39350000D03*
X145545000Y-39350000D03*
%TD*%
%TO.C,IC29*%
X135545000Y-44650000D03*
X136815000Y-44650000D03*
X138085000Y-44650000D03*
X139355000Y-44650000D03*
X139355000Y-39350000D03*
X138085000Y-39350000D03*
X136815000Y-39350000D03*
X135545000Y-39350000D03*
%TD*%
%TO.C,IC28*%
X125545000Y-44650000D03*
X126815000Y-44650000D03*
X128085000Y-44650000D03*
X129355000Y-44650000D03*
X129355000Y-39350000D03*
X128085000Y-39350000D03*
X126815000Y-39350000D03*
X125545000Y-39350000D03*
%TD*%
%TO.C,IC27*%
X115545000Y-44650000D03*
X116815000Y-44650000D03*
X118085000Y-44650000D03*
X119355000Y-44650000D03*
X119355000Y-39350000D03*
X118085000Y-39350000D03*
X116815000Y-39350000D03*
X115545000Y-39350000D03*
%TD*%
%TO.C,IC26*%
X105495000Y-44650000D03*
X106765000Y-44650000D03*
X108035000Y-44650000D03*
X109305000Y-44650000D03*
X109305000Y-39350000D03*
X108035000Y-39350000D03*
X106765000Y-39350000D03*
X105495000Y-39350000D03*
%TD*%
%TO.C,IC25*%
X145545000Y-54650000D03*
X146815000Y-54650000D03*
X148085000Y-54650000D03*
X149355000Y-54650000D03*
X149355000Y-49350000D03*
X148085000Y-49350000D03*
X146815000Y-49350000D03*
X145545000Y-49350000D03*
%TD*%
%TO.C,IC24*%
X135545000Y-54650000D03*
X136815000Y-54650000D03*
X138085000Y-54650000D03*
X139355000Y-54650000D03*
X139355000Y-49350000D03*
X138085000Y-49350000D03*
X136815000Y-49350000D03*
X135545000Y-49350000D03*
%TD*%
%TO.C,IC23*%
X125545000Y-54650000D03*
X126815000Y-54650000D03*
X128085000Y-54650000D03*
X129355000Y-54650000D03*
X129355000Y-49350000D03*
X128085000Y-49350000D03*
X126815000Y-49350000D03*
X125545000Y-49350000D03*
%TD*%
%TO.C,IC22*%
X115545000Y-54650000D03*
X116815000Y-54650000D03*
X118085000Y-54650000D03*
X119355000Y-54650000D03*
X119355000Y-49350000D03*
X118085000Y-49350000D03*
X116815000Y-49350000D03*
X115545000Y-49350000D03*
%TD*%
%TO.C,IC21*%
X105495000Y-54650000D03*
X106765000Y-54650000D03*
X108035000Y-54650000D03*
X109305000Y-54650000D03*
X109305000Y-49350000D03*
X108035000Y-49350000D03*
X106765000Y-49350000D03*
X105495000Y-49350000D03*
%TD*%
%TO.C,IC20*%
X145545000Y-64650000D03*
X146815000Y-64650000D03*
X148085000Y-64650000D03*
X149355000Y-64650000D03*
X149355000Y-59350000D03*
X148085000Y-59350000D03*
X146815000Y-59350000D03*
X145545000Y-59350000D03*
%TD*%
%TO.C,IC19*%
X135545000Y-64650000D03*
X136815000Y-64650000D03*
X138085000Y-64650000D03*
X139355000Y-64650000D03*
X139355000Y-59350000D03*
X138085000Y-59350000D03*
X136815000Y-59350000D03*
X135545000Y-59350000D03*
%TD*%
%TO.C,IC18*%
X125545000Y-64650000D03*
X126815000Y-64650000D03*
X128085000Y-64650000D03*
X129355000Y-64650000D03*
X129355000Y-59350000D03*
X128085000Y-59350000D03*
X126815000Y-59350000D03*
X125545000Y-59350000D03*
%TD*%
%TO.C,IC17*%
X115545000Y-64650000D03*
X116815000Y-64650000D03*
X118085000Y-64650000D03*
X119355000Y-64650000D03*
X119355000Y-59350000D03*
X118085000Y-59350000D03*
X116815000Y-59350000D03*
X115545000Y-59350000D03*
%TD*%
%TO.C,IC16*%
X105495000Y-64650000D03*
X106765000Y-64650000D03*
X108035000Y-64650000D03*
X109305000Y-64650000D03*
X109305000Y-59350000D03*
X108035000Y-59350000D03*
X106765000Y-59350000D03*
X105495000Y-59350000D03*
%TD*%
%TO.C,IC15*%
X145545000Y-74650000D03*
X146815000Y-74650000D03*
X148085000Y-74650000D03*
X149355000Y-74650000D03*
X149355000Y-69350000D03*
X148085000Y-69350000D03*
X146815000Y-69350000D03*
X145545000Y-69350000D03*
%TD*%
%TO.C,IC14*%
X135545000Y-74650000D03*
X136815000Y-74650000D03*
X138085000Y-74650000D03*
X139355000Y-74650000D03*
X139355000Y-69350000D03*
X138085000Y-69350000D03*
X136815000Y-69350000D03*
X135545000Y-69350000D03*
%TD*%
%TO.C,IC13*%
X125545000Y-74650000D03*
X126815000Y-74650000D03*
X128085000Y-74650000D03*
X129355000Y-74650000D03*
X129355000Y-69350000D03*
X128085000Y-69350000D03*
X126815000Y-69350000D03*
X125545000Y-69350000D03*
%TD*%
%TO.C,IC12*%
X115545000Y-74650000D03*
X116815000Y-74650000D03*
X118085000Y-74650000D03*
X119355000Y-74650000D03*
X119355000Y-69350000D03*
X118085000Y-69350000D03*
X116815000Y-69350000D03*
X115545000Y-69350000D03*
%TD*%
%TO.C,IC11*%
X105495000Y-74650000D03*
X106765000Y-74650000D03*
X108035000Y-74650000D03*
X109305000Y-74650000D03*
X109305000Y-69350000D03*
X108035000Y-69350000D03*
X106765000Y-69350000D03*
X105495000Y-69350000D03*
%TD*%
%TO.C,IC10*%
X145545000Y-84650000D03*
X146815000Y-84650000D03*
X148085000Y-84650000D03*
X149355000Y-84650000D03*
X149355000Y-79350000D03*
X148085000Y-79350000D03*
X146815000Y-79350000D03*
X145545000Y-79350000D03*
%TD*%
%TO.C,IC9*%
X135545000Y-84650000D03*
X136815000Y-84650000D03*
X138085000Y-84650000D03*
X139355000Y-84650000D03*
X139355000Y-79350000D03*
X138085000Y-79350000D03*
X136815000Y-79350000D03*
X135545000Y-79350000D03*
%TD*%
%TO.C,IC8*%
X125545000Y-84650000D03*
X126815000Y-84650000D03*
X128085000Y-84650000D03*
X129355000Y-84650000D03*
X129355000Y-79350000D03*
X128085000Y-79350000D03*
X126815000Y-79350000D03*
X125545000Y-79350000D03*
%TD*%
%TO.C,IC7*%
X115545000Y-84650000D03*
X116815000Y-84650000D03*
X118085000Y-84650000D03*
X119355000Y-84650000D03*
X119355000Y-79350000D03*
X118085000Y-79350000D03*
X116815000Y-79350000D03*
X115545000Y-79350000D03*
%TD*%
%TO.C,IC6*%
X105495000Y-84650000D03*
X106765000Y-84650000D03*
X108035000Y-84650000D03*
X109305000Y-84650000D03*
X109305000Y-79350000D03*
X108035000Y-79350000D03*
X106765000Y-79350000D03*
X105495000Y-79350000D03*
%TD*%
%TO.C,IC5*%
X145545000Y-94650000D03*
X146815000Y-94650000D03*
X148085000Y-94650000D03*
X149355000Y-94650000D03*
X149355000Y-89350000D03*
X148085000Y-89350000D03*
X146815000Y-89350000D03*
X145545000Y-89350000D03*
%TD*%
%TO.C,IC4*%
X135545000Y-94650000D03*
X136815000Y-94650000D03*
X138085000Y-94650000D03*
X139355000Y-94650000D03*
X139355000Y-89350000D03*
X138085000Y-89350000D03*
X136815000Y-89350000D03*
X135545000Y-89350000D03*
%TD*%
%TO.C,IC3*%
X125545000Y-94650000D03*
X126815000Y-94650000D03*
X128085000Y-94650000D03*
X129355000Y-94650000D03*
X129355000Y-89350000D03*
X128085000Y-89350000D03*
X126815000Y-89350000D03*
X125545000Y-89350000D03*
%TD*%
%TO.C,IC2*%
X115545000Y-94650000D03*
X116815000Y-94650000D03*
X118085000Y-94650000D03*
X119355000Y-94650000D03*
X119355000Y-89350000D03*
X118085000Y-89350000D03*
X116815000Y-89350000D03*
X115545000Y-89350000D03*
%TD*%
%TO.C,IC1*%
X105495000Y-94650000D03*
X106765000Y-94650000D03*
X108035000Y-94650000D03*
X109305000Y-94650000D03*
X109305000Y-89350000D03*
X108035000Y-89350000D03*
X106765000Y-89350000D03*
X105495000Y-89350000D03*
%TD*%
D11*
%TO.C,F1*%
X127095000Y-101400000D03*
X132005000Y-101400000D03*
%TD*%
D12*
%TO.C,R29*%
X136438000Y-96700000D03*
X137458000Y-96700000D03*
%TD*%
D13*
%TO.C,C60*%
X143650000Y-43037500D03*
X143650000Y-40962500D03*
%TD*%
%TO.C,C28*%
X133650000Y-73037500D03*
X133650000Y-70962500D03*
%TD*%
D14*
%TO.C,C35*%
X131050000Y-62662500D03*
X131050000Y-60937500D03*
%TD*%
D13*
%TO.C,C36*%
X123650000Y-63037500D03*
X123650000Y-60962500D03*
%TD*%
%TO.C,C48*%
X133650000Y-53037500D03*
X133650000Y-50962500D03*
%TD*%
D14*
%TO.C,C57*%
X141050000Y-42662500D03*
X141050000Y-40937500D03*
%TD*%
D15*
%TO.C,R4*%
X146940000Y-46700000D03*
X147960000Y-46700000D03*
%TD*%
D14*
%TO.C,C7*%
X141050000Y-92662500D03*
X141050000Y-90937500D03*
%TD*%
%TO.C,C39*%
X151050000Y-62662500D03*
X151050000Y-60937500D03*
%TD*%
D13*
%TO.C,C30*%
X143650000Y-73037500D03*
X143650000Y-70962500D03*
%TD*%
D14*
%TO.C,C49*%
X151050000Y-52662500D03*
X151050000Y-50937500D03*
%TD*%
D13*
%TO.C,C66*%
X133650000Y-33037500D03*
X133650000Y-30962500D03*
%TD*%
D14*
%TO.C,C63*%
X131050000Y-32662500D03*
X131050000Y-30937500D03*
%TD*%
%TO.C,C23*%
X121050000Y-72662500D03*
X121050000Y-70937500D03*
%TD*%
D12*
%TO.C,R25*%
X127960000Y-86700000D03*
X126940000Y-86700000D03*
%TD*%
%TO.C,R24*%
X117960000Y-96700000D03*
X116940000Y-96700000D03*
%TD*%
D13*
%TO.C,C2*%
X103600000Y-92450000D03*
X103600000Y-90375000D03*
%TD*%
D14*
%TO.C,C21*%
X111000000Y-72662500D03*
X111000000Y-70937500D03*
%TD*%
D13*
%TO.C,C8*%
X133650000Y-93037500D03*
X133650000Y-90962500D03*
%TD*%
%TO.C,C6*%
X123650000Y-93037500D03*
X123650000Y-90962500D03*
%TD*%
D14*
%TO.C,C41*%
X111000000Y-52662500D03*
X111000000Y-50937500D03*
%TD*%
D13*
%TO.C,C4*%
X113650000Y-93037500D03*
X113650000Y-90962500D03*
%TD*%
D15*
%TO.C,R15*%
X106940000Y-76700000D03*
X107960000Y-76700000D03*
%TD*%
D14*
%TO.C,C3*%
X121050000Y-92662500D03*
X121050000Y-90937500D03*
%TD*%
D12*
%TO.C,R30*%
X137960000Y-76700000D03*
X136940000Y-76700000D03*
%TD*%
D14*
%TO.C,C59*%
X151050000Y-42662500D03*
X151050000Y-40937500D03*
%TD*%
D13*
%TO.C,C52*%
X103600000Y-42450000D03*
X103600000Y-40375000D03*
%TD*%
D14*
%TO.C,C15*%
X131050000Y-82662500D03*
X131050000Y-80937500D03*
%TD*%
D12*
%TO.C,R18*%
X107960000Y-46700000D03*
X106940000Y-46700000D03*
%TD*%
D13*
%TO.C,C10*%
X143650000Y-93037500D03*
X143650000Y-90962500D03*
%TD*%
%TO.C,C56*%
X123650000Y-43037500D03*
X123650000Y-40962500D03*
%TD*%
D14*
%TO.C,C17*%
X141050000Y-82662500D03*
X141050000Y-80937500D03*
%TD*%
%TO.C,C51*%
X111000000Y-42662500D03*
X111000000Y-40937500D03*
%TD*%
D12*
%TO.C,R21*%
X117960000Y-76700000D03*
X116940000Y-76700000D03*
%TD*%
D13*
%TO.C,C22*%
X103600000Y-72450000D03*
X103600000Y-70375000D03*
%TD*%
%TO.C,C20*%
X143650000Y-83037500D03*
X143650000Y-80962500D03*
%TD*%
D15*
%TO.C,R10*%
X126940000Y-46700000D03*
X127960000Y-46700000D03*
%TD*%
D12*
%TO.C,R32*%
X147960000Y-56700000D03*
X146940000Y-56700000D03*
%TD*%
D15*
%TO.C,R2*%
X146940000Y-76700000D03*
X147960000Y-76700000D03*
%TD*%
D14*
%TO.C,C31*%
X111000000Y-62662500D03*
X111000000Y-60937500D03*
%TD*%
D13*
%TO.C,C50*%
X143650000Y-53037500D03*
X143650000Y-50962500D03*
%TD*%
D14*
%TO.C,C27*%
X141050000Y-72662500D03*
X141050000Y-70937500D03*
%TD*%
D15*
%TO.C,R14*%
X116940000Y-36700000D03*
X117960000Y-36700000D03*
%TD*%
D12*
%TO.C,R26*%
X127960000Y-66700000D03*
X126940000Y-66700000D03*
%TD*%
D15*
%TO.C,R11*%
X116940000Y-86700000D03*
X117960000Y-86700000D03*
%TD*%
D14*
%TO.C,C1*%
X111000000Y-92662500D03*
X111000000Y-90937500D03*
%TD*%
%TO.C,C43*%
X121050000Y-52662500D03*
X121050000Y-50937500D03*
%TD*%
D12*
%TO.C,R20*%
X107960000Y-86700000D03*
X106940000Y-86700000D03*
%TD*%
D14*
%TO.C,C19*%
X151050000Y-82662500D03*
X151050000Y-80937500D03*
%TD*%
D13*
%TO.C,C46*%
X123650000Y-53037500D03*
X123650000Y-50962500D03*
%TD*%
%TO.C,C38*%
X133650000Y-63037500D03*
X133650000Y-60962500D03*
%TD*%
%TO.C,C44*%
X113650000Y-53037500D03*
X113650000Y-50962500D03*
%TD*%
D14*
%TO.C,C11*%
X111000000Y-82662500D03*
X111000000Y-80937500D03*
%TD*%
D13*
%TO.C,C62*%
X113650000Y-33037500D03*
X113650000Y-30962500D03*
%TD*%
D14*
%TO.C,C33*%
X121050000Y-62662500D03*
X121050000Y-60937500D03*
%TD*%
%TO.C,C61*%
X121050000Y-32662500D03*
X121050000Y-30937500D03*
%TD*%
D12*
%TO.C,R28*%
X137960000Y-36700000D03*
X136940000Y-36700000D03*
%TD*%
%TO.C,R17*%
X107960000Y-66700000D03*
X106940000Y-66700000D03*
%TD*%
D13*
%TO.C,C14*%
X113650000Y-83037500D03*
X113650000Y-80962500D03*
%TD*%
D14*
%TO.C,C5*%
X131050000Y-92662500D03*
X131050000Y-90937500D03*
%TD*%
D13*
%TO.C,C42*%
X103600000Y-52450000D03*
X103600000Y-50375000D03*
%TD*%
%TO.C,C24*%
X113650000Y-73037500D03*
X113650000Y-70962500D03*
%TD*%
D12*
%TO.C,R19*%
X107960000Y-96700000D03*
X106940000Y-96700000D03*
%TD*%
D14*
%TO.C,C53*%
X121050000Y-42662500D03*
X121050000Y-40937500D03*
%TD*%
D13*
%TO.C,C58*%
X133650000Y-43037500D03*
X133650000Y-40962500D03*
%TD*%
%TO.C,C12*%
X103600000Y-82450000D03*
X103600000Y-80375000D03*
%TD*%
D14*
%TO.C,C47*%
X141050000Y-52662500D03*
X141050000Y-50937500D03*
%TD*%
%TO.C,C25*%
X131050000Y-72662500D03*
X131050000Y-70937500D03*
%TD*%
D12*
%TO.C,R34*%
X147960000Y-86700000D03*
X146940000Y-86700000D03*
%TD*%
D13*
%TO.C,C64*%
X123650000Y-33037500D03*
X123650000Y-30962500D03*
%TD*%
%TO.C,C34*%
X113650000Y-63037500D03*
X113650000Y-60962500D03*
%TD*%
D15*
%TO.C,R8*%
X126940000Y-76700000D03*
X127960000Y-76700000D03*
%TD*%
D14*
%TO.C,C9*%
X151050000Y-92662500D03*
X151050000Y-90937500D03*
%TD*%
D13*
%TO.C,C54*%
X113650000Y-43037500D03*
X113650000Y-40962500D03*
%TD*%
D12*
%TO.C,R23*%
X127960000Y-36700000D03*
X126940000Y-36700000D03*
%TD*%
D15*
%TO.C,R5*%
X136940000Y-86700000D03*
X137960000Y-86700000D03*
%TD*%
D12*
%TO.C,R27*%
X137960000Y-46700000D03*
X136940000Y-46700000D03*
%TD*%
D15*
%TO.C,R16*%
X106940000Y-56700000D03*
X107960000Y-56700000D03*
%TD*%
D13*
%TO.C,C26*%
X123650000Y-73037500D03*
X123650000Y-70962500D03*
%TD*%
D15*
%TO.C,R9*%
X126940000Y-56700000D03*
X127960000Y-56700000D03*
%TD*%
D12*
%TO.C,R31*%
X147960000Y-66700000D03*
X146940000Y-66700000D03*
%TD*%
D13*
%TO.C,C32*%
X103600000Y-62450000D03*
X103600000Y-60375000D03*
%TD*%
D15*
%TO.C,R7*%
X136950000Y-56700000D03*
X137970000Y-56700000D03*
%TD*%
D14*
%TO.C,C55*%
X131050000Y-42662500D03*
X131050000Y-40937500D03*
%TD*%
D13*
%TO.C,C16*%
X123650000Y-83037500D03*
X123650000Y-80962500D03*
%TD*%
D15*
%TO.C,R12*%
X116940000Y-66700000D03*
X117960000Y-66700000D03*
%TD*%
D13*
%TO.C,C18*%
X133650000Y-83037500D03*
X133650000Y-80962500D03*
%TD*%
D14*
%TO.C,C29*%
X151050000Y-72662500D03*
X151050000Y-70937500D03*
%TD*%
D15*
%TO.C,R1*%
X148060000Y-96400000D03*
X149080000Y-96400000D03*
%TD*%
%TO.C,R3*%
X126940000Y-96700000D03*
X127960000Y-96700000D03*
%TD*%
D14*
%TO.C,C45*%
X131050000Y-52662500D03*
X131050000Y-50937500D03*
%TD*%
D13*
%TO.C,C40*%
X143650000Y-63037500D03*
X143650000Y-60962500D03*
%TD*%
D15*
%TO.C,R6*%
X136940000Y-66700000D03*
X137960000Y-66700000D03*
%TD*%
D12*
%TO.C,R22*%
X117960000Y-56700000D03*
X116940000Y-56700000D03*
%TD*%
D14*
%TO.C,C65*%
X141050000Y-32662500D03*
X141050000Y-30937500D03*
%TD*%
D15*
%TO.C,R13*%
X116940000Y-46700000D03*
X117960000Y-46700000D03*
%TD*%
D14*
%TO.C,C37*%
X141050000Y-62662500D03*
X141050000Y-60937500D03*
%TD*%
%TO.C,C13*%
X121050000Y-82662500D03*
X121050000Y-80937500D03*
%TD*%
D16*
%TO.C,J2*%
X142300000Y-102600000D03*
D17*
X142300000Y-98640000D03*
%TD*%
D18*
%TO.C,REF\u002A\u002A*%
X102150000Y-102250000D03*
D19*
X102150000Y-102250000D03*
%TD*%
D18*
%TO.C,REF\u002A\u002A*%
X152800000Y-102250000D03*
D19*
X152800000Y-102250000D03*
%TD*%
D18*
%TO.C,REF\u002A\u002A*%
X145850000Y-28600000D03*
D19*
X145850000Y-28600000D03*
%TD*%
D18*
%TO.C,REF\u002A\u002A*%
X109050000Y-28600000D03*
D19*
X109050000Y-28600000D03*
%TD*%
D20*
%TO.C,J1*%
X151580000Y-108960000D03*
X151580000Y-111500000D03*
X149040000Y-108960000D03*
X149040000Y-111500000D03*
X146500000Y-108960000D03*
X146500000Y-111500000D03*
X143960000Y-108960000D03*
X143960000Y-111500000D03*
X141420000Y-108960000D03*
X141420000Y-111500000D03*
X138880000Y-108960000D03*
X138880000Y-111500000D03*
X136340000Y-108960000D03*
X136340000Y-111500000D03*
X133800000Y-108960000D03*
X133800000Y-111500000D03*
X131260000Y-108960000D03*
X131260000Y-111500000D03*
X128720000Y-108960000D03*
X128720000Y-111500000D03*
X126180000Y-108960000D03*
X126180000Y-111500000D03*
X123640000Y-108960000D03*
X123640000Y-111500000D03*
X121100000Y-108960000D03*
X121100000Y-111500000D03*
X118560000Y-108960000D03*
X118560000Y-111500000D03*
X116020000Y-108960000D03*
X116020000Y-111500000D03*
X113480000Y-108960000D03*
X113480000Y-111500000D03*
X110940000Y-108960000D03*
X110940000Y-111500000D03*
X108400000Y-108960000D03*
X108400000Y-111500000D03*
X105860000Y-108960000D03*
X105860000Y-111500000D03*
X103320000Y-108960000D03*
D21*
X103320000Y-111500000D03*
%TD*%
D22*
%TO.C,LS29*%
X139950000Y-37000000D03*
X134950000Y-37000000D03*
%TD*%
%TO.C,LS23*%
X129950000Y-47000000D03*
X124950000Y-47000000D03*
%TD*%
%TO.C,LS24*%
X139950000Y-47000000D03*
X134950000Y-47000000D03*
%TD*%
%TO.C,LS3*%
X129950000Y-87000000D03*
X124950000Y-87000000D03*
%TD*%
%TO.C,LS7*%
X119950000Y-77000000D03*
X114950000Y-77000000D03*
%TD*%
%TO.C,LS5*%
X149950000Y-87000000D03*
X144950000Y-87000000D03*
%TD*%
%TO.C,LS2*%
X119950000Y-87000000D03*
X114950000Y-87000000D03*
%TD*%
%TO.C,LS20*%
X149950000Y-57000000D03*
X144950000Y-57000000D03*
%TD*%
%TO.C,LS27*%
X119950000Y-37000000D03*
X114950000Y-37000000D03*
%TD*%
%TO.C,LS1*%
X109900000Y-87000000D03*
X104900000Y-87000000D03*
%TD*%
%TO.C,LS6*%
X109900000Y-77000000D03*
X104900000Y-77000000D03*
%TD*%
%TO.C,LS17*%
X119950000Y-57000000D03*
X114950000Y-57000000D03*
%TD*%
%TO.C,LS19*%
X139950000Y-57000000D03*
X134950000Y-57000000D03*
%TD*%
%TO.C,LS9*%
X139950000Y-77000000D03*
X134950000Y-77000000D03*
%TD*%
%TO.C,LS26*%
X109900000Y-37000000D03*
X104900000Y-37000000D03*
%TD*%
%TO.C,LS15*%
X149950000Y-67000000D03*
X144950000Y-67000000D03*
%TD*%
%TO.C,LS10*%
X149950000Y-77000000D03*
X144950000Y-77000000D03*
%TD*%
%TO.C,LS14*%
X139950000Y-67000000D03*
X134950000Y-67000000D03*
%TD*%
%TO.C,LS11*%
X109900000Y-67000000D03*
X104900000Y-67000000D03*
%TD*%
%TO.C,LS8*%
X129950000Y-77000000D03*
X124950000Y-77000000D03*
%TD*%
%TO.C,LS16*%
X109900000Y-57000000D03*
X104900000Y-57000000D03*
%TD*%
%TO.C,LS12*%
X119950000Y-67000000D03*
X114950000Y-67000000D03*
%TD*%
%TO.C,LS33*%
X139950000Y-27000000D03*
X134950000Y-27000000D03*
%TD*%
%TO.C,LS32*%
X129950000Y-27000000D03*
X124950000Y-27000000D03*
%TD*%
%TO.C,LS13*%
X129950000Y-67000000D03*
X124950000Y-67000000D03*
%TD*%
%TO.C,LS28*%
X129950000Y-37000000D03*
X124950000Y-37000000D03*
%TD*%
%TO.C,LS21*%
X109900000Y-47000000D03*
X104900000Y-47000000D03*
%TD*%
%TO.C,LS22*%
X119950000Y-47000000D03*
X114950000Y-47000000D03*
%TD*%
%TO.C,LS25*%
X149950000Y-47000000D03*
X144950000Y-47000000D03*
%TD*%
%TO.C,LS18*%
X129950000Y-57000000D03*
X124950000Y-57000000D03*
%TD*%
%TO.C,LS4*%
X139950000Y-87000000D03*
X134950000Y-87000000D03*
%TD*%
%TO.C,LS30*%
X149950000Y-37000000D03*
X144950000Y-37000000D03*
%TD*%
%TO.C,LS31*%
X119950000Y-27000000D03*
X114950000Y-27000000D03*
%TD*%
M02*
