%TF.GenerationSoftware,KiCad,Pcbnew,9.0.3*%
%TF.CreationDate,2026-05-23T04:47:08+08:00*%
%TF.ProjectId,AcousticGripper_DaughterboardV1.1,41636f75-7374-4696-9347-726970706572,rev?*%
%TF.SameCoordinates,Original*%
%TF.FileFunction,Legend,Top*%
%TF.FilePolarity,Positive*%
%FSLAX46Y46*%
G04 Gerber Fmt 4.6, Leading zero omitted, Abs format (unit mm)*
G04 Created by KiCad (PCBNEW 9.0.3) date 2026-05-23 04:47:08*
%MOMM*%
%LPD*%
G01*
G04 APERTURE LIST*
%ADD10C,0.150000*%
%ADD11C,0.300000*%
%ADD12C,0.200000*%
%ADD13C,0.280489*%
%ADD14C,0.120000*%
%ADD15C,0.100000*%
G04 APERTURE END LIST*
D10*
X138374874Y-96369819D02*
X138641541Y-97369819D01*
X138641541Y-97369819D02*
X138908207Y-96369819D01*
X139174874Y-96988866D02*
X139784398Y-96988866D01*
D11*
X133645488Y-100185912D02*
X133645488Y-98685912D01*
X133645488Y-98685912D02*
X134216917Y-98685912D01*
X134216917Y-98685912D02*
X134359774Y-98757341D01*
X134359774Y-98757341D02*
X134431203Y-98828769D01*
X134431203Y-98828769D02*
X134502631Y-98971626D01*
X134502631Y-98971626D02*
X134502631Y-99185912D01*
X134502631Y-99185912D02*
X134431203Y-99328769D01*
X134431203Y-99328769D02*
X134359774Y-99400198D01*
X134359774Y-99400198D02*
X134216917Y-99471626D01*
X134216917Y-99471626D02*
X133645488Y-99471626D01*
X135002631Y-98685912D02*
X135359774Y-100185912D01*
X135359774Y-100185912D02*
X135645488Y-99114484D01*
X135645488Y-99114484D02*
X135931203Y-100185912D01*
X135931203Y-100185912D02*
X136288346Y-98685912D01*
X137716917Y-100185912D02*
X137216917Y-99471626D01*
X136859774Y-100185912D02*
X136859774Y-98685912D01*
X136859774Y-98685912D02*
X137431203Y-98685912D01*
X137431203Y-98685912D02*
X137574060Y-98757341D01*
X137574060Y-98757341D02*
X137645489Y-98828769D01*
X137645489Y-98828769D02*
X137716917Y-98971626D01*
X137716917Y-98971626D02*
X137716917Y-99185912D01*
X137716917Y-99185912D02*
X137645489Y-99328769D01*
X137645489Y-99328769D02*
X137574060Y-99400198D01*
X137574060Y-99400198D02*
X137431203Y-99471626D01*
X137431203Y-99471626D02*
X136859774Y-99471626D01*
X136074059Y-102600828D02*
X136074059Y-101100828D01*
X136788345Y-102600828D02*
X136788345Y-101100828D01*
X136788345Y-101100828D02*
X137645488Y-102600828D01*
X137645488Y-102600828D02*
X137645488Y-101100828D01*
D10*
X138524874Y-103869819D02*
X138791541Y-104869819D01*
X138791541Y-104869819D02*
X139058207Y-103869819D01*
X139324874Y-104488866D02*
X139934398Y-104488866D01*
X139629636Y-104869819D02*
X139629636Y-104107914D01*
D11*
X113133082Y-99807341D02*
X113847368Y-99807341D01*
X112990225Y-100235912D02*
X113490225Y-98735912D01*
X113490225Y-98735912D02*
X113990225Y-100235912D01*
X115275939Y-98807341D02*
X115133082Y-98735912D01*
X115133082Y-98735912D02*
X114918796Y-98735912D01*
X114918796Y-98735912D02*
X114704510Y-98807341D01*
X114704510Y-98807341D02*
X114561653Y-98950198D01*
X114561653Y-98950198D02*
X114490224Y-99093055D01*
X114490224Y-99093055D02*
X114418796Y-99378769D01*
X114418796Y-99378769D02*
X114418796Y-99593055D01*
X114418796Y-99593055D02*
X114490224Y-99878769D01*
X114490224Y-99878769D02*
X114561653Y-100021626D01*
X114561653Y-100021626D02*
X114704510Y-100164484D01*
X114704510Y-100164484D02*
X114918796Y-100235912D01*
X114918796Y-100235912D02*
X115061653Y-100235912D01*
X115061653Y-100235912D02*
X115275939Y-100164484D01*
X115275939Y-100164484D02*
X115347367Y-100093055D01*
X115347367Y-100093055D02*
X115347367Y-99593055D01*
X115347367Y-99593055D02*
X115061653Y-99593055D01*
X117133081Y-100235912D02*
X117133081Y-98735912D01*
X117133081Y-98735912D02*
X117490224Y-98735912D01*
X117490224Y-98735912D02*
X117704510Y-98807341D01*
X117704510Y-98807341D02*
X117847367Y-98950198D01*
X117847367Y-98950198D02*
X117918796Y-99093055D01*
X117918796Y-99093055D02*
X117990224Y-99378769D01*
X117990224Y-99378769D02*
X117990224Y-99593055D01*
X117990224Y-99593055D02*
X117918796Y-99878769D01*
X117918796Y-99878769D02*
X117847367Y-100021626D01*
X117847367Y-100021626D02*
X117704510Y-100164484D01*
X117704510Y-100164484D02*
X117490224Y-100235912D01*
X117490224Y-100235912D02*
X117133081Y-100235912D01*
X118847367Y-100235912D02*
X118704510Y-100164484D01*
X118704510Y-100164484D02*
X118633081Y-100093055D01*
X118633081Y-100093055D02*
X118561653Y-99950198D01*
X118561653Y-99950198D02*
X118561653Y-99521626D01*
X118561653Y-99521626D02*
X118633081Y-99378769D01*
X118633081Y-99378769D02*
X118704510Y-99307341D01*
X118704510Y-99307341D02*
X118847367Y-99235912D01*
X118847367Y-99235912D02*
X119061653Y-99235912D01*
X119061653Y-99235912D02*
X119204510Y-99307341D01*
X119204510Y-99307341D02*
X119275939Y-99378769D01*
X119275939Y-99378769D02*
X119347367Y-99521626D01*
X119347367Y-99521626D02*
X119347367Y-99950198D01*
X119347367Y-99950198D02*
X119275939Y-100093055D01*
X119275939Y-100093055D02*
X119204510Y-100164484D01*
X119204510Y-100164484D02*
X119061653Y-100235912D01*
X119061653Y-100235912D02*
X118847367Y-100235912D01*
X120490224Y-99450198D02*
X120704510Y-99521626D01*
X120704510Y-99521626D02*
X120775939Y-99593055D01*
X120775939Y-99593055D02*
X120847367Y-99735912D01*
X120847367Y-99735912D02*
X120847367Y-99950198D01*
X120847367Y-99950198D02*
X120775939Y-100093055D01*
X120775939Y-100093055D02*
X120704510Y-100164484D01*
X120704510Y-100164484D02*
X120561653Y-100235912D01*
X120561653Y-100235912D02*
X119990224Y-100235912D01*
X119990224Y-100235912D02*
X119990224Y-98735912D01*
X119990224Y-98735912D02*
X120490224Y-98735912D01*
X120490224Y-98735912D02*
X120633082Y-98807341D01*
X120633082Y-98807341D02*
X120704510Y-98878769D01*
X120704510Y-98878769D02*
X120775939Y-99021626D01*
X120775939Y-99021626D02*
X120775939Y-99164484D01*
X120775939Y-99164484D02*
X120704510Y-99307341D01*
X120704510Y-99307341D02*
X120633082Y-99378769D01*
X120633082Y-99378769D02*
X120490224Y-99450198D01*
X120490224Y-99450198D02*
X119990224Y-99450198D01*
X121704510Y-100235912D02*
X121561653Y-100164484D01*
X121561653Y-100164484D02*
X121490224Y-100093055D01*
X121490224Y-100093055D02*
X121418796Y-99950198D01*
X121418796Y-99950198D02*
X121418796Y-99521626D01*
X121418796Y-99521626D02*
X121490224Y-99378769D01*
X121490224Y-99378769D02*
X121561653Y-99307341D01*
X121561653Y-99307341D02*
X121704510Y-99235912D01*
X121704510Y-99235912D02*
X121918796Y-99235912D01*
X121918796Y-99235912D02*
X122061653Y-99307341D01*
X122061653Y-99307341D02*
X122133082Y-99378769D01*
X122133082Y-99378769D02*
X122204510Y-99521626D01*
X122204510Y-99521626D02*
X122204510Y-99950198D01*
X122204510Y-99950198D02*
X122133082Y-100093055D01*
X122133082Y-100093055D02*
X122061653Y-100164484D01*
X122061653Y-100164484D02*
X121918796Y-100235912D01*
X121918796Y-100235912D02*
X121704510Y-100235912D01*
X112990225Y-101150828D02*
X113490225Y-102650828D01*
X113490225Y-102650828D02*
X113990225Y-101150828D01*
X115275939Y-102650828D02*
X114418796Y-102650828D01*
X114847367Y-102650828D02*
X114847367Y-101150828D01*
X114847367Y-101150828D02*
X114704510Y-101365114D01*
X114704510Y-101365114D02*
X114561653Y-101507971D01*
X114561653Y-101507971D02*
X114418796Y-101579400D01*
X115918795Y-102507971D02*
X115990224Y-102579400D01*
X115990224Y-102579400D02*
X115918795Y-102650828D01*
X115918795Y-102650828D02*
X115847367Y-102579400D01*
X115847367Y-102579400D02*
X115918795Y-102507971D01*
X115918795Y-102507971D02*
X115918795Y-102650828D01*
X117418796Y-102650828D02*
X116561653Y-102650828D01*
X116990224Y-102650828D02*
X116990224Y-101150828D01*
X116990224Y-101150828D02*
X116847367Y-101365114D01*
X116847367Y-101365114D02*
X116704510Y-101507971D01*
X116704510Y-101507971D02*
X116561653Y-101579400D01*
X118490224Y-103222257D02*
X118418795Y-103150828D01*
X118418795Y-103150828D02*
X118275938Y-102936542D01*
X118275938Y-102936542D02*
X118204510Y-102793685D01*
X118204510Y-102793685D02*
X118133081Y-102579400D01*
X118133081Y-102579400D02*
X118061652Y-102222257D01*
X118061652Y-102222257D02*
X118061652Y-101936542D01*
X118061652Y-101936542D02*
X118133081Y-101579400D01*
X118133081Y-101579400D02*
X118204510Y-101365114D01*
X118204510Y-101365114D02*
X118275938Y-101222257D01*
X118275938Y-101222257D02*
X118418795Y-101007971D01*
X118418795Y-101007971D02*
X118490224Y-100936542D01*
X118990224Y-101293685D02*
X119061652Y-101222257D01*
X119061652Y-101222257D02*
X119204510Y-101150828D01*
X119204510Y-101150828D02*
X119561652Y-101150828D01*
X119561652Y-101150828D02*
X119704510Y-101222257D01*
X119704510Y-101222257D02*
X119775938Y-101293685D01*
X119775938Y-101293685D02*
X119847367Y-101436542D01*
X119847367Y-101436542D02*
X119847367Y-101579400D01*
X119847367Y-101579400D02*
X119775938Y-101793685D01*
X119775938Y-101793685D02*
X118918795Y-102650828D01*
X118918795Y-102650828D02*
X119847367Y-102650828D01*
X121133081Y-101150828D02*
X120847366Y-101150828D01*
X120847366Y-101150828D02*
X120704509Y-101222257D01*
X120704509Y-101222257D02*
X120633081Y-101293685D01*
X120633081Y-101293685D02*
X120490223Y-101507971D01*
X120490223Y-101507971D02*
X120418795Y-101793685D01*
X120418795Y-101793685D02*
X120418795Y-102365114D01*
X120418795Y-102365114D02*
X120490223Y-102507971D01*
X120490223Y-102507971D02*
X120561652Y-102579400D01*
X120561652Y-102579400D02*
X120704509Y-102650828D01*
X120704509Y-102650828D02*
X120990223Y-102650828D01*
X120990223Y-102650828D02*
X121133081Y-102579400D01*
X121133081Y-102579400D02*
X121204509Y-102507971D01*
X121204509Y-102507971D02*
X121275938Y-102365114D01*
X121275938Y-102365114D02*
X121275938Y-102007971D01*
X121275938Y-102007971D02*
X121204509Y-101865114D01*
X121204509Y-101865114D02*
X121133081Y-101793685D01*
X121133081Y-101793685D02*
X120990223Y-101722257D01*
X120990223Y-101722257D02*
X120704509Y-101722257D01*
X120704509Y-101722257D02*
X120561652Y-101793685D01*
X120561652Y-101793685D02*
X120490223Y-101865114D01*
X120490223Y-101865114D02*
X120418795Y-102007971D01*
X121847366Y-101293685D02*
X121918794Y-101222257D01*
X121918794Y-101222257D02*
X122061652Y-101150828D01*
X122061652Y-101150828D02*
X122418794Y-101150828D01*
X122418794Y-101150828D02*
X122561652Y-101222257D01*
X122561652Y-101222257D02*
X122633080Y-101293685D01*
X122633080Y-101293685D02*
X122704509Y-101436542D01*
X122704509Y-101436542D02*
X122704509Y-101579400D01*
X122704509Y-101579400D02*
X122633080Y-101793685D01*
X122633080Y-101793685D02*
X121775937Y-102650828D01*
X121775937Y-102650828D02*
X122704509Y-102650828D01*
X124133080Y-102650828D02*
X123275937Y-102650828D01*
X123704508Y-102650828D02*
X123704508Y-101150828D01*
X123704508Y-101150828D02*
X123561651Y-101365114D01*
X123561651Y-101365114D02*
X123418794Y-101507971D01*
X123418794Y-101507971D02*
X123275937Y-101579400D01*
X124633079Y-103222257D02*
X124704508Y-103150828D01*
X124704508Y-103150828D02*
X124847365Y-102936542D01*
X124847365Y-102936542D02*
X124918794Y-102793685D01*
X124918794Y-102793685D02*
X124990222Y-102579400D01*
X124990222Y-102579400D02*
X125061651Y-102222257D01*
X125061651Y-102222257D02*
X125061651Y-101936542D01*
X125061651Y-101936542D02*
X124990222Y-101579400D01*
X124990222Y-101579400D02*
X124918794Y-101365114D01*
X124918794Y-101365114D02*
X124847365Y-101222257D01*
X124847365Y-101222257D02*
X124704508Y-101007971D01*
X124704508Y-101007971D02*
X124633079Y-100936542D01*
D12*
%TO.C,IC33*%
X135000000Y-33700000D02*
X135000000Y-30300000D01*
X139900000Y-33700000D02*
X139900000Y-30300000D01*
D13*
X134840244Y-34650000D02*
G75*
G02*
X134559756Y-34650000I-140244J0D01*
G01*
X134559756Y-34650000D02*
G75*
G02*
X134840244Y-34650000I140244J0D01*
G01*
D12*
%TO.C,IC32*%
X125000000Y-33700000D02*
X125000000Y-30300000D01*
X129900000Y-33700000D02*
X129900000Y-30300000D01*
D13*
X124840244Y-34650000D02*
G75*
G02*
X124559756Y-34650000I-140244J0D01*
G01*
X124559756Y-34650000D02*
G75*
G02*
X124840244Y-34650000I140244J0D01*
G01*
D12*
%TO.C,IC31*%
X115000000Y-33700000D02*
X115000000Y-30300000D01*
X119900000Y-33700000D02*
X119900000Y-30300000D01*
D13*
X114840244Y-34650000D02*
G75*
G02*
X114559756Y-34650000I-140244J0D01*
G01*
X114559756Y-34650000D02*
G75*
G02*
X114840244Y-34650000I140244J0D01*
G01*
D12*
%TO.C,IC30*%
X145000000Y-43700000D02*
X145000000Y-40300000D01*
X149900000Y-43700000D02*
X149900000Y-40300000D01*
D13*
X144840244Y-44650000D02*
G75*
G02*
X144559756Y-44650000I-140244J0D01*
G01*
X144559756Y-44650000D02*
G75*
G02*
X144840244Y-44650000I140244J0D01*
G01*
D12*
%TO.C,IC29*%
X135000000Y-43700000D02*
X135000000Y-40300000D01*
X139900000Y-43700000D02*
X139900000Y-40300000D01*
D13*
X134840244Y-44650000D02*
G75*
G02*
X134559756Y-44650000I-140244J0D01*
G01*
X134559756Y-44650000D02*
G75*
G02*
X134840244Y-44650000I140244J0D01*
G01*
D12*
%TO.C,IC28*%
X125000000Y-43700000D02*
X125000000Y-40300000D01*
X129900000Y-43700000D02*
X129900000Y-40300000D01*
D13*
X124840244Y-44650000D02*
G75*
G02*
X124559756Y-44650000I-140244J0D01*
G01*
X124559756Y-44650000D02*
G75*
G02*
X124840244Y-44650000I140244J0D01*
G01*
D12*
%TO.C,IC27*%
X115000000Y-43700000D02*
X115000000Y-40300000D01*
X119900000Y-43700000D02*
X119900000Y-40300000D01*
D13*
X114840244Y-44650000D02*
G75*
G02*
X114559756Y-44650000I-140244J0D01*
G01*
X114559756Y-44650000D02*
G75*
G02*
X114840244Y-44650000I140244J0D01*
G01*
D12*
%TO.C,IC26*%
X104950000Y-43700000D02*
X104950000Y-40300000D01*
X109850000Y-43700000D02*
X109850000Y-40300000D01*
D13*
X104790244Y-44650000D02*
G75*
G02*
X104509756Y-44650000I-140244J0D01*
G01*
X104509756Y-44650000D02*
G75*
G02*
X104790244Y-44650000I140244J0D01*
G01*
D12*
%TO.C,IC25*%
X145000000Y-53700000D02*
X145000000Y-50300000D01*
X149900000Y-53700000D02*
X149900000Y-50300000D01*
D13*
X144840244Y-54650000D02*
G75*
G02*
X144559756Y-54650000I-140244J0D01*
G01*
X144559756Y-54650000D02*
G75*
G02*
X144840244Y-54650000I140244J0D01*
G01*
D12*
%TO.C,IC24*%
X135000000Y-53700000D02*
X135000000Y-50300000D01*
X139900000Y-53700000D02*
X139900000Y-50300000D01*
D13*
X134840244Y-54650000D02*
G75*
G02*
X134559756Y-54650000I-140244J0D01*
G01*
X134559756Y-54650000D02*
G75*
G02*
X134840244Y-54650000I140244J0D01*
G01*
D12*
%TO.C,IC23*%
X125000000Y-53700000D02*
X125000000Y-50300000D01*
X129900000Y-53700000D02*
X129900000Y-50300000D01*
D13*
X124840244Y-54650000D02*
G75*
G02*
X124559756Y-54650000I-140244J0D01*
G01*
X124559756Y-54650000D02*
G75*
G02*
X124840244Y-54650000I140244J0D01*
G01*
D12*
%TO.C,IC22*%
X115000000Y-53700000D02*
X115000000Y-50300000D01*
X119900000Y-53700000D02*
X119900000Y-50300000D01*
D13*
X114840244Y-54650000D02*
G75*
G02*
X114559756Y-54650000I-140244J0D01*
G01*
X114559756Y-54650000D02*
G75*
G02*
X114840244Y-54650000I140244J0D01*
G01*
D12*
%TO.C,IC21*%
X104950000Y-53700000D02*
X104950000Y-50300000D01*
X109850000Y-53700000D02*
X109850000Y-50300000D01*
D13*
X104790244Y-54650000D02*
G75*
G02*
X104509756Y-54650000I-140244J0D01*
G01*
X104509756Y-54650000D02*
G75*
G02*
X104790244Y-54650000I140244J0D01*
G01*
D12*
%TO.C,IC20*%
X145000000Y-63700000D02*
X145000000Y-60300000D01*
X149900000Y-63700000D02*
X149900000Y-60300000D01*
D13*
X144840244Y-64650000D02*
G75*
G02*
X144559756Y-64650000I-140244J0D01*
G01*
X144559756Y-64650000D02*
G75*
G02*
X144840244Y-64650000I140244J0D01*
G01*
D12*
%TO.C,IC19*%
X135000000Y-63700000D02*
X135000000Y-60300000D01*
X139900000Y-63700000D02*
X139900000Y-60300000D01*
D13*
X134840244Y-64650000D02*
G75*
G02*
X134559756Y-64650000I-140244J0D01*
G01*
X134559756Y-64650000D02*
G75*
G02*
X134840244Y-64650000I140244J0D01*
G01*
D12*
%TO.C,IC18*%
X125000000Y-63700000D02*
X125000000Y-60300000D01*
X129900000Y-63700000D02*
X129900000Y-60300000D01*
D13*
X124840244Y-64650000D02*
G75*
G02*
X124559756Y-64650000I-140244J0D01*
G01*
X124559756Y-64650000D02*
G75*
G02*
X124840244Y-64650000I140244J0D01*
G01*
D12*
%TO.C,IC17*%
X115000000Y-63700000D02*
X115000000Y-60300000D01*
X119900000Y-63700000D02*
X119900000Y-60300000D01*
D13*
X114840244Y-64650000D02*
G75*
G02*
X114559756Y-64650000I-140244J0D01*
G01*
X114559756Y-64650000D02*
G75*
G02*
X114840244Y-64650000I140244J0D01*
G01*
D12*
%TO.C,IC16*%
X104950000Y-63700000D02*
X104950000Y-60300000D01*
X109850000Y-63700000D02*
X109850000Y-60300000D01*
D13*
X104790244Y-64650000D02*
G75*
G02*
X104509756Y-64650000I-140244J0D01*
G01*
X104509756Y-64650000D02*
G75*
G02*
X104790244Y-64650000I140244J0D01*
G01*
D12*
%TO.C,IC15*%
X145000000Y-73700000D02*
X145000000Y-70300000D01*
X149900000Y-73700000D02*
X149900000Y-70300000D01*
D13*
X144840244Y-74650000D02*
G75*
G02*
X144559756Y-74650000I-140244J0D01*
G01*
X144559756Y-74650000D02*
G75*
G02*
X144840244Y-74650000I140244J0D01*
G01*
D12*
%TO.C,IC14*%
X135000000Y-73700000D02*
X135000000Y-70300000D01*
X139900000Y-73700000D02*
X139900000Y-70300000D01*
D13*
X134840244Y-74650000D02*
G75*
G02*
X134559756Y-74650000I-140244J0D01*
G01*
X134559756Y-74650000D02*
G75*
G02*
X134840244Y-74650000I140244J0D01*
G01*
D12*
%TO.C,IC13*%
X125000000Y-73700000D02*
X125000000Y-70300000D01*
X129900000Y-73700000D02*
X129900000Y-70300000D01*
D13*
X124840244Y-74650000D02*
G75*
G02*
X124559756Y-74650000I-140244J0D01*
G01*
X124559756Y-74650000D02*
G75*
G02*
X124840244Y-74650000I140244J0D01*
G01*
D12*
%TO.C,IC12*%
X115000000Y-73700000D02*
X115000000Y-70300000D01*
X119900000Y-73700000D02*
X119900000Y-70300000D01*
D13*
X114840244Y-74650000D02*
G75*
G02*
X114559756Y-74650000I-140244J0D01*
G01*
X114559756Y-74650000D02*
G75*
G02*
X114840244Y-74650000I140244J0D01*
G01*
D12*
%TO.C,IC11*%
X104950000Y-73700000D02*
X104950000Y-70300000D01*
X109850000Y-73700000D02*
X109850000Y-70300000D01*
D13*
X104790244Y-74650000D02*
G75*
G02*
X104509756Y-74650000I-140244J0D01*
G01*
X104509756Y-74650000D02*
G75*
G02*
X104790244Y-74650000I140244J0D01*
G01*
D12*
%TO.C,IC10*%
X145000000Y-83700000D02*
X145000000Y-80300000D01*
X149900000Y-83700000D02*
X149900000Y-80300000D01*
D13*
X144840244Y-84650000D02*
G75*
G02*
X144559756Y-84650000I-140244J0D01*
G01*
X144559756Y-84650000D02*
G75*
G02*
X144840244Y-84650000I140244J0D01*
G01*
D12*
%TO.C,IC9*%
X135000000Y-83700000D02*
X135000000Y-80300000D01*
X139900000Y-83700000D02*
X139900000Y-80300000D01*
D13*
X134840244Y-84650000D02*
G75*
G02*
X134559756Y-84650000I-140244J0D01*
G01*
X134559756Y-84650000D02*
G75*
G02*
X134840244Y-84650000I140244J0D01*
G01*
D12*
%TO.C,IC8*%
X125000000Y-83700000D02*
X125000000Y-80300000D01*
X129900000Y-83700000D02*
X129900000Y-80300000D01*
D13*
X124840244Y-84650000D02*
G75*
G02*
X124559756Y-84650000I-140244J0D01*
G01*
X124559756Y-84650000D02*
G75*
G02*
X124840244Y-84650000I140244J0D01*
G01*
D12*
%TO.C,IC7*%
X115000000Y-83700000D02*
X115000000Y-80300000D01*
X119900000Y-83700000D02*
X119900000Y-80300000D01*
D13*
X114840244Y-84650000D02*
G75*
G02*
X114559756Y-84650000I-140244J0D01*
G01*
X114559756Y-84650000D02*
G75*
G02*
X114840244Y-84650000I140244J0D01*
G01*
D12*
%TO.C,IC6*%
X104950000Y-83700000D02*
X104950000Y-80300000D01*
X109850000Y-83700000D02*
X109850000Y-80300000D01*
D13*
X104790244Y-84650000D02*
G75*
G02*
X104509756Y-84650000I-140244J0D01*
G01*
X104509756Y-84650000D02*
G75*
G02*
X104790244Y-84650000I140244J0D01*
G01*
D12*
%TO.C,IC5*%
X145000000Y-93700000D02*
X145000000Y-90300000D01*
X149900000Y-93700000D02*
X149900000Y-90300000D01*
D13*
X144840244Y-94650000D02*
G75*
G02*
X144559756Y-94650000I-140244J0D01*
G01*
X144559756Y-94650000D02*
G75*
G02*
X144840244Y-94650000I140244J0D01*
G01*
D12*
%TO.C,IC4*%
X135000000Y-93700000D02*
X135000000Y-90300000D01*
X139900000Y-93700000D02*
X139900000Y-90300000D01*
D13*
X134840244Y-94650000D02*
G75*
G02*
X134559756Y-94650000I-140244J0D01*
G01*
X134559756Y-94650000D02*
G75*
G02*
X134840244Y-94650000I140244J0D01*
G01*
D12*
%TO.C,IC3*%
X125000000Y-93700000D02*
X125000000Y-90300000D01*
X129900000Y-93700000D02*
X129900000Y-90300000D01*
D13*
X124840244Y-94650000D02*
G75*
G02*
X124559756Y-94650000I-140244J0D01*
G01*
X124559756Y-94650000D02*
G75*
G02*
X124840244Y-94650000I140244J0D01*
G01*
D12*
%TO.C,IC2*%
X115000000Y-93700000D02*
X115000000Y-90300000D01*
X119900000Y-93700000D02*
X119900000Y-90300000D01*
D13*
X114840244Y-94650000D02*
G75*
G02*
X114559756Y-94650000I-140244J0D01*
G01*
X114559756Y-94650000D02*
G75*
G02*
X114840244Y-94650000I140244J0D01*
G01*
D12*
%TO.C,IC1*%
X104950000Y-93700000D02*
X104950000Y-90300000D01*
X109850000Y-93700000D02*
X109850000Y-90300000D01*
D13*
X104790244Y-94650000D02*
G75*
G02*
X104509756Y-94650000I-140244J0D01*
G01*
X104509756Y-94650000D02*
G75*
G02*
X104790244Y-94650000I140244J0D01*
G01*
D14*
%TO.C,F1*%
X128335000Y-99945000D02*
X130765000Y-99945000D01*
X128335000Y-102855000D02*
X130765000Y-102855000D01*
%TO.C,R29*%
X136794359Y-96320000D02*
X137101641Y-96320000D01*
X136794359Y-97080000D02*
X137101641Y-97080000D01*
%TO.C,C60*%
X142915000Y-41738748D02*
X142915000Y-42261252D01*
X144385000Y-41738748D02*
X144385000Y-42261252D01*
%TO.C,C28*%
X132915000Y-71738748D02*
X132915000Y-72261252D01*
X134385000Y-71738748D02*
X134385000Y-72261252D01*
%TO.C,C35*%
X130540000Y-61653733D02*
X130540000Y-61946267D01*
X131560000Y-61653733D02*
X131560000Y-61946267D01*
%TO.C,C36*%
X122915000Y-61738748D02*
X122915000Y-62261252D01*
X124385000Y-61738748D02*
X124385000Y-62261252D01*
%TO.C,C48*%
X132915000Y-51738748D02*
X132915000Y-52261252D01*
X134385000Y-51738748D02*
X134385000Y-52261252D01*
%TO.C,C57*%
X140540000Y-41653733D02*
X140540000Y-41946267D01*
X141560000Y-41653733D02*
X141560000Y-41946267D01*
%TO.C,R4*%
X147603641Y-46320000D02*
X147296359Y-46320000D01*
X147603641Y-47080000D02*
X147296359Y-47080000D01*
%TO.C,C7*%
X140540000Y-91653733D02*
X140540000Y-91946267D01*
X141560000Y-91653733D02*
X141560000Y-91946267D01*
%TO.C,C39*%
X150540000Y-61653733D02*
X150540000Y-61946267D01*
X151560000Y-61653733D02*
X151560000Y-61946267D01*
%TO.C,C30*%
X142915000Y-71738748D02*
X142915000Y-72261252D01*
X144385000Y-71738748D02*
X144385000Y-72261252D01*
%TO.C,C49*%
X150540000Y-51653733D02*
X150540000Y-51946267D01*
X151560000Y-51653733D02*
X151560000Y-51946267D01*
%TO.C,C66*%
X132915000Y-31738748D02*
X132915000Y-32261252D01*
X134385000Y-31738748D02*
X134385000Y-32261252D01*
%TO.C,C63*%
X130540000Y-31653733D02*
X130540000Y-31946267D01*
X131560000Y-31653733D02*
X131560000Y-31946267D01*
%TO.C,C23*%
X120540000Y-71653733D02*
X120540000Y-71946267D01*
X121560000Y-71653733D02*
X121560000Y-71946267D01*
%TO.C,R25*%
X127296359Y-87080000D02*
X127603641Y-87080000D01*
X127296359Y-86320000D02*
X127603641Y-86320000D01*
%TO.C,R24*%
X117296359Y-97080000D02*
X117603641Y-97080000D01*
X117296359Y-96320000D02*
X117603641Y-96320000D01*
%TO.C,C2*%
X102865000Y-91151248D02*
X102865000Y-91673752D01*
X104335000Y-91151248D02*
X104335000Y-91673752D01*
%TO.C,C21*%
X110490000Y-71653733D02*
X110490000Y-71946267D01*
X111510000Y-71653733D02*
X111510000Y-71946267D01*
%TO.C,C8*%
X132915000Y-91738748D02*
X132915000Y-92261252D01*
X134385000Y-91738748D02*
X134385000Y-92261252D01*
%TO.C,C6*%
X122915000Y-91738748D02*
X122915000Y-92261252D01*
X124385000Y-91738748D02*
X124385000Y-92261252D01*
%TO.C,C41*%
X110490000Y-51653733D02*
X110490000Y-51946267D01*
X111510000Y-51653733D02*
X111510000Y-51946267D01*
%TO.C,C4*%
X112915000Y-91738748D02*
X112915000Y-92261252D01*
X114385000Y-91738748D02*
X114385000Y-92261252D01*
%TO.C,R15*%
X107603641Y-76320000D02*
X107296359Y-76320000D01*
X107603641Y-77080000D02*
X107296359Y-77080000D01*
%TO.C,C3*%
X120540000Y-91653733D02*
X120540000Y-91946267D01*
X121560000Y-91653733D02*
X121560000Y-91946267D01*
%TO.C,R30*%
X137296359Y-77080000D02*
X137603641Y-77080000D01*
X137296359Y-76320000D02*
X137603641Y-76320000D01*
%TO.C,C59*%
X150540000Y-41653733D02*
X150540000Y-41946267D01*
X151560000Y-41653733D02*
X151560000Y-41946267D01*
%TO.C,C52*%
X102865000Y-41151248D02*
X102865000Y-41673752D01*
X104335000Y-41151248D02*
X104335000Y-41673752D01*
%TO.C,C15*%
X130540000Y-81653733D02*
X130540000Y-81946267D01*
X131560000Y-81653733D02*
X131560000Y-81946267D01*
%TO.C,R18*%
X107296359Y-47080000D02*
X107603641Y-47080000D01*
X107296359Y-46320000D02*
X107603641Y-46320000D01*
%TO.C,C10*%
X142915000Y-91738748D02*
X142915000Y-92261252D01*
X144385000Y-91738748D02*
X144385000Y-92261252D01*
%TO.C,C56*%
X122915000Y-41738748D02*
X122915000Y-42261252D01*
X124385000Y-41738748D02*
X124385000Y-42261252D01*
%TO.C,C17*%
X140540000Y-81653733D02*
X140540000Y-81946267D01*
X141560000Y-81653733D02*
X141560000Y-81946267D01*
%TO.C,C51*%
X110490000Y-41653733D02*
X110490000Y-41946267D01*
X111510000Y-41653733D02*
X111510000Y-41946267D01*
%TO.C,R21*%
X117296359Y-77080000D02*
X117603641Y-77080000D01*
X117296359Y-76320000D02*
X117603641Y-76320000D01*
%TO.C,C22*%
X102865000Y-71151248D02*
X102865000Y-71673752D01*
X104335000Y-71151248D02*
X104335000Y-71673752D01*
%TO.C,C20*%
X142915000Y-81738748D02*
X142915000Y-82261252D01*
X144385000Y-81738748D02*
X144385000Y-82261252D01*
%TO.C,R10*%
X127603641Y-46320000D02*
X127296359Y-46320000D01*
X127603641Y-47080000D02*
X127296359Y-47080000D01*
%TO.C,R32*%
X147296359Y-57080000D02*
X147603641Y-57080000D01*
X147296359Y-56320000D02*
X147603641Y-56320000D01*
%TO.C,R2*%
X147603641Y-76320000D02*
X147296359Y-76320000D01*
X147603641Y-77080000D02*
X147296359Y-77080000D01*
%TO.C,C31*%
X110490000Y-61653733D02*
X110490000Y-61946267D01*
X111510000Y-61653733D02*
X111510000Y-61946267D01*
%TO.C,C50*%
X142915000Y-51738748D02*
X142915000Y-52261252D01*
X144385000Y-51738748D02*
X144385000Y-52261252D01*
%TO.C,C27*%
X140540000Y-71653733D02*
X140540000Y-71946267D01*
X141560000Y-71653733D02*
X141560000Y-71946267D01*
%TO.C,R14*%
X117603641Y-36320000D02*
X117296359Y-36320000D01*
X117603641Y-37080000D02*
X117296359Y-37080000D01*
%TO.C,R26*%
X127296359Y-67080000D02*
X127603641Y-67080000D01*
X127296359Y-66320000D02*
X127603641Y-66320000D01*
%TO.C,R11*%
X117603641Y-86320000D02*
X117296359Y-86320000D01*
X117603641Y-87080000D02*
X117296359Y-87080000D01*
%TO.C,C1*%
X110490000Y-91653733D02*
X110490000Y-91946267D01*
X111510000Y-91653733D02*
X111510000Y-91946267D01*
%TO.C,C43*%
X120540000Y-51653733D02*
X120540000Y-51946267D01*
X121560000Y-51653733D02*
X121560000Y-51946267D01*
%TO.C,R20*%
X107296359Y-87080000D02*
X107603641Y-87080000D01*
X107296359Y-86320000D02*
X107603641Y-86320000D01*
%TO.C,C19*%
X150540000Y-81653733D02*
X150540000Y-81946267D01*
X151560000Y-81653733D02*
X151560000Y-81946267D01*
%TO.C,C46*%
X122915000Y-51738748D02*
X122915000Y-52261252D01*
X124385000Y-51738748D02*
X124385000Y-52261252D01*
%TO.C,C38*%
X132915000Y-61738748D02*
X132915000Y-62261252D01*
X134385000Y-61738748D02*
X134385000Y-62261252D01*
%TO.C,C44*%
X112915000Y-51738748D02*
X112915000Y-52261252D01*
X114385000Y-51738748D02*
X114385000Y-52261252D01*
%TO.C,C11*%
X110490000Y-81653733D02*
X110490000Y-81946267D01*
X111510000Y-81653733D02*
X111510000Y-81946267D01*
%TO.C,C62*%
X112915000Y-31738748D02*
X112915000Y-32261252D01*
X114385000Y-31738748D02*
X114385000Y-32261252D01*
%TO.C,C33*%
X120540000Y-61653733D02*
X120540000Y-61946267D01*
X121560000Y-61653733D02*
X121560000Y-61946267D01*
%TO.C,C61*%
X120540000Y-31653733D02*
X120540000Y-31946267D01*
X121560000Y-31653733D02*
X121560000Y-31946267D01*
%TO.C,R28*%
X137296359Y-37080000D02*
X137603641Y-37080000D01*
X137296359Y-36320000D02*
X137603641Y-36320000D01*
%TO.C,R17*%
X107296359Y-67080000D02*
X107603641Y-67080000D01*
X107296359Y-66320000D02*
X107603641Y-66320000D01*
%TO.C,C14*%
X112915000Y-81738748D02*
X112915000Y-82261252D01*
X114385000Y-81738748D02*
X114385000Y-82261252D01*
%TO.C,C5*%
X130540000Y-91653733D02*
X130540000Y-91946267D01*
X131560000Y-91653733D02*
X131560000Y-91946267D01*
%TO.C,C42*%
X102865000Y-51151248D02*
X102865000Y-51673752D01*
X104335000Y-51151248D02*
X104335000Y-51673752D01*
%TO.C,C24*%
X112915000Y-71738748D02*
X112915000Y-72261252D01*
X114385000Y-71738748D02*
X114385000Y-72261252D01*
%TO.C,R19*%
X107296359Y-97080000D02*
X107603641Y-97080000D01*
X107296359Y-96320000D02*
X107603641Y-96320000D01*
%TO.C,C53*%
X120540000Y-41653733D02*
X120540000Y-41946267D01*
X121560000Y-41653733D02*
X121560000Y-41946267D01*
%TO.C,C58*%
X132915000Y-41738748D02*
X132915000Y-42261252D01*
X134385000Y-41738748D02*
X134385000Y-42261252D01*
%TO.C,C12*%
X102865000Y-81151248D02*
X102865000Y-81673752D01*
X104335000Y-81151248D02*
X104335000Y-81673752D01*
%TO.C,C47*%
X140540000Y-51653733D02*
X140540000Y-51946267D01*
X141560000Y-51653733D02*
X141560000Y-51946267D01*
%TO.C,C25*%
X130540000Y-71653733D02*
X130540000Y-71946267D01*
X131560000Y-71653733D02*
X131560000Y-71946267D01*
%TO.C,R34*%
X147296359Y-87080000D02*
X147603641Y-87080000D01*
X147296359Y-86320000D02*
X147603641Y-86320000D01*
%TO.C,C64*%
X122915000Y-31738748D02*
X122915000Y-32261252D01*
X124385000Y-31738748D02*
X124385000Y-32261252D01*
%TO.C,C34*%
X112915000Y-61738748D02*
X112915000Y-62261252D01*
X114385000Y-61738748D02*
X114385000Y-62261252D01*
%TO.C,R8*%
X127603641Y-76320000D02*
X127296359Y-76320000D01*
X127603641Y-77080000D02*
X127296359Y-77080000D01*
%TO.C,C9*%
X150540000Y-91653733D02*
X150540000Y-91946267D01*
X151560000Y-91653733D02*
X151560000Y-91946267D01*
%TO.C,C54*%
X112915000Y-41738748D02*
X112915000Y-42261252D01*
X114385000Y-41738748D02*
X114385000Y-42261252D01*
%TO.C,R23*%
X127296359Y-37080000D02*
X127603641Y-37080000D01*
X127296359Y-36320000D02*
X127603641Y-36320000D01*
%TO.C,R5*%
X137603641Y-86320000D02*
X137296359Y-86320000D01*
X137603641Y-87080000D02*
X137296359Y-87080000D01*
%TO.C,R27*%
X137296359Y-47080000D02*
X137603641Y-47080000D01*
X137296359Y-46320000D02*
X137603641Y-46320000D01*
%TO.C,R16*%
X107603641Y-56320000D02*
X107296359Y-56320000D01*
X107603641Y-57080000D02*
X107296359Y-57080000D01*
%TO.C,C26*%
X122915000Y-71738748D02*
X122915000Y-72261252D01*
X124385000Y-71738748D02*
X124385000Y-72261252D01*
%TO.C,R9*%
X127603641Y-56320000D02*
X127296359Y-56320000D01*
X127603641Y-57080000D02*
X127296359Y-57080000D01*
%TO.C,R31*%
X147296359Y-67080000D02*
X147603641Y-67080000D01*
X147296359Y-66320000D02*
X147603641Y-66320000D01*
%TO.C,C32*%
X102865000Y-61151248D02*
X102865000Y-61673752D01*
X104335000Y-61151248D02*
X104335000Y-61673752D01*
%TO.C,R7*%
X137613641Y-56320000D02*
X137306359Y-56320000D01*
X137613641Y-57080000D02*
X137306359Y-57080000D01*
%TO.C,C55*%
X130540000Y-41653733D02*
X130540000Y-41946267D01*
X131560000Y-41653733D02*
X131560000Y-41946267D01*
%TO.C,C16*%
X122915000Y-81738748D02*
X122915000Y-82261252D01*
X124385000Y-81738748D02*
X124385000Y-82261252D01*
%TO.C,R12*%
X117603641Y-66320000D02*
X117296359Y-66320000D01*
X117603641Y-67080000D02*
X117296359Y-67080000D01*
%TO.C,C18*%
X132915000Y-81738748D02*
X132915000Y-82261252D01*
X134385000Y-81738748D02*
X134385000Y-82261252D01*
%TO.C,C29*%
X150540000Y-71653733D02*
X150540000Y-71946267D01*
X151560000Y-71653733D02*
X151560000Y-71946267D01*
%TO.C,R1*%
X148723641Y-96020000D02*
X148416359Y-96020000D01*
X148723641Y-96780000D02*
X148416359Y-96780000D01*
%TO.C,R3*%
X127603641Y-96320000D02*
X127296359Y-96320000D01*
X127603641Y-97080000D02*
X127296359Y-97080000D01*
%TO.C,C45*%
X130540000Y-51653733D02*
X130540000Y-51946267D01*
X131560000Y-51653733D02*
X131560000Y-51946267D01*
%TO.C,C40*%
X142915000Y-61738748D02*
X142915000Y-62261252D01*
X144385000Y-61738748D02*
X144385000Y-62261252D01*
%TO.C,R6*%
X137603641Y-66320000D02*
X137296359Y-66320000D01*
X137603641Y-67080000D02*
X137296359Y-67080000D01*
%TO.C,R22*%
X117296359Y-57080000D02*
X117603641Y-57080000D01*
X117296359Y-56320000D02*
X117603641Y-56320000D01*
%TO.C,C65*%
X140540000Y-31653733D02*
X140540000Y-31946267D01*
X141560000Y-31653733D02*
X141560000Y-31946267D01*
%TO.C,R13*%
X117603641Y-46320000D02*
X117296359Y-46320000D01*
X117603641Y-47080000D02*
X117296359Y-47080000D01*
%TO.C,C37*%
X140540000Y-61653733D02*
X140540000Y-61946267D01*
X141560000Y-61653733D02*
X141560000Y-61946267D01*
%TO.C,C13*%
X120540000Y-81653733D02*
X120540000Y-81946267D01*
X121560000Y-81653733D02*
X121560000Y-81946267D01*
%TO.C,REF\u002A\u002A*%
D12*
X109900000Y-99400000D02*
X111150000Y-99400000D01*
X111150000Y-100650000D01*
X109900000Y-100650000D01*
X109900000Y-99400000D01*
G36*
X109900000Y-99400000D02*
G01*
X111150000Y-99400000D01*
X111150000Y-100650000D01*
X109900000Y-100650000D01*
X109900000Y-99400000D01*
G37*
X109275000Y-101900000D02*
X111150000Y-101900000D01*
X111150000Y-103150000D01*
X109275000Y-103150000D01*
X109275000Y-101900000D01*
X109275000Y-98150000D02*
X109900000Y-98150000D01*
X109900000Y-98775000D01*
X109275000Y-98775000D01*
X109275000Y-98150000D01*
X108025000Y-98775000D02*
X109275000Y-98775000D01*
X109275000Y-99400000D01*
X108025000Y-99400000D01*
X108025000Y-98775000D01*
D15*
X108025000Y-98150000D02*
X109275000Y-98150000D01*
X109275000Y-98775000D01*
X108025000Y-98775000D01*
X108025000Y-98150000D01*
D12*
X107400000Y-98150000D02*
X108025000Y-98150000D01*
X108025000Y-98775000D01*
X107400000Y-98775000D01*
X107400000Y-98150000D01*
X106150000Y-101900000D02*
X108025000Y-101900000D01*
X108025000Y-103150000D01*
X106150000Y-103150000D01*
X106150000Y-101900000D01*
X106150000Y-101275000D02*
X111150000Y-101275000D01*
X111150000Y-101900000D01*
X106150000Y-101900000D01*
X106150000Y-101275000D01*
X106150000Y-100650000D02*
X111150000Y-100650000D01*
X111150000Y-101275000D01*
X106150000Y-101275000D01*
X106150000Y-100650000D01*
X106150000Y-99400000D02*
X107400000Y-99400000D01*
X107400000Y-100650000D01*
X106150000Y-100650000D01*
X106150000Y-99400000D01*
G36*
X106150000Y-99400000D02*
G01*
X107400000Y-99400000D01*
X107400000Y-100650000D01*
X106150000Y-100650000D01*
X106150000Y-99400000D01*
G37*
X106150000Y-98150000D02*
X111150000Y-98150000D01*
X111150000Y-103150000D01*
X106150000Y-103150000D01*
X106150000Y-98150000D01*
D14*
%TO.C,J2*%
X142000000Y-105460000D02*
X142300000Y-104860000D01*
X142600000Y-105460000D02*
X142000000Y-105460000D01*
X142300000Y-104860000D02*
X142600000Y-105460000D01*
X140190000Y-104660000D02*
X140190000Y-103460000D01*
X147210000Y-104660000D02*
X140190000Y-104660000D01*
X138490000Y-103460000D02*
X138490000Y-97780000D01*
X140190000Y-103460000D02*
X138490000Y-103460000D01*
X138490000Y-97780000D02*
X140190000Y-97780000D01*
X140190000Y-97780000D02*
X140190000Y-96580000D01*
X140190000Y-96580000D02*
X147210000Y-96580000D01*
X147210000Y-96580000D02*
X147210000Y-104660000D01*
%TO.C,J1*%
X156790000Y-105670000D02*
X156790000Y-114790000D01*
X98110000Y-105670000D02*
X156790000Y-105670000D01*
X155490000Y-106980000D02*
X155490000Y-113480000D01*
X99410000Y-106980000D02*
X155490000Y-106980000D01*
X155490000Y-113480000D02*
X129500000Y-113480000D01*
X129500000Y-113480000D02*
X129500000Y-114790000D01*
X125400000Y-113480000D02*
X99410000Y-113480000D01*
X99410000Y-113480000D02*
X99410000Y-106980000D01*
X156790000Y-114790000D02*
X98110000Y-114790000D01*
X125400000Y-114790000D02*
X125400000Y-113480000D01*
X98110000Y-114790000D02*
X98110000Y-105670000D01*
X103320000Y-115180000D02*
X102820000Y-116180000D01*
X103820000Y-116180000D02*
X103320000Y-115180000D01*
X102820000Y-116180000D02*
X103820000Y-116180000D01*
%TD*%
M02*
