M48
; DRILL file {KiCad 9.0.3} date 2026-05-23T04:47:06+0800
; FORMAT={-:-/ absolute / metric / decimal}
; #@! TF.CreationDate,2026-05-23T04:47:06+08:00
; #@! TF.GenerationSoftware,Kicad,Pcbnew,9.0.3
; #@! TF.FileFunction,Plated,1,2,PTH
FMAT,2
METRIC
; #@! TA.AperFunction,Plated,PTH,ViaDrill
T1C0.300
; #@! TA.AperFunction,Plated,PTH,ViaDrill
T2C0.500
; #@! TA.AperFunction,Plated,PTH,ComponentDrill
T3C1.000
; #@! TA.AperFunction,Plated,PTH,ComponentDrill
T4C1.200
; #@! TA.AperFunction,Plated,PTH,ComponentDrill
T5C1.700
; #@! TA.AperFunction,Plated,PTH,ComponentDrill
T6C3.200
%
G90
G05
T1
X103.55Y-43.8
X103.6Y-53.75
X103.6Y-63.8
X103.6Y-83.8
X103.6Y-93.7
X107.45Y-47.7
X107.45Y-57.5
X107.45Y-67.55
X107.503Y-77.55
X107.904Y-87.5
X108.0Y-106.5
X108.85Y-96.75
X111.0Y-43.95
X111.0Y-53.95
X111.0Y-63.95
X111.0Y-73.9
X111.0Y-83.95
X111.0Y-93.95
X113.65Y-34.8
X113.65Y-44.35
X113.65Y-54.35
X113.65Y-64.35
X113.65Y-74.4
X113.65Y-84.4
X113.65Y-94.35
X117.3Y-37.6
X117.4Y-47.5
X117.45Y-57.5
X117.601Y-67.5
X118.002Y-77.5
X118.403Y-87.4
X119.05Y-96.75
X121.05Y-33.9
X121.05Y-43.95
X121.05Y-53.95
X121.05Y-63.95
X121.05Y-73.95
X121.05Y-83.95
X121.05Y-93.95
X123.45Y-54.45
X123.45Y-64.45
X123.65Y-94.35
X123.7Y-34.45
X123.7Y-44.45
X123.7Y-74.45
X123.7Y-84.45
X127.4Y-37.45
X127.4Y-47.5
X127.4Y-57.55
X127.553Y-67.5
X127.954Y-77.5
X128.355Y-87.55
X129.15Y-96.75
X130.95Y-33.95
X130.95Y-63.95
X130.95Y-73.95
X130.95Y-83.95
X131.05Y-93.9
X131.2Y-43.95
X131.2Y-53.95
X133.45Y-34.2
X133.45Y-94.45
X133.7Y-44.45
X133.7Y-54.45
X133.7Y-64.45
X133.7Y-74.45
X133.7Y-84.45
X137.35Y-37.5
X137.354Y-47.458
X137.95Y-57.45
X137.95Y-67.45
X138.05Y-77.45
X138.451Y-87.55
X139.05Y-96.75
X140.95Y-34.2
X140.95Y-43.95
X140.95Y-53.95
X140.95Y-73.95
X140.95Y-83.95
X140.95Y-93.95
X141.2Y-63.95
X143.45Y-64.45
X143.45Y-84.45
X143.45Y-94.2
X143.7Y-44.45
X143.7Y-54.45
X143.7Y-74.2
X147.85Y-67.45
X147.95Y-47.55
X147.95Y-57.45
X147.95Y-77.45
X148.15Y-87.35
X149.87Y-96.45
X151.05Y-43.95
X151.05Y-53.95
X151.05Y-63.95
X151.05Y-73.95
X151.05Y-83.95
X151.05Y-93.95
T2
X112.15Y-40.95
X112.15Y-70.95
X112.15Y-98.7
X112.25Y-50.938
X112.25Y-60.938
X112.25Y-80.962
X112.25Y-90.962
X115.45Y-31.05
X139.35Y-30.95
X142.25Y-40.95
X142.25Y-50.95
X142.25Y-60.95
X142.25Y-70.95
X142.25Y-80.95
X142.25Y-90.962
X142.25Y-94.416
T3
X103.32Y-108.96
X103.32Y-111.5
X105.86Y-108.96
X105.86Y-111.5
X108.4Y-108.96
X108.4Y-111.5
X110.94Y-108.96
X110.94Y-111.5
X113.48Y-108.96
X113.48Y-111.5
X116.02Y-108.96
X116.02Y-111.5
X118.56Y-108.96
X118.56Y-111.5
X121.1Y-108.96
X121.1Y-111.5
X123.64Y-108.96
X123.64Y-111.5
X126.18Y-108.96
X126.18Y-111.5
X128.72Y-108.96
X128.72Y-111.5
X131.26Y-108.96
X131.26Y-111.5
X133.8Y-108.96
X133.8Y-111.5
X136.34Y-108.96
X136.34Y-111.5
X138.88Y-108.96
X138.88Y-111.5
X141.42Y-108.96
X141.42Y-111.5
X143.96Y-108.96
X143.96Y-111.5
X146.5Y-108.96
X146.5Y-111.5
X149.04Y-108.96
X149.04Y-111.5
X151.58Y-108.96
X151.58Y-111.5
T4
X104.9Y-37.0
X104.9Y-47.0
X104.9Y-57.0
X104.9Y-67.0
X104.9Y-77.0
X104.9Y-87.0
X109.9Y-37.0
X109.9Y-47.0
X109.9Y-57.0
X109.9Y-67.0
X109.9Y-77.0
X109.9Y-87.0
X114.95Y-27.0
X114.95Y-37.0
X114.95Y-47.0
X114.95Y-57.0
X114.95Y-67.0
X114.95Y-77.0
X114.95Y-87.0
X119.95Y-27.0
X119.95Y-37.0
X119.95Y-47.0
X119.95Y-57.0
X119.95Y-67.0
X119.95Y-77.0
X119.95Y-87.0
X124.95Y-27.0
X124.95Y-37.0
X124.95Y-47.0
X124.95Y-57.0
X124.95Y-67.0
X124.95Y-77.0
X124.95Y-87.0
X129.95Y-27.0
X129.95Y-37.0
X129.95Y-47.0
X129.95Y-57.0
X129.95Y-67.0
X129.95Y-77.0
X129.95Y-87.0
X134.95Y-27.0
X134.95Y-37.0
X134.95Y-47.0
X134.95Y-57.0
X134.95Y-67.0
X134.95Y-77.0
X134.95Y-87.0
X139.95Y-27.0
X139.95Y-37.0
X139.95Y-47.0
X139.95Y-57.0
X139.95Y-67.0
X139.95Y-77.0
X139.95Y-87.0
X144.95Y-37.0
X144.95Y-47.0
X144.95Y-57.0
X144.95Y-67.0
X144.95Y-77.0
X144.95Y-87.0
X149.95Y-37.0
X149.95Y-47.0
X149.95Y-57.0
X149.95Y-67.0
X149.95Y-77.0
X149.95Y-87.0
T5
X142.3Y-98.64
X142.3Y-102.6
T6
X102.15Y-102.25
X109.05Y-28.6
X145.85Y-28.6
X152.8Y-102.25
M30
