%TF.GenerationSoftware,KiCad,Pcbnew,9.0.3*%
%TF.CreationDate,2026-05-23T04:47:08+08:00*%
%TF.ProjectId,AcousticGripper_DaughterboardV1.1,41636f75-7374-4696-9347-726970706572,rev?*%
%TF.SameCoordinates,Original*%
%TF.FileFunction,Soldermask,Bot*%
%TF.FilePolarity,Negative*%
%FSLAX46Y46*%
G04 Gerber Fmt 4.6, Leading zero omitted, Abs format (unit mm)*
G04 Created by KiCad (PCBNEW 9.0.3) date 2026-05-23 04:47:08*
%MOMM*%
%LPD*%
G01*
G04 APERTURE LIST*
G04 Aperture macros list*
%AMRoundRect*
0 Rectangle with rounded corners*
0 $1 Rounding radius*
0 $2 $3 $4 $5 $6 $7 $8 $9 X,Y pos of 4 corners*
0 Add a 4 corners polygon primitive as box body*
4,1,4,$2,$3,$4,$5,$6,$7,$8,$9,$2,$3,0*
0 Add four circle primitives for the rounded corners*
1,1,$1+$1,$2,$3*
1,1,$1+$1,$4,$5*
1,1,$1+$1,$6,$7*
1,1,$1+$1,$8,$9*
0 Add four rect primitives between the rounded corners*
20,1,$1+$1,$2,$3,$4,$5,0*
20,1,$1+$1,$4,$5,$6,$7,0*
20,1,$1+$1,$6,$7,$8,$9,0*
20,1,$1+$1,$8,$9,$2,$3,0*%
G04 Aperture macros list end*
%ADD10RoundRect,0.250001X1.099999X-1.099999X1.099999X1.099999X-1.099999X1.099999X-1.099999X-1.099999X0*%
%ADD11C,2.700000*%
%ADD12C,5.600000*%
%ADD13C,3.600000*%
%ADD14C,1.700000*%
%ADD15RoundRect,0.250000X0.600000X-0.600000X0.600000X0.600000X-0.600000X0.600000X-0.600000X-0.600000X0*%
%ADD16C,2.004000*%
G04 APERTURE END LIST*
D10*
%TO.C,J2*%
X142300000Y-102600000D03*
D11*
X142300000Y-98640000D03*
%TD*%
D12*
%TO.C,REF\u002A\u002A*%
X102150000Y-102250000D03*
D13*
X102150000Y-102250000D03*
%TD*%
D12*
%TO.C,REF\u002A\u002A*%
X152800000Y-102250000D03*
D13*
X152800000Y-102250000D03*
%TD*%
D12*
%TO.C,REF\u002A\u002A*%
X145850000Y-28600000D03*
D13*
X145850000Y-28600000D03*
%TD*%
D12*
%TO.C,REF\u002A\u002A*%
X109050000Y-28600000D03*
D13*
X109050000Y-28600000D03*
%TD*%
D14*
%TO.C,J1*%
X151580000Y-108960000D03*
X151580000Y-111500000D03*
X149040000Y-108960000D03*
X149040000Y-111500000D03*
X146500000Y-108960000D03*
X146500000Y-111500000D03*
X143960000Y-108960000D03*
X143960000Y-111500000D03*
X141420000Y-108960000D03*
X141420000Y-111500000D03*
X138880000Y-108960000D03*
X138880000Y-111500000D03*
X136340000Y-108960000D03*
X136340000Y-111500000D03*
X133800000Y-108960000D03*
X133800000Y-111500000D03*
X131260000Y-108960000D03*
X131260000Y-111500000D03*
X128720000Y-108960000D03*
X128720000Y-111500000D03*
X126180000Y-108960000D03*
X126180000Y-111500000D03*
X123640000Y-108960000D03*
X123640000Y-111500000D03*
X121100000Y-108960000D03*
X121100000Y-111500000D03*
X118560000Y-108960000D03*
X118560000Y-111500000D03*
X116020000Y-108960000D03*
X116020000Y-111500000D03*
X113480000Y-108960000D03*
X113480000Y-111500000D03*
X110940000Y-108960000D03*
X110940000Y-111500000D03*
X108400000Y-108960000D03*
X108400000Y-111500000D03*
X105860000Y-108960000D03*
X105860000Y-111500000D03*
X103320000Y-108960000D03*
D15*
X103320000Y-111500000D03*
%TD*%
D16*
%TO.C,LS29*%
X139950000Y-37000000D03*
X134950000Y-37000000D03*
%TD*%
%TO.C,LS23*%
X129950000Y-47000000D03*
X124950000Y-47000000D03*
%TD*%
%TO.C,LS24*%
X139950000Y-47000000D03*
X134950000Y-47000000D03*
%TD*%
%TO.C,LS3*%
X129950000Y-87000000D03*
X124950000Y-87000000D03*
%TD*%
%TO.C,LS7*%
X119950000Y-77000000D03*
X114950000Y-77000000D03*
%TD*%
%TO.C,LS5*%
X149950000Y-87000000D03*
X144950000Y-87000000D03*
%TD*%
%TO.C,LS2*%
X119950000Y-87000000D03*
X114950000Y-87000000D03*
%TD*%
%TO.C,LS20*%
X149950000Y-57000000D03*
X144950000Y-57000000D03*
%TD*%
%TO.C,LS27*%
X119950000Y-37000000D03*
X114950000Y-37000000D03*
%TD*%
%TO.C,LS1*%
X109900000Y-87000000D03*
X104900000Y-87000000D03*
%TD*%
%TO.C,LS6*%
X109900000Y-77000000D03*
X104900000Y-77000000D03*
%TD*%
%TO.C,LS17*%
X119950000Y-57000000D03*
X114950000Y-57000000D03*
%TD*%
%TO.C,LS19*%
X139950000Y-57000000D03*
X134950000Y-57000000D03*
%TD*%
%TO.C,LS9*%
X139950000Y-77000000D03*
X134950000Y-77000000D03*
%TD*%
%TO.C,LS26*%
X109900000Y-37000000D03*
X104900000Y-37000000D03*
%TD*%
%TO.C,LS15*%
X149950000Y-67000000D03*
X144950000Y-67000000D03*
%TD*%
%TO.C,LS10*%
X149950000Y-77000000D03*
X144950000Y-77000000D03*
%TD*%
%TO.C,LS14*%
X139950000Y-67000000D03*
X134950000Y-67000000D03*
%TD*%
%TO.C,LS11*%
X109900000Y-67000000D03*
X104900000Y-67000000D03*
%TD*%
%TO.C,LS8*%
X129950000Y-77000000D03*
X124950000Y-77000000D03*
%TD*%
%TO.C,LS16*%
X109900000Y-57000000D03*
X104900000Y-57000000D03*
%TD*%
%TO.C,LS12*%
X119950000Y-67000000D03*
X114950000Y-67000000D03*
%TD*%
%TO.C,LS33*%
X139950000Y-27000000D03*
X134950000Y-27000000D03*
%TD*%
%TO.C,LS32*%
X129950000Y-27000000D03*
X124950000Y-27000000D03*
%TD*%
%TO.C,LS13*%
X129950000Y-67000000D03*
X124950000Y-67000000D03*
%TD*%
%TO.C,LS28*%
X129950000Y-37000000D03*
X124950000Y-37000000D03*
%TD*%
%TO.C,LS21*%
X109900000Y-47000000D03*
X104900000Y-47000000D03*
%TD*%
%TO.C,LS22*%
X119950000Y-47000000D03*
X114950000Y-47000000D03*
%TD*%
%TO.C,LS25*%
X149950000Y-47000000D03*
X144950000Y-47000000D03*
%TD*%
%TO.C,LS18*%
X129950000Y-57000000D03*
X124950000Y-57000000D03*
%TD*%
%TO.C,LS4*%
X139950000Y-87000000D03*
X134950000Y-87000000D03*
%TD*%
%TO.C,LS30*%
X149950000Y-37000000D03*
X144950000Y-37000000D03*
%TD*%
%TO.C,LS31*%
X119950000Y-27000000D03*
X114950000Y-27000000D03*
%TD*%
M02*
