M48
; DRILL file {KiCad 9.0.3} date 2026-06-15T05:41:17+0800
; FORMAT={-:-/ absolute / metric / decimal}
; #@! TF.CreationDate,2026-06-15T05:41:17+08:00
; #@! TF.GenerationSoftware,Kicad,Pcbnew,9.0.3
; #@! TF.FileFunction,Plated,1,2,PTH
FMAT,2
METRIC
; #@! TA.AperFunction,Plated,PTH,ComponentDrill
T1C0.750
; #@! TA.AperFunction,Plated,PTH,ViaDrill
T2C1.000
; #@! TA.AperFunction,Plated,PTH,ComponentDrill
T3C1.000
; #@! TA.AperFunction,Plated,PTH,ComponentDrill
T4C1.300
; #@! TA.AperFunction,Plated,PTH,ComponentDrill
T5C1.700
; #@! TA.AperFunction,Plated,PTH,ViaDrill
T6C2.000
; #@! TA.AperFunction,Plated,PTH,ComponentDrill
T7C2.750
; #@! TA.AperFunction,Plated,PTH,ComponentDrill
T8C3.200
%
G90
G05
T1
X30.2Y-176.8
X30.2Y-178.8
X30.2Y-180.8
X38.2Y-176.8
X38.2Y-178.8
X38.2Y-180.8
X68.766Y-176.8
X68.766Y-178.8
X68.766Y-180.8
X97.45Y-99.5
X97.45Y-101.5
X97.45Y-103.5
X106.0Y-99.5
X106.0Y-101.5
X106.0Y-103.5
T2
X65.2Y-176.2
X65.2Y-178.6
X65.2Y-181.2
T3
X25.12Y-58.85
X25.12Y-61.39
X25.12Y-63.93
X25.12Y-66.47
X25.12Y-69.01
X25.12Y-71.55
X35.28Y-58.85
X35.28Y-61.39
X35.28Y-63.93
X35.28Y-66.47
X35.28Y-69.01
X35.28Y-71.55
X37.84Y-102.0
X40.38Y-102.0
X42.92Y-102.0
X45.46Y-102.0
X46.419Y-173.56
X46.419Y-176.1
X46.419Y-178.64
X46.419Y-181.18
X46.419Y-183.72
X48.0Y-102.0
X50.54Y-102.0
X55.35Y-66.785
X55.35Y-69.325
X55.35Y-71.865
X58.25Y-101.975
X60.79Y-101.975
X61.659Y-176.1
X61.659Y-178.64
X61.659Y-181.18
T4
X32.58Y-33.0
X32.58Y-95.0
X38.0Y-35.0
X38.0Y-93.0
X43.08Y-35.0
X43.08Y-93.0
X47.58Y-33.0
X47.58Y-95.0
X47.6Y-20.6
X47.6Y-25.6
X82.99Y-92.06
X83.0Y-35.08
X87.99Y-92.06
X88.0Y-35.08
T5
X80.648Y-176.8
X80.648Y-180.76
X92.33Y-176.8
X92.33Y-180.76
T6
X62.0Y-18.0
X62.0Y-21.0
X62.0Y-24.0
X64.7Y-24.7
X67.35Y-24.75
X70.0Y-18.0
X70.0Y-21.0
X70.0Y-24.0
T7
X33.0Y-109.5
X33.0Y-158.5
X66.75Y-35.5
X66.75Y-91.5
X91.0Y-109.5
X91.0Y-158.5
X104.25Y-35.5
X104.25Y-91.5
T8
X20.0Y-20.0
X20.0Y-159.0
X22.0Y-31.5
X22.037Y-178.8
X24.0Y-143.75
X24.5Y-153.75
X25.04Y-33.54
X25.04Y-94.04
X48.0Y-63.0
X56.04Y-33.54
X56.04Y-94.04
X102.037Y-178.8
X108.6Y-32.0
X111.5Y-20.0
X111.5Y-159.0
M30
