%TF.GenerationSoftware,KiCad,Pcbnew,9.0.3*%
%TF.CreationDate,2026-06-15T05:41:19+08:00*%
%TF.ProjectId,BaseStationV1,42617365-5374-4617-9469-6f6e56312e6b,rev?*%
%TF.SameCoordinates,Original*%
%TF.FileFunction,Profile,NP*%
%FSLAX46Y46*%
G04 Gerber Fmt 4.6, Leading zero omitted, Abs format (unit mm)*
G04 Created by KiCad (PCBNEW 9.0.3) date 2026-06-15 05:41:19*
%MOMM*%
%LPD*%
G01*
G04 APERTURE LIST*
G04 Aperture macros list*
%AMRoundRect*
0 Rectangle with rounded corners*
0 $1 Rounding radius*
0 $2 $3 $4 $5 $6 $7 $8 $9 X,Y pos of 4 corners*
0 Add a 4 corners polygon primitive as box body*
4,1,4,$2,$3,$4,$5,$6,$7,$8,$9,$2,$3,0*
0 Add four circle primitives for the rounded corners*
1,1,$1+$1,$2,$3*
1,1,$1+$1,$4,$5*
1,1,$1+$1,$6,$7*
1,1,$1+$1,$8,$9*
0 Add four rect primitives between the rounded corners*
20,1,$1+$1,$2,$3,$4,$5,0*
20,1,$1+$1,$4,$5,$6,$7,0*
20,1,$1+$1,$6,$7,$8,$9,0*
20,1,$1+$1,$8,$9,$2,$3,0*%
G04 Aperture macros list end*
%TA.AperFunction,Profile*%
%ADD10C,0.050000*%
%TD*%
%TA.AperFunction,ComponentPad*%
%ADD11C,5.600000*%
%TD*%
%TA.AperFunction,ComponentPad*%
%ADD12C,6.000000*%
%TD*%
%TA.AperFunction,ComponentPad*%
%ADD13C,2.600000*%
%TD*%
%TA.AperFunction,ComponentPad*%
%ADD14RoundRect,0.250000X1.050000X1.050000X-1.050000X1.050000X-1.050000X-1.050000X1.050000X-1.050000X0*%
%TD*%
%TA.AperFunction,ComponentPad*%
%ADD15RoundRect,0.250000X-1.050000X-1.050000X1.050000X-1.050000X1.050000X1.050000X-1.050000X1.050000X0*%
%TD*%
%TA.AperFunction,ComponentPad*%
%ADD16RoundRect,0.250000X0.625000X-0.350000X0.625000X0.350000X-0.625000X0.350000X-0.625000X-0.350000X0*%
%TD*%
%TA.AperFunction,ComponentPad*%
%ADD17O,1.750000X1.200000*%
%TD*%
%TA.AperFunction,ComponentPad*%
%ADD18R,1.700000X1.700000*%
%TD*%
%TA.AperFunction,ComponentPad*%
%ADD19C,1.700000*%
%TD*%
%TA.AperFunction,ComponentPad*%
%ADD20RoundRect,0.250000X1.050000X-1.050000X1.050000X1.050000X-1.050000X1.050000X-1.050000X-1.050000X0*%
%TD*%
%TA.AperFunction,ComponentPad*%
%ADD21C,3.300000*%
%TD*%
%TA.AperFunction,ComponentPad*%
%ADD22C,4.000000*%
%TD*%
%TA.AperFunction,ComponentPad*%
%ADD23C,6.200000*%
%TD*%
%TA.AperFunction,ComponentPad*%
%ADD24RoundRect,0.250001X1.099999X-1.099999X1.099999X1.099999X-1.099999X1.099999X-1.099999X-1.099999X0*%
%TD*%
%TA.AperFunction,ComponentPad*%
%ADD25C,2.700000*%
%TD*%
%TA.AperFunction,ComponentPad*%
%ADD26RoundRect,0.250000X-0.625000X0.350000X-0.625000X-0.350000X0.625000X-0.350000X0.625000X0.350000X0*%
%TD*%
%TA.AperFunction,ViaPad*%
%ADD27C,3.000000*%
%TD*%
%TA.AperFunction,ViaPad*%
%ADD28C,1.700000*%
%TD*%
%TA.AperFunction,Conductor*%
%ADD29C,2.000000*%
%TD*%
%TA.AperFunction,Conductor*%
%ADD30C,0.500000*%
%TD*%
%TA.AperFunction,Conductor*%
%ADD31C,4.000000*%
%TD*%
%TA.AperFunction,Conductor*%
%ADD32C,3.000000*%
%TD*%
G04 APERTURE END LIST*
D10*
X17000000Y-17000000D02*
X114500000Y-17000000D01*
X114500000Y-162000000D01*
X17000000Y-162000000D01*
X17000000Y-17000000D01*
X17000000Y-170300000D02*
X106800000Y-170300000D01*
X106800000Y-187300000D01*
X17000000Y-187300000D01*
X17000000Y-170300000D01*
D11*
%TO.P,REF\u002A\u002A,1*%
%TO.N,N/C*%
X20000000Y-20000000D03*
%TD*%
D12*
%TO.P,M1,*%
%TO.N,*%
X66750000Y-91500000D03*
X104250000Y-91500000D03*
X66750000Y-35500000D03*
X104250000Y-35500000D03*
D13*
%TO.P,M1,1,IN-*%
%TO.N,Net-(J3-Pin_2)*%
X83000000Y-35080000D03*
D14*
%TO.P,M1,2,IN+*%
%TO.N,Net-(J3-Pin_1)*%
X88000000Y-35080000D03*
D15*
%TO.P,M1,3*%
%TO.N,N/C*%
X82990000Y-92060000D03*
D13*
%TO.P,M1,4*%
X87990000Y-92060000D03*
%TD*%
D16*
%TO.P,J6,1,Pin_1*%
%TO.N,+3V3*%
X97450000Y-103500000D03*
D17*
%TO.P,J6,2,Pin_2*%
%TO.N,GND*%
X97450000Y-101500000D03*
%TO.P,J6,3,Pin_3*%
%TO.N,unconnected-(J6-Pin_3-Pad3)*%
X97450000Y-99500000D03*
%TD*%
D16*
%TO.P,J5,1,Pin_1*%
%TO.N,Net-(J5-Pin_1)*%
X68766071Y-180800000D03*
D17*
%TO.P,J5,2,Pin_2*%
%TO.N,Net-(J5-Pin_2)*%
X68766071Y-178800000D03*
%TO.P,J5,3,Pin_3*%
%TO.N,Net-(J5-Pin_3)*%
X68766071Y-176800000D03*
%TD*%
D18*
%TO.P,J7,1,Pin_1*%
%TO.N,+3V3*%
X58250000Y-101975000D03*
D19*
%TO.P,J7,2,Pin_2*%
%TO.N,GND*%
X60790000Y-101975000D03*
%TD*%
D20*
%TO.P,J3,1,Pin_1*%
%TO.N,Net-(J3-Pin_1)*%
X47600000Y-25600000D03*
D13*
%TO.P,J3,2,Pin_2*%
%TO.N,Net-(J3-Pin_2)*%
X47600000Y-20600000D03*
%TD*%
D21*
%TO.P,,1*%
%TO.N,N/C*%
X24500000Y-153750000D03*
%TD*%
D11*
%TO.P,REF\u002A\u002A,1*%
%TO.N,N/C*%
X111500000Y-20000000D03*
%TD*%
%TO.P,REF\u002A\u002A,1*%
%TO.N,N/C*%
X20000000Y-159000000D03*
%TD*%
D21*
%TO.P,REF\u002A\u002A,1*%
%TO.N,N/C*%
X108600000Y-32000000D03*
%TD*%
D13*
%TO.P,U1,1,IN+*%
%TO.N,Net-(J3-Pin_1)*%
X47580000Y-33000000D03*
X43080000Y-35000000D03*
%TO.P,U1,2,IN-*%
%TO.N,Net-(J3-Pin_2)*%
X32580000Y-33000000D03*
X38000000Y-35000000D03*
%TO.P,U1,3,OUT+*%
%TO.N,+5V*%
X43080000Y-93000000D03*
X47580000Y-95000000D03*
%TO.P,U1,4,OUT-*%
%TO.N,GND*%
X38000000Y-93000000D03*
X32580000Y-95000000D03*
D22*
%TO.P,U1,5*%
%TO.N,N/C*%
X56040000Y-33540000D03*
X25040000Y-33540000D03*
X56040000Y-94040000D03*
X25040000Y-94040000D03*
D19*
%TO.P,U1,6*%
X55350000Y-66785000D03*
%TO.P,U1,7*%
X55350000Y-69325000D03*
%TO.P,U1,8*%
X55350000Y-71865000D03*
%TO.P,U1,9*%
X35280000Y-58850000D03*
X25120000Y-58850000D03*
X35280000Y-61390000D03*
X25120000Y-61390000D03*
X35280000Y-63930000D03*
X25120000Y-63930000D03*
X35280000Y-66470000D03*
X25120000Y-66470000D03*
X35280000Y-69010000D03*
X25120000Y-69010000D03*
X35280000Y-71550000D03*
X25120000Y-71550000D03*
%TD*%
D11*
%TO.P,REF\u002A\u002A,1*%
%TO.N,N/C*%
X22037500Y-178800000D03*
%TD*%
D21*
%TO.P,,1*%
%TO.N,N/C*%
X22000000Y-31500000D03*
%TD*%
%TO.P,,1*%
%TO.N,N/C*%
X48000000Y-63000000D03*
%TD*%
D23*
%TO.P,J1,S1*%
%TO.N,N/C*%
X33000000Y-109500000D03*
%TO.P,J1,S2*%
X91000000Y-109500000D03*
%TO.P,J1,S3*%
X91000000Y-158500000D03*
%TO.P,J1,S4*%
X33000000Y-158500000D03*
%TD*%
D11*
%TO.P,REF\u002A\u002A,1*%
%TO.N,N/C*%
X111500000Y-159000000D03*
%TD*%
D16*
%TO.P,J8,1,Pin_1*%
%TO.N,Net-(J1-GPIO14{slash}UART_TXD)*%
X106000000Y-103500000D03*
D17*
%TO.P,J8,2,Pin_2*%
%TO.N,Net-(J1-GPIO15{slash}UART_RXD)*%
X106000000Y-101500000D03*
%TO.P,J8,3,Pin_3*%
%TO.N,Net-(J1-GPIO18{slash}SPI1_~{CE0}{slash}PCM_CLK{slash}PWM0)*%
X106000000Y-99500000D03*
%TD*%
D24*
%TO.P,J11,1,Pin_1*%
%TO.N,Net-(J11-Pin_1)*%
X92330357Y-180760000D03*
D25*
%TO.P,J11,2,Pin_2*%
%TO.N,Net-(J11-Pin_2)*%
X92330357Y-176800000D03*
%TD*%
D21*
%TO.P,,1*%
%TO.N,N/C*%
X24000000Y-143750000D03*
%TD*%
D18*
%TO.P,J4,1,Pin_1*%
%TO.N,+5V*%
X37840000Y-102000000D03*
D19*
%TO.P,J4,2,Pin_2*%
X40380000Y-102000000D03*
%TO.P,J4,3,Pin_3*%
%TO.N,GND*%
X42920000Y-102000000D03*
%TO.P,J4,4,Pin_4*%
%TO.N,Net-(J1-GPIO14{slash}UART_TXD)*%
X45460000Y-102000000D03*
%TO.P,J4,5,Pin_5*%
%TO.N,Net-(J1-GPIO15{slash}UART_RXD)*%
X48000000Y-102000000D03*
%TO.P,J4,6,Pin_6*%
%TO.N,Net-(J1-GPIO18{slash}SPI1_~{CE0}{slash}PCM_CLK{slash}PWM0)*%
X50540000Y-102000000D03*
%TD*%
D11*
%TO.P,,1*%
%TO.N,N/C*%
X102037500Y-178800000D03*
%TD*%
D19*
%TO.P,M2,1,GND*%
%TO.N,Net-(J5-Pin_1)*%
X61658929Y-181180000D03*
%TO.P,M2,2,A*%
%TO.N,Net-(J5-Pin_2)*%
X61658929Y-178640000D03*
%TO.P,M2,3,B*%
%TO.N,Net-(J5-Pin_3)*%
X61658929Y-176100000D03*
%TO.P,M2,4,EN*%
%TO.N,Net-(J1-GPIO18{slash}SPI1_~{CE0}{slash}PCM_CLK{slash}PWM0)*%
X46418929Y-183720000D03*
%TO.P,M2,5,VCC*%
%TO.N,+3V3*%
X46418929Y-181180000D03*
%TO.P,M2,6,RX*%
%TO.N,Net-(J1-GPIO15{slash}UART_RXD)*%
X46418929Y-178640000D03*
%TO.P,M2,7,TX*%
%TO.N,Net-(J1-GPIO14{slash}UART_TXD)*%
X46418929Y-176100000D03*
%TO.P,M2,8,GND*%
%TO.N,GND*%
X46418929Y-173560000D03*
%TD*%
D26*
%TO.P,J9,1,Pin_1*%
%TO.N,Net-(J1-GPIO14{slash}UART_TXD)*%
X38200000Y-176800000D03*
D17*
%TO.P,J9,2,Pin_2*%
%TO.N,Net-(J1-GPIO15{slash}UART_RXD)*%
X38200000Y-178800000D03*
%TO.P,J9,3,Pin_3*%
%TO.N,Net-(J1-GPIO18{slash}SPI1_~{CE0}{slash}PCM_CLK{slash}PWM0)*%
X38200000Y-180800000D03*
%TD*%
D26*
%TO.P,J10,1,Pin_1*%
%TO.N,+3V3*%
X30200000Y-176800000D03*
D17*
%TO.P,J10,2,Pin_2*%
%TO.N,GND*%
X30200000Y-178800000D03*
%TO.P,J10,3,Pin_3*%
%TO.N,unconnected-(J10-Pin_3-Pad3)*%
X30200000Y-180800000D03*
%TD*%
D24*
%TO.P,J2,1,Pin_1*%
%TO.N,Net-(J11-Pin_1)*%
X80648214Y-180760000D03*
D25*
%TO.P,J2,2,Pin_2*%
%TO.N,Net-(J11-Pin_2)*%
X80648214Y-176800000D03*
%TD*%
D27*
%TO.N,*%
X70000000Y-21000000D03*
X62000000Y-21000000D03*
X70000000Y-24000000D03*
X64700000Y-24700000D03*
X62000000Y-24000000D03*
X62000000Y-18000000D03*
X70000000Y-18000000D03*
X67350000Y-24750000D03*
D28*
%TO.N,Net-(J5-Pin_2)*%
X65200000Y-178600000D03*
%TO.N,Net-(J5-Pin_3)*%
X65200000Y-176200000D03*
%TO.N,Net-(J5-Pin_1)*%
X65200000Y-181200000D03*
%TD*%
D29*
%TO.N,GND*%
X41621081Y-104501000D02*
X35639000Y-104501000D01*
X32580000Y-101442000D02*
X32580000Y-95000000D01*
D30*
X61265000Y-101500000D02*
X60790000Y-101975000D01*
D29*
X38000000Y-93000000D02*
X34580000Y-93000000D01*
X35639000Y-104501000D02*
X32580000Y-101442000D01*
X42920000Y-102000000D02*
X42920000Y-103202081D01*
D30*
X97450000Y-101500000D02*
X61265000Y-101500000D01*
D29*
X42920000Y-103202081D02*
X41621081Y-104501000D01*
X34580000Y-93000000D02*
X32580000Y-95000000D01*
%TO.N,+5V*%
X37840000Y-102000000D02*
X40380000Y-102000000D01*
X38000000Y-101840000D02*
X37840000Y-102000000D01*
X38000000Y-98080000D02*
X38000000Y-101840000D01*
X43080000Y-93000000D02*
X45580000Y-93000000D01*
X43080000Y-93000000D02*
X38000000Y-98080000D01*
X45580000Y-93000000D02*
X47580000Y-95000000D01*
D30*
%TO.N,Net-(J1-GPIO18{slash}SPI1_~{CE0}{slash}PCM_CLK{slash}PWM0)*%
X53040000Y-99500000D02*
X50540000Y-102000000D01*
X106000000Y-99500000D02*
X104000000Y-97500000D01*
X104000000Y-97500000D02*
X95500000Y-97500000D01*
X95500000Y-97500000D02*
X93500000Y-99500000D01*
X93500000Y-99500000D02*
X53040000Y-99500000D01*
%TO.N,Net-(J1-GPIO15{slash}UART_RXD)*%
X52852000Y-97148000D02*
X48000000Y-102000000D01*
X107626000Y-100149000D02*
X107626000Y-97626000D01*
X64352000Y-97148000D02*
X52852000Y-97148000D01*
X65500000Y-96000000D02*
X64352000Y-97148000D01*
X106275000Y-101500000D02*
X107626000Y-100149000D01*
X107626000Y-97626000D02*
X106000000Y-96000000D01*
X106000000Y-101500000D02*
X106275000Y-101500000D01*
X106000000Y-96000000D02*
X65500000Y-96000000D01*
%TO.N,Net-(J1-GPIO14{slash}UART_TXD)*%
X45460000Y-102000000D02*
X48961000Y-105501000D01*
X48961000Y-105501000D02*
X103999000Y-105501000D01*
X103999000Y-105501000D02*
X106000000Y-103500000D01*
D31*
%TO.N,Net-(J3-Pin_2)*%
X32580000Y-33000000D02*
X32580000Y-37180000D01*
X32580000Y-37180000D02*
X37600000Y-42200000D01*
X37600000Y-42200000D02*
X75880000Y-42200000D01*
X38000000Y-35000000D02*
X34580000Y-35000000D01*
X75880000Y-42200000D02*
X82967312Y-35112688D01*
X34580000Y-35000000D02*
X32580000Y-33000000D01*
X44980000Y-20600000D02*
X32580000Y-33000000D01*
X47600000Y-20600000D02*
X44980000Y-20600000D01*
%TO.N,Net-(J3-Pin_1)*%
X45600000Y-27600000D02*
X45600000Y-32480000D01*
X55000000Y-28800000D02*
X85800000Y-28800000D01*
X47600000Y-25600000D02*
X51800000Y-25600000D01*
X45080000Y-33000000D02*
X43080000Y-35000000D01*
X51800000Y-25600000D02*
X55000000Y-28800000D01*
X47580000Y-33000000D02*
X45080000Y-33000000D01*
X45600000Y-32480000D02*
X45080000Y-33000000D01*
X47600000Y-25600000D02*
X45600000Y-27600000D01*
X88000000Y-31000000D02*
X88000000Y-35080000D01*
X85800000Y-28800000D02*
X88000000Y-31000000D01*
D30*
%TO.N,Net-(J5-Pin_2)*%
X65200000Y-178600000D02*
X68566071Y-178600000D01*
X68566071Y-178600000D02*
X68766071Y-178800000D01*
%TO.N,Net-(J5-Pin_3)*%
X68166071Y-176200000D02*
X68766071Y-176800000D01*
X65200000Y-176200000D02*
X68166071Y-176200000D01*
%TO.N,Net-(J5-Pin_1)*%
X68366071Y-181200000D02*
X68766071Y-180800000D01*
X65200000Y-181200000D02*
X68366071Y-181200000D01*
%TO.N,+3V3*%
X62500000Y-104500000D02*
X59500000Y-104500000D01*
X97450000Y-103500000D02*
X63500000Y-103500000D01*
X63500000Y-103500000D02*
X62500000Y-104500000D01*
X58250000Y-103250000D02*
X58250000Y-101975000D01*
X59500000Y-104500000D02*
X58250000Y-103250000D01*
%TD*%
D11*
%TO.P,REF\u002A\u002A,1*%
%TO.N,N/C*%
X20000000Y-20000000D03*
%TD*%
D12*
%TO.P,M1,*%
%TO.N,*%
X66750000Y-91500000D03*
X104250000Y-91500000D03*
X66750000Y-35500000D03*
X104250000Y-35500000D03*
D13*
%TO.P,M1,1,IN-*%
%TO.N,Net-(J3-Pin_2)*%
X83000000Y-35080000D03*
D14*
%TO.P,M1,2,IN+*%
%TO.N,Net-(J3-Pin_1)*%
X88000000Y-35080000D03*
D15*
%TO.P,M1,3*%
%TO.N,N/C*%
X82990000Y-92060000D03*
D13*
%TO.P,M1,4*%
X87990000Y-92060000D03*
%TD*%
D16*
%TO.P,J6,1,Pin_1*%
%TO.N,+3V3*%
X97450000Y-103500000D03*
D17*
%TO.P,J6,2,Pin_2*%
%TO.N,GND*%
X97450000Y-101500000D03*
%TO.P,J6,3,Pin_3*%
%TO.N,unconnected-(J6-Pin_3-Pad3)*%
X97450000Y-99500000D03*
%TD*%
D16*
%TO.P,J5,1,Pin_1*%
%TO.N,Net-(J5-Pin_1)*%
X68766071Y-180800000D03*
D17*
%TO.P,J5,2,Pin_2*%
%TO.N,Net-(J5-Pin_2)*%
X68766071Y-178800000D03*
%TO.P,J5,3,Pin_3*%
%TO.N,Net-(J5-Pin_3)*%
X68766071Y-176800000D03*
%TD*%
D18*
%TO.P,J7,1,Pin_1*%
%TO.N,+3V3*%
X58250000Y-101975000D03*
D19*
%TO.P,J7,2,Pin_2*%
%TO.N,GND*%
X60790000Y-101975000D03*
%TD*%
D20*
%TO.P,J3,1,Pin_1*%
%TO.N,Net-(J3-Pin_1)*%
X47600000Y-25600000D03*
D13*
%TO.P,J3,2,Pin_2*%
%TO.N,Net-(J3-Pin_2)*%
X47600000Y-20600000D03*
%TD*%
D21*
%TO.P,,1*%
%TO.N,N/C*%
X24500000Y-153750000D03*
%TD*%
D11*
%TO.P,REF\u002A\u002A,1*%
%TO.N,N/C*%
X111500000Y-20000000D03*
%TD*%
%TO.P,REF\u002A\u002A,1*%
%TO.N,N/C*%
X20000000Y-159000000D03*
%TD*%
D21*
%TO.P,REF\u002A\u002A,1*%
%TO.N,N/C*%
X108600000Y-32000000D03*
%TD*%
D13*
%TO.P,U1,1,IN+*%
%TO.N,Net-(J3-Pin_1)*%
X47580000Y-33000000D03*
X43080000Y-35000000D03*
%TO.P,U1,2,IN-*%
%TO.N,Net-(J3-Pin_2)*%
X32580000Y-33000000D03*
X38000000Y-35000000D03*
%TO.P,U1,3,OUT+*%
%TO.N,+5V*%
X43080000Y-93000000D03*
X47580000Y-95000000D03*
%TO.P,U1,4,OUT-*%
%TO.N,GND*%
X38000000Y-93000000D03*
X32580000Y-95000000D03*
D22*
%TO.P,U1,5*%
%TO.N,N/C*%
X56040000Y-33540000D03*
X25040000Y-33540000D03*
X56040000Y-94040000D03*
X25040000Y-94040000D03*
D19*
%TO.P,U1,6*%
X55350000Y-66785000D03*
%TO.P,U1,7*%
X55350000Y-69325000D03*
%TO.P,U1,8*%
X55350000Y-71865000D03*
%TO.P,U1,9*%
X35280000Y-58850000D03*
X25120000Y-58850000D03*
X35280000Y-61390000D03*
X25120000Y-61390000D03*
X35280000Y-63930000D03*
X25120000Y-63930000D03*
X35280000Y-66470000D03*
X25120000Y-66470000D03*
X35280000Y-69010000D03*
X25120000Y-69010000D03*
X35280000Y-71550000D03*
X25120000Y-71550000D03*
%TD*%
D11*
%TO.P,REF\u002A\u002A,1*%
%TO.N,N/C*%
X22037500Y-178800000D03*
%TD*%
D21*
%TO.P,,1*%
%TO.N,N/C*%
X22000000Y-31500000D03*
%TD*%
%TO.P,,1*%
%TO.N,N/C*%
X48000000Y-63000000D03*
%TD*%
D23*
%TO.P,J1,S1*%
%TO.N,N/C*%
X33000000Y-109500000D03*
%TO.P,J1,S2*%
X91000000Y-109500000D03*
%TO.P,J1,S3*%
X91000000Y-158500000D03*
%TO.P,J1,S4*%
X33000000Y-158500000D03*
%TD*%
D11*
%TO.P,REF\u002A\u002A,1*%
%TO.N,N/C*%
X111500000Y-159000000D03*
%TD*%
D16*
%TO.P,J8,1,Pin_1*%
%TO.N,Net-(J1-GPIO14{slash}UART_TXD)*%
X106000000Y-103500000D03*
D17*
%TO.P,J8,2,Pin_2*%
%TO.N,Net-(J1-GPIO15{slash}UART_RXD)*%
X106000000Y-101500000D03*
%TO.P,J8,3,Pin_3*%
%TO.N,Net-(J1-GPIO18{slash}SPI1_~{CE0}{slash}PCM_CLK{slash}PWM0)*%
X106000000Y-99500000D03*
%TD*%
D24*
%TO.P,J11,1,Pin_1*%
%TO.N,Net-(J11-Pin_1)*%
X92330357Y-180760000D03*
D25*
%TO.P,J11,2,Pin_2*%
%TO.N,Net-(J11-Pin_2)*%
X92330357Y-176800000D03*
%TD*%
D21*
%TO.P,,1*%
%TO.N,N/C*%
X24000000Y-143750000D03*
%TD*%
D18*
%TO.P,J4,1,Pin_1*%
%TO.N,+5V*%
X37840000Y-102000000D03*
D19*
%TO.P,J4,2,Pin_2*%
X40380000Y-102000000D03*
%TO.P,J4,3,Pin_3*%
%TO.N,GND*%
X42920000Y-102000000D03*
%TO.P,J4,4,Pin_4*%
%TO.N,Net-(J1-GPIO14{slash}UART_TXD)*%
X45460000Y-102000000D03*
%TO.P,J4,5,Pin_5*%
%TO.N,Net-(J1-GPIO15{slash}UART_RXD)*%
X48000000Y-102000000D03*
%TO.P,J4,6,Pin_6*%
%TO.N,Net-(J1-GPIO18{slash}SPI1_~{CE0}{slash}PCM_CLK{slash}PWM0)*%
X50540000Y-102000000D03*
%TD*%
D11*
%TO.P,,1*%
%TO.N,N/C*%
X102037500Y-178800000D03*
%TD*%
D19*
%TO.P,M2,1,GND*%
%TO.N,Net-(J5-Pin_1)*%
X61658929Y-181180000D03*
%TO.P,M2,2,A*%
%TO.N,Net-(J5-Pin_2)*%
X61658929Y-178640000D03*
%TO.P,M2,3,B*%
%TO.N,Net-(J5-Pin_3)*%
X61658929Y-176100000D03*
%TO.P,M2,4,EN*%
%TO.N,Net-(J1-GPIO18{slash}SPI1_~{CE0}{slash}PCM_CLK{slash}PWM0)*%
X46418929Y-183720000D03*
%TO.P,M2,5,VCC*%
%TO.N,+3V3*%
X46418929Y-181180000D03*
%TO.P,M2,6,RX*%
%TO.N,Net-(J1-GPIO15{slash}UART_RXD)*%
X46418929Y-178640000D03*
%TO.P,M2,7,TX*%
%TO.N,Net-(J1-GPIO14{slash}UART_TXD)*%
X46418929Y-176100000D03*
%TO.P,M2,8,GND*%
%TO.N,GND*%
X46418929Y-173560000D03*
%TD*%
D26*
%TO.P,J9,1,Pin_1*%
%TO.N,Net-(J1-GPIO14{slash}UART_TXD)*%
X38200000Y-176800000D03*
D17*
%TO.P,J9,2,Pin_2*%
%TO.N,Net-(J1-GPIO15{slash}UART_RXD)*%
X38200000Y-178800000D03*
%TO.P,J9,3,Pin_3*%
%TO.N,Net-(J1-GPIO18{slash}SPI1_~{CE0}{slash}PCM_CLK{slash}PWM0)*%
X38200000Y-180800000D03*
%TD*%
D26*
%TO.P,J10,1,Pin_1*%
%TO.N,+3V3*%
X30200000Y-176800000D03*
D17*
%TO.P,J10,2,Pin_2*%
%TO.N,GND*%
X30200000Y-178800000D03*
%TO.P,J10,3,Pin_3*%
%TO.N,unconnected-(J10-Pin_3-Pad3)*%
X30200000Y-180800000D03*
%TD*%
D24*
%TO.P,J2,1,Pin_1*%
%TO.N,Net-(J11-Pin_1)*%
X80648214Y-180760000D03*
D25*
%TO.P,J2,2,Pin_2*%
%TO.N,Net-(J11-Pin_2)*%
X80648214Y-176800000D03*
%TD*%
D27*
%TO.N,*%
X70000000Y-21000000D03*
X62000000Y-21000000D03*
X70000000Y-24000000D03*
X64700000Y-24700000D03*
X62000000Y-24000000D03*
X62000000Y-18000000D03*
X70000000Y-18000000D03*
X67350000Y-24750000D03*
D28*
%TO.N,Net-(J5-Pin_2)*%
X65200000Y-178600000D03*
%TO.N,Net-(J5-Pin_3)*%
X65200000Y-176200000D03*
%TO.N,Net-(J5-Pin_1)*%
X65200000Y-181200000D03*
%TD*%
D30*
%TO.N,GND*%
X37440000Y-173560000D02*
X46418929Y-173560000D01*
X32200000Y-178800000D02*
X37440000Y-173560000D01*
X30200000Y-178800000D02*
X32200000Y-178800000D01*
%TO.N,Net-(J1-GPIO18{slash}SPI1_~{CE0}{slash}PCM_CLK{slash}PWM0)*%
X43720000Y-183720000D02*
X40800000Y-180800000D01*
X46418929Y-183720000D02*
X43720000Y-183720000D01*
X40800000Y-180800000D02*
X38200000Y-180800000D01*
%TO.N,Net-(J1-GPIO15{slash}UART_RXD)*%
X46258929Y-178800000D02*
X46418929Y-178640000D01*
X38200000Y-178800000D02*
X46258929Y-178800000D01*
%TO.N,Net-(J1-GPIO14{slash}UART_TXD)*%
X42900000Y-176100000D02*
X42200000Y-176800000D01*
X42200000Y-176800000D02*
X38200000Y-176800000D01*
X46418929Y-176100000D02*
X42900000Y-176100000D01*
%TO.N,Net-(J5-Pin_2)*%
X61658929Y-178640000D02*
X65160000Y-178640000D01*
X65160000Y-178640000D02*
X65200000Y-178600000D01*
%TO.N,Net-(J5-Pin_3)*%
X64900000Y-176100000D02*
X61658929Y-176100000D01*
X65200000Y-176200000D02*
X65000000Y-176200000D01*
X65000000Y-176200000D02*
X64900000Y-176100000D01*
%TO.N,Net-(J5-Pin_1)*%
X65180000Y-181180000D02*
X65200000Y-181200000D01*
X61658929Y-181180000D02*
X65180000Y-181180000D01*
%TO.N,+3V3*%
X47980000Y-181180000D02*
X49000000Y-182200000D01*
X46418929Y-181180000D02*
X47980000Y-181180000D01*
X27600000Y-178200000D02*
X29000000Y-176800000D01*
X27600000Y-183200000D02*
X27600000Y-178200000D01*
X47800000Y-185600000D02*
X30000000Y-185600000D01*
X49000000Y-182200000D02*
X49000000Y-184400000D01*
X29000000Y-176800000D02*
X30200000Y-176800000D01*
X30000000Y-185600000D02*
X27600000Y-183200000D01*
X49000000Y-184400000D02*
X47800000Y-185600000D01*
D32*
%TO.N,Net-(J11-Pin_1)*%
X80648214Y-180760000D02*
X92330357Y-180760000D01*
%TO.N,Net-(J11-Pin_2)*%
X80648214Y-176800000D02*
X92330357Y-176800000D01*
%TD*%
M02*
